%TF.GenerationSoftware,KiCad,Pcbnew,8.0.1*%
%TF.CreationDate,2024-03-17T17:03:55+00:00*%
%TF.ProjectId,ToastedBreadBoard128,546f6173-7465-4644-9272-656164426f61,rev?*%
%TF.SameCoordinates,Original*%
%TF.FileFunction,Legend,Top*%
%TF.FilePolarity,Positive*%
%FSLAX46Y46*%
G04 Gerber Fmt 4.6, Leading zero omitted, Abs format (unit mm)*
G04 Created by KiCad (PCBNEW 8.0.1) date 2024-03-17 17:03:55*
%MOMM*%
%LPD*%
G01*
G04 APERTURE LIST*
%ADD10C,0.300000*%
%ADD11C,0.150000*%
%ADD12C,0.120000*%
G04 APERTURE END LIST*
D10*
X146526190Y-38279638D02*
X145573809Y-38279638D01*
X145573809Y-38279638D02*
X145478571Y-39232019D01*
X145478571Y-39232019D02*
X145573809Y-39136780D01*
X145573809Y-39136780D02*
X145764285Y-39041542D01*
X145764285Y-39041542D02*
X146240476Y-39041542D01*
X146240476Y-39041542D02*
X146430952Y-39136780D01*
X146430952Y-39136780D02*
X146526190Y-39232019D01*
X146526190Y-39232019D02*
X146621428Y-39422495D01*
X146621428Y-39422495D02*
X146621428Y-39898685D01*
X146621428Y-39898685D02*
X146526190Y-40089161D01*
X146526190Y-40089161D02*
X146430952Y-40184400D01*
X146430952Y-40184400D02*
X146240476Y-40279638D01*
X146240476Y-40279638D02*
X145764285Y-40279638D01*
X145764285Y-40279638D02*
X145573809Y-40184400D01*
X145573809Y-40184400D02*
X145478571Y-40089161D01*
X102108095Y-189477733D02*
X103631905Y-189477733D01*
X102870000Y-190239638D02*
X102870000Y-188715828D01*
X110966190Y-38279638D02*
X110013809Y-38279638D01*
X110013809Y-38279638D02*
X109918571Y-39232019D01*
X109918571Y-39232019D02*
X110013809Y-39136780D01*
X110013809Y-39136780D02*
X110204285Y-39041542D01*
X110204285Y-39041542D02*
X110680476Y-39041542D01*
X110680476Y-39041542D02*
X110870952Y-39136780D01*
X110870952Y-39136780D02*
X110966190Y-39232019D01*
X110966190Y-39232019D02*
X111061428Y-39422495D01*
X111061428Y-39422495D02*
X111061428Y-39898685D01*
X111061428Y-39898685D02*
X110966190Y-40089161D01*
X110966190Y-40089161D02*
X110870952Y-40184400D01*
X110870952Y-40184400D02*
X110680476Y-40279638D01*
X110680476Y-40279638D02*
X110204285Y-40279638D01*
X110204285Y-40279638D02*
X110013809Y-40184400D01*
X110013809Y-40184400D02*
X109918571Y-40089161D01*
D11*
X119689523Y-191544580D02*
X119641904Y-191592200D01*
X119641904Y-191592200D02*
X119499047Y-191639819D01*
X119499047Y-191639819D02*
X119403809Y-191639819D01*
X119403809Y-191639819D02*
X119260952Y-191592200D01*
X119260952Y-191592200D02*
X119165714Y-191496961D01*
X119165714Y-191496961D02*
X119118095Y-191401723D01*
X119118095Y-191401723D02*
X119070476Y-191211247D01*
X119070476Y-191211247D02*
X119070476Y-191068390D01*
X119070476Y-191068390D02*
X119118095Y-190877914D01*
X119118095Y-190877914D02*
X119165714Y-190782676D01*
X119165714Y-190782676D02*
X119260952Y-190687438D01*
X119260952Y-190687438D02*
X119403809Y-190639819D01*
X119403809Y-190639819D02*
X119499047Y-190639819D01*
X119499047Y-190639819D02*
X119641904Y-190687438D01*
X119641904Y-190687438D02*
X119689523Y-190735057D01*
D10*
X107696190Y-89270114D02*
X107791428Y-89174876D01*
X107791428Y-89174876D02*
X107981904Y-89079638D01*
X107981904Y-89079638D02*
X108458095Y-89079638D01*
X108458095Y-89079638D02*
X108648571Y-89174876D01*
X108648571Y-89174876D02*
X108743809Y-89270114D01*
X108743809Y-89270114D02*
X108839047Y-89460590D01*
X108839047Y-89460590D02*
X108839047Y-89651066D01*
X108839047Y-89651066D02*
X108743809Y-89936780D01*
X108743809Y-89936780D02*
X107600952Y-91079638D01*
X107600952Y-91079638D02*
X108839047Y-91079638D01*
X110648571Y-89079638D02*
X109696190Y-89079638D01*
X109696190Y-89079638D02*
X109600952Y-90032019D01*
X109600952Y-90032019D02*
X109696190Y-89936780D01*
X109696190Y-89936780D02*
X109886666Y-89841542D01*
X109886666Y-89841542D02*
X110362857Y-89841542D01*
X110362857Y-89841542D02*
X110553333Y-89936780D01*
X110553333Y-89936780D02*
X110648571Y-90032019D01*
X110648571Y-90032019D02*
X110743809Y-90222495D01*
X110743809Y-90222495D02*
X110743809Y-90698685D01*
X110743809Y-90698685D02*
X110648571Y-90889161D01*
X110648571Y-90889161D02*
X110553333Y-90984400D01*
X110553333Y-90984400D02*
X110362857Y-91079638D01*
X110362857Y-91079638D02*
X109886666Y-91079638D01*
X109886666Y-91079638D02*
X109696190Y-90984400D01*
X109696190Y-90984400D02*
X109600952Y-90889161D01*
X151698095Y-136077733D02*
X153221905Y-136077733D01*
X103378095Y-82737733D02*
X104901905Y-82737733D01*
X104140000Y-83499638D02*
X104140000Y-81975828D01*
D11*
X114061905Y-191354104D02*
X114538095Y-191354104D01*
X113966667Y-191639819D02*
X114300000Y-190639819D01*
X114300000Y-190639819D02*
X114633333Y-191639819D01*
D10*
X145700952Y-114479638D02*
X146939047Y-114479638D01*
X146939047Y-114479638D02*
X146272380Y-115241542D01*
X146272380Y-115241542D02*
X146558095Y-115241542D01*
X146558095Y-115241542D02*
X146748571Y-115336780D01*
X146748571Y-115336780D02*
X146843809Y-115432019D01*
X146843809Y-115432019D02*
X146939047Y-115622495D01*
X146939047Y-115622495D02*
X146939047Y-116098685D01*
X146939047Y-116098685D02*
X146843809Y-116289161D01*
X146843809Y-116289161D02*
X146748571Y-116384400D01*
X146748571Y-116384400D02*
X146558095Y-116479638D01*
X146558095Y-116479638D02*
X145986666Y-116479638D01*
X145986666Y-116479638D02*
X145796190Y-116384400D01*
X145796190Y-116384400D02*
X145700952Y-116289161D01*
X148748571Y-114479638D02*
X147796190Y-114479638D01*
X147796190Y-114479638D02*
X147700952Y-115432019D01*
X147700952Y-115432019D02*
X147796190Y-115336780D01*
X147796190Y-115336780D02*
X147986666Y-115241542D01*
X147986666Y-115241542D02*
X148462857Y-115241542D01*
X148462857Y-115241542D02*
X148653333Y-115336780D01*
X148653333Y-115336780D02*
X148748571Y-115432019D01*
X148748571Y-115432019D02*
X148843809Y-115622495D01*
X148843809Y-115622495D02*
X148843809Y-116098685D01*
X148843809Y-116098685D02*
X148748571Y-116289161D01*
X148748571Y-116289161D02*
X148653333Y-116384400D01*
X148653333Y-116384400D02*
X148462857Y-116479638D01*
X148462857Y-116479638D02*
X147986666Y-116479638D01*
X147986666Y-116479638D02*
X147796190Y-116384400D01*
X147796190Y-116384400D02*
X147700952Y-116289161D01*
D11*
X136151904Y-26857438D02*
X136056666Y-26809819D01*
X136056666Y-26809819D02*
X135913809Y-26809819D01*
X135913809Y-26809819D02*
X135770952Y-26857438D01*
X135770952Y-26857438D02*
X135675714Y-26952676D01*
X135675714Y-26952676D02*
X135628095Y-27047914D01*
X135628095Y-27047914D02*
X135580476Y-27238390D01*
X135580476Y-27238390D02*
X135580476Y-27381247D01*
X135580476Y-27381247D02*
X135628095Y-27571723D01*
X135628095Y-27571723D02*
X135675714Y-27666961D01*
X135675714Y-27666961D02*
X135770952Y-27762200D01*
X135770952Y-27762200D02*
X135913809Y-27809819D01*
X135913809Y-27809819D02*
X136009047Y-27809819D01*
X136009047Y-27809819D02*
X136151904Y-27762200D01*
X136151904Y-27762200D02*
X136199523Y-27714580D01*
X136199523Y-27714580D02*
X136199523Y-27381247D01*
X136199523Y-27381247D02*
X136009047Y-27381247D01*
D10*
X149098095Y-136077733D02*
X150621905Y-136077733D01*
X149860000Y-136839638D02*
X149860000Y-135315828D01*
X149098095Y-82737733D02*
X150621905Y-82737733D01*
X149860000Y-83499638D02*
X149860000Y-81975828D01*
D11*
X133492857Y-27286009D02*
X133159524Y-27286009D01*
X133159524Y-27809819D02*
X133159524Y-26809819D01*
X133159524Y-26809819D02*
X133635714Y-26809819D01*
X132222857Y-191116009D02*
X131889524Y-191116009D01*
X131889524Y-191639819D02*
X131889524Y-190639819D01*
X131889524Y-190639819D02*
X132365714Y-190639819D01*
D10*
X145796190Y-76570114D02*
X145891428Y-76474876D01*
X145891428Y-76474876D02*
X146081904Y-76379638D01*
X146081904Y-76379638D02*
X146558095Y-76379638D01*
X146558095Y-76379638D02*
X146748571Y-76474876D01*
X146748571Y-76474876D02*
X146843809Y-76570114D01*
X146843809Y-76570114D02*
X146939047Y-76760590D01*
X146939047Y-76760590D02*
X146939047Y-76951066D01*
X146939047Y-76951066D02*
X146843809Y-77236780D01*
X146843809Y-77236780D02*
X145700952Y-78379638D01*
X145700952Y-78379638D02*
X146939047Y-78379638D01*
X148177142Y-76379638D02*
X148367619Y-76379638D01*
X148367619Y-76379638D02*
X148558095Y-76474876D01*
X148558095Y-76474876D02*
X148653333Y-76570114D01*
X148653333Y-76570114D02*
X148748571Y-76760590D01*
X148748571Y-76760590D02*
X148843809Y-77141542D01*
X148843809Y-77141542D02*
X148843809Y-77617733D01*
X148843809Y-77617733D02*
X148748571Y-77998685D01*
X148748571Y-77998685D02*
X148653333Y-78189161D01*
X148653333Y-78189161D02*
X148558095Y-78284400D01*
X148558095Y-78284400D02*
X148367619Y-78379638D01*
X148367619Y-78379638D02*
X148177142Y-78379638D01*
X148177142Y-78379638D02*
X147986666Y-78284400D01*
X147986666Y-78284400D02*
X147891428Y-78189161D01*
X147891428Y-78189161D02*
X147796190Y-77998685D01*
X147796190Y-77998685D02*
X147700952Y-77617733D01*
X147700952Y-77617733D02*
X147700952Y-77141542D01*
X147700952Y-77141542D02*
X147796190Y-76760590D01*
X147796190Y-76760590D02*
X147891428Y-76570114D01*
X147891428Y-76570114D02*
X147986666Y-76474876D01*
X147986666Y-76474876D02*
X148177142Y-76379638D01*
X146843809Y-152579638D02*
X145891428Y-152579638D01*
X145891428Y-152579638D02*
X145796190Y-153532019D01*
X145796190Y-153532019D02*
X145891428Y-153436780D01*
X145891428Y-153436780D02*
X146081904Y-153341542D01*
X146081904Y-153341542D02*
X146558095Y-153341542D01*
X146558095Y-153341542D02*
X146748571Y-153436780D01*
X146748571Y-153436780D02*
X146843809Y-153532019D01*
X146843809Y-153532019D02*
X146939047Y-153722495D01*
X146939047Y-153722495D02*
X146939047Y-154198685D01*
X146939047Y-154198685D02*
X146843809Y-154389161D01*
X146843809Y-154389161D02*
X146748571Y-154484400D01*
X146748571Y-154484400D02*
X146558095Y-154579638D01*
X146558095Y-154579638D02*
X146081904Y-154579638D01*
X146081904Y-154579638D02*
X145891428Y-154484400D01*
X145891428Y-154484400D02*
X145796190Y-154389161D01*
X148177142Y-152579638D02*
X148367619Y-152579638D01*
X148367619Y-152579638D02*
X148558095Y-152674876D01*
X148558095Y-152674876D02*
X148653333Y-152770114D01*
X148653333Y-152770114D02*
X148748571Y-152960590D01*
X148748571Y-152960590D02*
X148843809Y-153341542D01*
X148843809Y-153341542D02*
X148843809Y-153817733D01*
X148843809Y-153817733D02*
X148748571Y-154198685D01*
X148748571Y-154198685D02*
X148653333Y-154389161D01*
X148653333Y-154389161D02*
X148558095Y-154484400D01*
X148558095Y-154484400D02*
X148367619Y-154579638D01*
X148367619Y-154579638D02*
X148177142Y-154579638D01*
X148177142Y-154579638D02*
X147986666Y-154484400D01*
X147986666Y-154484400D02*
X147891428Y-154389161D01*
X147891428Y-154389161D02*
X147796190Y-154198685D01*
X147796190Y-154198685D02*
X147700952Y-153817733D01*
X147700952Y-153817733D02*
X147700952Y-153341542D01*
X147700952Y-153341542D02*
X147796190Y-152960590D01*
X147796190Y-152960590D02*
X147891428Y-152770114D01*
X147891428Y-152770114D02*
X147986666Y-152674876D01*
X147986666Y-152674876D02*
X148177142Y-152579638D01*
D11*
X142382857Y-190639819D02*
X142382857Y-191354104D01*
X142382857Y-191354104D02*
X142335238Y-191496961D01*
X142335238Y-191496961D02*
X142240000Y-191592200D01*
X142240000Y-191592200D02*
X142097143Y-191639819D01*
X142097143Y-191639819D02*
X142001905Y-191639819D01*
D10*
X108743809Y-165279638D02*
X107791428Y-165279638D01*
X107791428Y-165279638D02*
X107696190Y-166232019D01*
X107696190Y-166232019D02*
X107791428Y-166136780D01*
X107791428Y-166136780D02*
X107981904Y-166041542D01*
X107981904Y-166041542D02*
X108458095Y-166041542D01*
X108458095Y-166041542D02*
X108648571Y-166136780D01*
X108648571Y-166136780D02*
X108743809Y-166232019D01*
X108743809Y-166232019D02*
X108839047Y-166422495D01*
X108839047Y-166422495D02*
X108839047Y-166898685D01*
X108839047Y-166898685D02*
X108743809Y-167089161D01*
X108743809Y-167089161D02*
X108648571Y-167184400D01*
X108648571Y-167184400D02*
X108458095Y-167279638D01*
X108458095Y-167279638D02*
X107981904Y-167279638D01*
X107981904Y-167279638D02*
X107791428Y-167184400D01*
X107791428Y-167184400D02*
X107696190Y-167089161D01*
X110648571Y-165279638D02*
X109696190Y-165279638D01*
X109696190Y-165279638D02*
X109600952Y-166232019D01*
X109600952Y-166232019D02*
X109696190Y-166136780D01*
X109696190Y-166136780D02*
X109886666Y-166041542D01*
X109886666Y-166041542D02*
X110362857Y-166041542D01*
X110362857Y-166041542D02*
X110553333Y-166136780D01*
X110553333Y-166136780D02*
X110648571Y-166232019D01*
X110648571Y-166232019D02*
X110743809Y-166422495D01*
X110743809Y-166422495D02*
X110743809Y-166898685D01*
X110743809Y-166898685D02*
X110648571Y-167089161D01*
X110648571Y-167089161D02*
X110553333Y-167184400D01*
X110553333Y-167184400D02*
X110362857Y-167279638D01*
X110362857Y-167279638D02*
X109886666Y-167279638D01*
X109886666Y-167279638D02*
X109696190Y-167184400D01*
X109696190Y-167184400D02*
X109600952Y-167089161D01*
X102108095Y-28187733D02*
X103631905Y-28187733D01*
X102870000Y-28949638D02*
X102870000Y-27425828D01*
X146748571Y-140546304D02*
X146748571Y-141879638D01*
X146272380Y-139784400D02*
X145796190Y-141212971D01*
X145796190Y-141212971D02*
X147034285Y-141212971D01*
X148748571Y-139879638D02*
X147796190Y-139879638D01*
X147796190Y-139879638D02*
X147700952Y-140832019D01*
X147700952Y-140832019D02*
X147796190Y-140736780D01*
X147796190Y-140736780D02*
X147986666Y-140641542D01*
X147986666Y-140641542D02*
X148462857Y-140641542D01*
X148462857Y-140641542D02*
X148653333Y-140736780D01*
X148653333Y-140736780D02*
X148748571Y-140832019D01*
X148748571Y-140832019D02*
X148843809Y-141022495D01*
X148843809Y-141022495D02*
X148843809Y-141498685D01*
X148843809Y-141498685D02*
X148748571Y-141689161D01*
X148748571Y-141689161D02*
X148653333Y-141784400D01*
X148653333Y-141784400D02*
X148462857Y-141879638D01*
X148462857Y-141879638D02*
X147986666Y-141879638D01*
X147986666Y-141879638D02*
X147796190Y-141784400D01*
X147796190Y-141784400D02*
X147700952Y-141689161D01*
X103378095Y-136077733D02*
X104901905Y-136077733D01*
X104140000Y-136839638D02*
X104140000Y-135315828D01*
X104648095Y-189477733D02*
X106171905Y-189477733D01*
D11*
X124245714Y-191116009D02*
X124579047Y-191116009D01*
X124721904Y-191639819D02*
X124245714Y-191639819D01*
X124245714Y-191639819D02*
X124245714Y-190639819D01*
X124245714Y-190639819D02*
X124721904Y-190639819D01*
D10*
X105948095Y-136077733D02*
X107471905Y-136077733D01*
D11*
X112791905Y-27524104D02*
X113268095Y-27524104D01*
X112696667Y-27809819D02*
X113030000Y-26809819D01*
X113030000Y-26809819D02*
X113363333Y-27809819D01*
X120388095Y-27809819D02*
X120388095Y-26809819D01*
X120388095Y-26809819D02*
X120626190Y-26809819D01*
X120626190Y-26809819D02*
X120769047Y-26857438D01*
X120769047Y-26857438D02*
X120864285Y-26952676D01*
X120864285Y-26952676D02*
X120911904Y-27047914D01*
X120911904Y-27047914D02*
X120959523Y-27238390D01*
X120959523Y-27238390D02*
X120959523Y-27381247D01*
X120959523Y-27381247D02*
X120911904Y-27571723D01*
X120911904Y-27571723D02*
X120864285Y-27666961D01*
X120864285Y-27666961D02*
X120769047Y-27762200D01*
X120769047Y-27762200D02*
X120626190Y-27809819D01*
X120626190Y-27809819D02*
X120388095Y-27809819D01*
D10*
X145796190Y-89270114D02*
X145891428Y-89174876D01*
X145891428Y-89174876D02*
X146081904Y-89079638D01*
X146081904Y-89079638D02*
X146558095Y-89079638D01*
X146558095Y-89079638D02*
X146748571Y-89174876D01*
X146748571Y-89174876D02*
X146843809Y-89270114D01*
X146843809Y-89270114D02*
X146939047Y-89460590D01*
X146939047Y-89460590D02*
X146939047Y-89651066D01*
X146939047Y-89651066D02*
X146843809Y-89936780D01*
X146843809Y-89936780D02*
X145700952Y-91079638D01*
X145700952Y-91079638D02*
X146939047Y-91079638D01*
X148748571Y-89079638D02*
X147796190Y-89079638D01*
X147796190Y-89079638D02*
X147700952Y-90032019D01*
X147700952Y-90032019D02*
X147796190Y-89936780D01*
X147796190Y-89936780D02*
X147986666Y-89841542D01*
X147986666Y-89841542D02*
X148462857Y-89841542D01*
X148462857Y-89841542D02*
X148653333Y-89936780D01*
X148653333Y-89936780D02*
X148748571Y-90032019D01*
X148748571Y-90032019D02*
X148843809Y-90222495D01*
X148843809Y-90222495D02*
X148843809Y-90698685D01*
X148843809Y-90698685D02*
X148748571Y-90889161D01*
X148748571Y-90889161D02*
X148653333Y-90984400D01*
X148653333Y-90984400D02*
X148462857Y-91079638D01*
X148462857Y-91079638D02*
X147986666Y-91079638D01*
X147986666Y-91079638D02*
X147796190Y-90984400D01*
X147796190Y-90984400D02*
X147700952Y-90889161D01*
X145954761Y-28119638D02*
X146145238Y-28119638D01*
X146145238Y-28119638D02*
X146335714Y-28214876D01*
X146335714Y-28214876D02*
X146430952Y-28310114D01*
X146430952Y-28310114D02*
X146526190Y-28500590D01*
X146526190Y-28500590D02*
X146621428Y-28881542D01*
X146621428Y-28881542D02*
X146621428Y-29357733D01*
X146621428Y-29357733D02*
X146526190Y-29738685D01*
X146526190Y-29738685D02*
X146430952Y-29929161D01*
X146430952Y-29929161D02*
X146335714Y-30024400D01*
X146335714Y-30024400D02*
X146145238Y-30119638D01*
X146145238Y-30119638D02*
X145954761Y-30119638D01*
X145954761Y-30119638D02*
X145764285Y-30024400D01*
X145764285Y-30024400D02*
X145669047Y-29929161D01*
X145669047Y-29929161D02*
X145573809Y-29738685D01*
X145573809Y-29738685D02*
X145478571Y-29357733D01*
X145478571Y-29357733D02*
X145478571Y-28881542D01*
X145478571Y-28881542D02*
X145573809Y-28500590D01*
X145573809Y-28500590D02*
X145669047Y-28310114D01*
X145669047Y-28310114D02*
X145764285Y-28214876D01*
X145764285Y-28214876D02*
X145954761Y-28119638D01*
D11*
X116911428Y-191116009D02*
X117054285Y-191163628D01*
X117054285Y-191163628D02*
X117101904Y-191211247D01*
X117101904Y-191211247D02*
X117149523Y-191306485D01*
X117149523Y-191306485D02*
X117149523Y-191449342D01*
X117149523Y-191449342D02*
X117101904Y-191544580D01*
X117101904Y-191544580D02*
X117054285Y-191592200D01*
X117054285Y-191592200D02*
X116959047Y-191639819D01*
X116959047Y-191639819D02*
X116578095Y-191639819D01*
X116578095Y-191639819D02*
X116578095Y-190639819D01*
X116578095Y-190639819D02*
X116911428Y-190639819D01*
X116911428Y-190639819D02*
X117006666Y-190687438D01*
X117006666Y-190687438D02*
X117054285Y-190735057D01*
X117054285Y-190735057D02*
X117101904Y-190830295D01*
X117101904Y-190830295D02*
X117101904Y-190925533D01*
X117101904Y-190925533D02*
X117054285Y-191020771D01*
X117054285Y-191020771D02*
X117006666Y-191068390D01*
X117006666Y-191068390D02*
X116911428Y-191116009D01*
X116911428Y-191116009D02*
X116578095Y-191116009D01*
D10*
X152908095Y-189477733D02*
X154431905Y-189477733D01*
X151668095Y-82737733D02*
X153191905Y-82737733D01*
D11*
X122975714Y-27286009D02*
X123309047Y-27286009D01*
X123451904Y-27809819D02*
X122975714Y-27809819D01*
X122975714Y-27809819D02*
X122975714Y-26809819D01*
X122975714Y-26809819D02*
X123451904Y-26809819D01*
D10*
X111664761Y-28119638D02*
X111855238Y-28119638D01*
X111855238Y-28119638D02*
X112045714Y-28214876D01*
X112045714Y-28214876D02*
X112140952Y-28310114D01*
X112140952Y-28310114D02*
X112236190Y-28500590D01*
X112236190Y-28500590D02*
X112331428Y-28881542D01*
X112331428Y-28881542D02*
X112331428Y-29357733D01*
X112331428Y-29357733D02*
X112236190Y-29738685D01*
X112236190Y-29738685D02*
X112140952Y-29929161D01*
X112140952Y-29929161D02*
X112045714Y-30024400D01*
X112045714Y-30024400D02*
X111855238Y-30119638D01*
X111855238Y-30119638D02*
X111664761Y-30119638D01*
X111664761Y-30119638D02*
X111474285Y-30024400D01*
X111474285Y-30024400D02*
X111379047Y-29929161D01*
X111379047Y-29929161D02*
X111283809Y-29738685D01*
X111283809Y-29738685D02*
X111188571Y-29357733D01*
X111188571Y-29357733D02*
X111188571Y-28881542D01*
X111188571Y-28881542D02*
X111283809Y-28500590D01*
X111283809Y-28500590D02*
X111379047Y-28310114D01*
X111379047Y-28310114D02*
X111474285Y-28214876D01*
X111474285Y-28214876D02*
X111664761Y-28119638D01*
X107600952Y-101779638D02*
X108839047Y-101779638D01*
X108839047Y-101779638D02*
X108172380Y-102541542D01*
X108172380Y-102541542D02*
X108458095Y-102541542D01*
X108458095Y-102541542D02*
X108648571Y-102636780D01*
X108648571Y-102636780D02*
X108743809Y-102732019D01*
X108743809Y-102732019D02*
X108839047Y-102922495D01*
X108839047Y-102922495D02*
X108839047Y-103398685D01*
X108839047Y-103398685D02*
X108743809Y-103589161D01*
X108743809Y-103589161D02*
X108648571Y-103684400D01*
X108648571Y-103684400D02*
X108458095Y-103779638D01*
X108458095Y-103779638D02*
X107886666Y-103779638D01*
X107886666Y-103779638D02*
X107696190Y-103684400D01*
X107696190Y-103684400D02*
X107600952Y-103589161D01*
X110077142Y-101779638D02*
X110267619Y-101779638D01*
X110267619Y-101779638D02*
X110458095Y-101874876D01*
X110458095Y-101874876D02*
X110553333Y-101970114D01*
X110553333Y-101970114D02*
X110648571Y-102160590D01*
X110648571Y-102160590D02*
X110743809Y-102541542D01*
X110743809Y-102541542D02*
X110743809Y-103017733D01*
X110743809Y-103017733D02*
X110648571Y-103398685D01*
X110648571Y-103398685D02*
X110553333Y-103589161D01*
X110553333Y-103589161D02*
X110458095Y-103684400D01*
X110458095Y-103684400D02*
X110267619Y-103779638D01*
X110267619Y-103779638D02*
X110077142Y-103779638D01*
X110077142Y-103779638D02*
X109886666Y-103684400D01*
X109886666Y-103684400D02*
X109791428Y-103589161D01*
X109791428Y-103589161D02*
X109696190Y-103398685D01*
X109696190Y-103398685D02*
X109600952Y-103017733D01*
X109600952Y-103017733D02*
X109600952Y-102541542D01*
X109600952Y-102541542D02*
X109696190Y-102160590D01*
X109696190Y-102160590D02*
X109791428Y-101970114D01*
X109791428Y-101970114D02*
X109886666Y-101874876D01*
X109886666Y-101874876D02*
X110077142Y-101779638D01*
X105948095Y-82737733D02*
X107471905Y-82737733D01*
D11*
X115641428Y-27286009D02*
X115784285Y-27333628D01*
X115784285Y-27333628D02*
X115831904Y-27381247D01*
X115831904Y-27381247D02*
X115879523Y-27476485D01*
X115879523Y-27476485D02*
X115879523Y-27619342D01*
X115879523Y-27619342D02*
X115831904Y-27714580D01*
X115831904Y-27714580D02*
X115784285Y-27762200D01*
X115784285Y-27762200D02*
X115689047Y-27809819D01*
X115689047Y-27809819D02*
X115308095Y-27809819D01*
X115308095Y-27809819D02*
X115308095Y-26809819D01*
X115308095Y-26809819D02*
X115641428Y-26809819D01*
X115641428Y-26809819D02*
X115736666Y-26857438D01*
X115736666Y-26857438D02*
X115784285Y-26905057D01*
X115784285Y-26905057D02*
X115831904Y-27000295D01*
X115831904Y-27000295D02*
X115831904Y-27095533D01*
X115831904Y-27095533D02*
X115784285Y-27190771D01*
X115784285Y-27190771D02*
X115736666Y-27238390D01*
X115736666Y-27238390D02*
X115641428Y-27286009D01*
X115641428Y-27286009D02*
X115308095Y-27286009D01*
X134881904Y-190687438D02*
X134786666Y-190639819D01*
X134786666Y-190639819D02*
X134643809Y-190639819D01*
X134643809Y-190639819D02*
X134500952Y-190687438D01*
X134500952Y-190687438D02*
X134405714Y-190782676D01*
X134405714Y-190782676D02*
X134358095Y-190877914D01*
X134358095Y-190877914D02*
X134310476Y-191068390D01*
X134310476Y-191068390D02*
X134310476Y-191211247D01*
X134310476Y-191211247D02*
X134358095Y-191401723D01*
X134358095Y-191401723D02*
X134405714Y-191496961D01*
X134405714Y-191496961D02*
X134500952Y-191592200D01*
X134500952Y-191592200D02*
X134643809Y-191639819D01*
X134643809Y-191639819D02*
X134739047Y-191639819D01*
X134739047Y-191639819D02*
X134881904Y-191592200D01*
X134881904Y-191592200D02*
X134929523Y-191544580D01*
X134929523Y-191544580D02*
X134929523Y-191211247D01*
X134929523Y-191211247D02*
X134739047Y-191211247D01*
D10*
X108743809Y-152579638D02*
X107791428Y-152579638D01*
X107791428Y-152579638D02*
X107696190Y-153532019D01*
X107696190Y-153532019D02*
X107791428Y-153436780D01*
X107791428Y-153436780D02*
X107981904Y-153341542D01*
X107981904Y-153341542D02*
X108458095Y-153341542D01*
X108458095Y-153341542D02*
X108648571Y-153436780D01*
X108648571Y-153436780D02*
X108743809Y-153532019D01*
X108743809Y-153532019D02*
X108839047Y-153722495D01*
X108839047Y-153722495D02*
X108839047Y-154198685D01*
X108839047Y-154198685D02*
X108743809Y-154389161D01*
X108743809Y-154389161D02*
X108648571Y-154484400D01*
X108648571Y-154484400D02*
X108458095Y-154579638D01*
X108458095Y-154579638D02*
X107981904Y-154579638D01*
X107981904Y-154579638D02*
X107791428Y-154484400D01*
X107791428Y-154484400D02*
X107696190Y-154389161D01*
X110077142Y-152579638D02*
X110267619Y-152579638D01*
X110267619Y-152579638D02*
X110458095Y-152674876D01*
X110458095Y-152674876D02*
X110553333Y-152770114D01*
X110553333Y-152770114D02*
X110648571Y-152960590D01*
X110648571Y-152960590D02*
X110743809Y-153341542D01*
X110743809Y-153341542D02*
X110743809Y-153817733D01*
X110743809Y-153817733D02*
X110648571Y-154198685D01*
X110648571Y-154198685D02*
X110553333Y-154389161D01*
X110553333Y-154389161D02*
X110458095Y-154484400D01*
X110458095Y-154484400D02*
X110267619Y-154579638D01*
X110267619Y-154579638D02*
X110077142Y-154579638D01*
X110077142Y-154579638D02*
X109886666Y-154484400D01*
X109886666Y-154484400D02*
X109791428Y-154389161D01*
X109791428Y-154389161D02*
X109696190Y-154198685D01*
X109696190Y-154198685D02*
X109600952Y-153817733D01*
X109600952Y-153817733D02*
X109600952Y-153341542D01*
X109600952Y-153341542D02*
X109696190Y-152960590D01*
X109696190Y-152960590D02*
X109791428Y-152770114D01*
X109791428Y-152770114D02*
X109886666Y-152674876D01*
X109886666Y-152674876D02*
X110077142Y-152579638D01*
X146748571Y-127846304D02*
X146748571Y-129179638D01*
X146272380Y-127084400D02*
X145796190Y-128512971D01*
X145796190Y-128512971D02*
X147034285Y-128512971D01*
X148177142Y-127179638D02*
X148367619Y-127179638D01*
X148367619Y-127179638D02*
X148558095Y-127274876D01*
X148558095Y-127274876D02*
X148653333Y-127370114D01*
X148653333Y-127370114D02*
X148748571Y-127560590D01*
X148748571Y-127560590D02*
X148843809Y-127941542D01*
X148843809Y-127941542D02*
X148843809Y-128417733D01*
X148843809Y-128417733D02*
X148748571Y-128798685D01*
X148748571Y-128798685D02*
X148653333Y-128989161D01*
X148653333Y-128989161D02*
X148558095Y-129084400D01*
X148558095Y-129084400D02*
X148367619Y-129179638D01*
X148367619Y-129179638D02*
X148177142Y-129179638D01*
X148177142Y-129179638D02*
X147986666Y-129084400D01*
X147986666Y-129084400D02*
X147891428Y-128989161D01*
X147891428Y-128989161D02*
X147796190Y-128798685D01*
X147796190Y-128798685D02*
X147700952Y-128417733D01*
X147700952Y-128417733D02*
X147700952Y-127941542D01*
X147700952Y-127941542D02*
X147796190Y-127560590D01*
X147796190Y-127560590D02*
X147891428Y-127370114D01*
X147891428Y-127370114D02*
X147986666Y-127274876D01*
X147986666Y-127274876D02*
X148177142Y-127179638D01*
X108648571Y-177979638D02*
X108267618Y-177979638D01*
X108267618Y-177979638D02*
X108077142Y-178074876D01*
X108077142Y-178074876D02*
X107981904Y-178170114D01*
X107981904Y-178170114D02*
X107791428Y-178455828D01*
X107791428Y-178455828D02*
X107696190Y-178836780D01*
X107696190Y-178836780D02*
X107696190Y-179598685D01*
X107696190Y-179598685D02*
X107791428Y-179789161D01*
X107791428Y-179789161D02*
X107886666Y-179884400D01*
X107886666Y-179884400D02*
X108077142Y-179979638D01*
X108077142Y-179979638D02*
X108458095Y-179979638D01*
X108458095Y-179979638D02*
X108648571Y-179884400D01*
X108648571Y-179884400D02*
X108743809Y-179789161D01*
X108743809Y-179789161D02*
X108839047Y-179598685D01*
X108839047Y-179598685D02*
X108839047Y-179122495D01*
X108839047Y-179122495D02*
X108743809Y-178932019D01*
X108743809Y-178932019D02*
X108648571Y-178836780D01*
X108648571Y-178836780D02*
X108458095Y-178741542D01*
X108458095Y-178741542D02*
X108077142Y-178741542D01*
X108077142Y-178741542D02*
X107886666Y-178836780D01*
X107886666Y-178836780D02*
X107791428Y-178932019D01*
X107791428Y-178932019D02*
X107696190Y-179122495D01*
X110077142Y-177979638D02*
X110267619Y-177979638D01*
X110267619Y-177979638D02*
X110458095Y-178074876D01*
X110458095Y-178074876D02*
X110553333Y-178170114D01*
X110553333Y-178170114D02*
X110648571Y-178360590D01*
X110648571Y-178360590D02*
X110743809Y-178741542D01*
X110743809Y-178741542D02*
X110743809Y-179217733D01*
X110743809Y-179217733D02*
X110648571Y-179598685D01*
X110648571Y-179598685D02*
X110553333Y-179789161D01*
X110553333Y-179789161D02*
X110458095Y-179884400D01*
X110458095Y-179884400D02*
X110267619Y-179979638D01*
X110267619Y-179979638D02*
X110077142Y-179979638D01*
X110077142Y-179979638D02*
X109886666Y-179884400D01*
X109886666Y-179884400D02*
X109791428Y-179789161D01*
X109791428Y-179789161D02*
X109696190Y-179598685D01*
X109696190Y-179598685D02*
X109600952Y-179217733D01*
X109600952Y-179217733D02*
X109600952Y-178741542D01*
X109600952Y-178741542D02*
X109696190Y-178360590D01*
X109696190Y-178360590D02*
X109791428Y-178170114D01*
X109791428Y-178170114D02*
X109886666Y-178074876D01*
X109886666Y-178074876D02*
X110077142Y-177979638D01*
D11*
X143652857Y-26809819D02*
X143652857Y-27524104D01*
X143652857Y-27524104D02*
X143605238Y-27666961D01*
X143605238Y-27666961D02*
X143510000Y-27762200D01*
X143510000Y-27762200D02*
X143367143Y-27809819D01*
X143367143Y-27809819D02*
X143271905Y-27809819D01*
D10*
X127840828Y-122849774D02*
X127840828Y-121992632D01*
X129340828Y-122421203D02*
X127840828Y-122421203D01*
X129340828Y-121278346D02*
X129269400Y-121421203D01*
X129269400Y-121421203D02*
X129197971Y-121492632D01*
X129197971Y-121492632D02*
X129055114Y-121564060D01*
X129055114Y-121564060D02*
X128626542Y-121564060D01*
X128626542Y-121564060D02*
X128483685Y-121492632D01*
X128483685Y-121492632D02*
X128412257Y-121421203D01*
X128412257Y-121421203D02*
X128340828Y-121278346D01*
X128340828Y-121278346D02*
X128340828Y-121064060D01*
X128340828Y-121064060D02*
X128412257Y-120921203D01*
X128412257Y-120921203D02*
X128483685Y-120849775D01*
X128483685Y-120849775D02*
X128626542Y-120778346D01*
X128626542Y-120778346D02*
X129055114Y-120778346D01*
X129055114Y-120778346D02*
X129197971Y-120849775D01*
X129197971Y-120849775D02*
X129269400Y-120921203D01*
X129269400Y-120921203D02*
X129340828Y-121064060D01*
X129340828Y-121064060D02*
X129340828Y-121278346D01*
X129340828Y-119492632D02*
X128555114Y-119492632D01*
X128555114Y-119492632D02*
X128412257Y-119564060D01*
X128412257Y-119564060D02*
X128340828Y-119706917D01*
X128340828Y-119706917D02*
X128340828Y-119992632D01*
X128340828Y-119992632D02*
X128412257Y-120135489D01*
X129269400Y-119492632D02*
X129340828Y-119635489D01*
X129340828Y-119635489D02*
X129340828Y-119992632D01*
X129340828Y-119992632D02*
X129269400Y-120135489D01*
X129269400Y-120135489D02*
X129126542Y-120206917D01*
X129126542Y-120206917D02*
X128983685Y-120206917D01*
X128983685Y-120206917D02*
X128840828Y-120135489D01*
X128840828Y-120135489D02*
X128769400Y-119992632D01*
X128769400Y-119992632D02*
X128769400Y-119635489D01*
X128769400Y-119635489D02*
X128697971Y-119492632D01*
X129269400Y-118849774D02*
X129340828Y-118706917D01*
X129340828Y-118706917D02*
X129340828Y-118421203D01*
X129340828Y-118421203D02*
X129269400Y-118278346D01*
X129269400Y-118278346D02*
X129126542Y-118206917D01*
X129126542Y-118206917D02*
X129055114Y-118206917D01*
X129055114Y-118206917D02*
X128912257Y-118278346D01*
X128912257Y-118278346D02*
X128840828Y-118421203D01*
X128840828Y-118421203D02*
X128840828Y-118635489D01*
X128840828Y-118635489D02*
X128769400Y-118778346D01*
X128769400Y-118778346D02*
X128626542Y-118849774D01*
X128626542Y-118849774D02*
X128555114Y-118849774D01*
X128555114Y-118849774D02*
X128412257Y-118778346D01*
X128412257Y-118778346D02*
X128340828Y-118635489D01*
X128340828Y-118635489D02*
X128340828Y-118421203D01*
X128340828Y-118421203D02*
X128412257Y-118278346D01*
X128340828Y-117778345D02*
X128340828Y-117206917D01*
X127840828Y-117564060D02*
X129126542Y-117564060D01*
X129126542Y-117564060D02*
X129269400Y-117492631D01*
X129269400Y-117492631D02*
X129340828Y-117349774D01*
X129340828Y-117349774D02*
X129340828Y-117206917D01*
X129269400Y-116135488D02*
X129340828Y-116278345D01*
X129340828Y-116278345D02*
X129340828Y-116564060D01*
X129340828Y-116564060D02*
X129269400Y-116706917D01*
X129269400Y-116706917D02*
X129126542Y-116778345D01*
X129126542Y-116778345D02*
X128555114Y-116778345D01*
X128555114Y-116778345D02*
X128412257Y-116706917D01*
X128412257Y-116706917D02*
X128340828Y-116564060D01*
X128340828Y-116564060D02*
X128340828Y-116278345D01*
X128340828Y-116278345D02*
X128412257Y-116135488D01*
X128412257Y-116135488D02*
X128555114Y-116064060D01*
X128555114Y-116064060D02*
X128697971Y-116064060D01*
X128697971Y-116064060D02*
X128840828Y-116778345D01*
X129340828Y-114778346D02*
X127840828Y-114778346D01*
X129269400Y-114778346D02*
X129340828Y-114921203D01*
X129340828Y-114921203D02*
X129340828Y-115206917D01*
X129340828Y-115206917D02*
X129269400Y-115349774D01*
X129269400Y-115349774D02*
X129197971Y-115421203D01*
X129197971Y-115421203D02*
X129055114Y-115492631D01*
X129055114Y-115492631D02*
X128626542Y-115492631D01*
X128626542Y-115492631D02*
X128483685Y-115421203D01*
X128483685Y-115421203D02*
X128412257Y-115349774D01*
X128412257Y-115349774D02*
X128340828Y-115206917D01*
X128340828Y-115206917D02*
X128340828Y-114921203D01*
X128340828Y-114921203D02*
X128412257Y-114778346D01*
X128555114Y-112421203D02*
X128626542Y-112206917D01*
X128626542Y-112206917D02*
X128697971Y-112135488D01*
X128697971Y-112135488D02*
X128840828Y-112064060D01*
X128840828Y-112064060D02*
X129055114Y-112064060D01*
X129055114Y-112064060D02*
X129197971Y-112135488D01*
X129197971Y-112135488D02*
X129269400Y-112206917D01*
X129269400Y-112206917D02*
X129340828Y-112349774D01*
X129340828Y-112349774D02*
X129340828Y-112921203D01*
X129340828Y-112921203D02*
X127840828Y-112921203D01*
X127840828Y-112921203D02*
X127840828Y-112421203D01*
X127840828Y-112421203D02*
X127912257Y-112278346D01*
X127912257Y-112278346D02*
X127983685Y-112206917D01*
X127983685Y-112206917D02*
X128126542Y-112135488D01*
X128126542Y-112135488D02*
X128269400Y-112135488D01*
X128269400Y-112135488D02*
X128412257Y-112206917D01*
X128412257Y-112206917D02*
X128483685Y-112278346D01*
X128483685Y-112278346D02*
X128555114Y-112421203D01*
X128555114Y-112421203D02*
X128555114Y-112921203D01*
X129340828Y-111421203D02*
X128340828Y-111421203D01*
X128626542Y-111421203D02*
X128483685Y-111349774D01*
X128483685Y-111349774D02*
X128412257Y-111278346D01*
X128412257Y-111278346D02*
X128340828Y-111135488D01*
X128340828Y-111135488D02*
X128340828Y-110992631D01*
X129269400Y-109921203D02*
X129340828Y-110064060D01*
X129340828Y-110064060D02*
X129340828Y-110349775D01*
X129340828Y-110349775D02*
X129269400Y-110492632D01*
X129269400Y-110492632D02*
X129126542Y-110564060D01*
X129126542Y-110564060D02*
X128555114Y-110564060D01*
X128555114Y-110564060D02*
X128412257Y-110492632D01*
X128412257Y-110492632D02*
X128340828Y-110349775D01*
X128340828Y-110349775D02*
X128340828Y-110064060D01*
X128340828Y-110064060D02*
X128412257Y-109921203D01*
X128412257Y-109921203D02*
X128555114Y-109849775D01*
X128555114Y-109849775D02*
X128697971Y-109849775D01*
X128697971Y-109849775D02*
X128840828Y-110564060D01*
X129340828Y-108564061D02*
X128555114Y-108564061D01*
X128555114Y-108564061D02*
X128412257Y-108635489D01*
X128412257Y-108635489D02*
X128340828Y-108778346D01*
X128340828Y-108778346D02*
X128340828Y-109064061D01*
X128340828Y-109064061D02*
X128412257Y-109206918D01*
X129269400Y-108564061D02*
X129340828Y-108706918D01*
X129340828Y-108706918D02*
X129340828Y-109064061D01*
X129340828Y-109064061D02*
X129269400Y-109206918D01*
X129269400Y-109206918D02*
X129126542Y-109278346D01*
X129126542Y-109278346D02*
X128983685Y-109278346D01*
X128983685Y-109278346D02*
X128840828Y-109206918D01*
X128840828Y-109206918D02*
X128769400Y-109064061D01*
X128769400Y-109064061D02*
X128769400Y-108706918D01*
X128769400Y-108706918D02*
X128697971Y-108564061D01*
X129340828Y-107206918D02*
X127840828Y-107206918D01*
X129269400Y-107206918D02*
X129340828Y-107349775D01*
X129340828Y-107349775D02*
X129340828Y-107635489D01*
X129340828Y-107635489D02*
X129269400Y-107778346D01*
X129269400Y-107778346D02*
X129197971Y-107849775D01*
X129197971Y-107849775D02*
X129055114Y-107921203D01*
X129055114Y-107921203D02*
X128626542Y-107921203D01*
X128626542Y-107921203D02*
X128483685Y-107849775D01*
X128483685Y-107849775D02*
X128412257Y-107778346D01*
X128412257Y-107778346D02*
X128340828Y-107635489D01*
X128340828Y-107635489D02*
X128340828Y-107349775D01*
X128340828Y-107349775D02*
X128412257Y-107206918D01*
X129340828Y-106492632D02*
X127840828Y-106492632D01*
X128412257Y-106492632D02*
X128340828Y-106349775D01*
X128340828Y-106349775D02*
X128340828Y-106064060D01*
X128340828Y-106064060D02*
X128412257Y-105921203D01*
X128412257Y-105921203D02*
X128483685Y-105849775D01*
X128483685Y-105849775D02*
X128626542Y-105778346D01*
X128626542Y-105778346D02*
X129055114Y-105778346D01*
X129055114Y-105778346D02*
X129197971Y-105849775D01*
X129197971Y-105849775D02*
X129269400Y-105921203D01*
X129269400Y-105921203D02*
X129340828Y-106064060D01*
X129340828Y-106064060D02*
X129340828Y-106349775D01*
X129340828Y-106349775D02*
X129269400Y-106492632D01*
X129340828Y-104921203D02*
X129269400Y-105064060D01*
X129269400Y-105064060D02*
X129197971Y-105135489D01*
X129197971Y-105135489D02*
X129055114Y-105206917D01*
X129055114Y-105206917D02*
X128626542Y-105206917D01*
X128626542Y-105206917D02*
X128483685Y-105135489D01*
X128483685Y-105135489D02*
X128412257Y-105064060D01*
X128412257Y-105064060D02*
X128340828Y-104921203D01*
X128340828Y-104921203D02*
X128340828Y-104706917D01*
X128340828Y-104706917D02*
X128412257Y-104564060D01*
X128412257Y-104564060D02*
X128483685Y-104492632D01*
X128483685Y-104492632D02*
X128626542Y-104421203D01*
X128626542Y-104421203D02*
X129055114Y-104421203D01*
X129055114Y-104421203D02*
X129197971Y-104492632D01*
X129197971Y-104492632D02*
X129269400Y-104564060D01*
X129269400Y-104564060D02*
X129340828Y-104706917D01*
X129340828Y-104706917D02*
X129340828Y-104921203D01*
X129340828Y-103135489D02*
X128555114Y-103135489D01*
X128555114Y-103135489D02*
X128412257Y-103206917D01*
X128412257Y-103206917D02*
X128340828Y-103349774D01*
X128340828Y-103349774D02*
X128340828Y-103635489D01*
X128340828Y-103635489D02*
X128412257Y-103778346D01*
X129269400Y-103135489D02*
X129340828Y-103278346D01*
X129340828Y-103278346D02*
X129340828Y-103635489D01*
X129340828Y-103635489D02*
X129269400Y-103778346D01*
X129269400Y-103778346D02*
X129126542Y-103849774D01*
X129126542Y-103849774D02*
X128983685Y-103849774D01*
X128983685Y-103849774D02*
X128840828Y-103778346D01*
X128840828Y-103778346D02*
X128769400Y-103635489D01*
X128769400Y-103635489D02*
X128769400Y-103278346D01*
X128769400Y-103278346D02*
X128697971Y-103135489D01*
X129340828Y-102421203D02*
X128340828Y-102421203D01*
X128626542Y-102421203D02*
X128483685Y-102349774D01*
X128483685Y-102349774D02*
X128412257Y-102278346D01*
X128412257Y-102278346D02*
X128340828Y-102135488D01*
X128340828Y-102135488D02*
X128340828Y-101992631D01*
X129340828Y-100849775D02*
X127840828Y-100849775D01*
X129269400Y-100849775D02*
X129340828Y-100992632D01*
X129340828Y-100992632D02*
X129340828Y-101278346D01*
X129340828Y-101278346D02*
X129269400Y-101421203D01*
X129269400Y-101421203D02*
X129197971Y-101492632D01*
X129197971Y-101492632D02*
X129055114Y-101564060D01*
X129055114Y-101564060D02*
X128626542Y-101564060D01*
X128626542Y-101564060D02*
X128483685Y-101492632D01*
X128483685Y-101492632D02*
X128412257Y-101421203D01*
X128412257Y-101421203D02*
X128340828Y-101278346D01*
X128340828Y-101278346D02*
X128340828Y-100992632D01*
X128340828Y-100992632D02*
X128412257Y-100849775D01*
X127769400Y-99064060D02*
X129697971Y-100349774D01*
X127840828Y-98135488D02*
X128912257Y-98135488D01*
X128912257Y-98135488D02*
X129126542Y-98206917D01*
X129126542Y-98206917D02*
X129269400Y-98349774D01*
X129269400Y-98349774D02*
X129340828Y-98564060D01*
X129340828Y-98564060D02*
X129340828Y-98706917D01*
X129340828Y-97206917D02*
X129269400Y-97349774D01*
X129269400Y-97349774D02*
X129197971Y-97421203D01*
X129197971Y-97421203D02*
X129055114Y-97492631D01*
X129055114Y-97492631D02*
X128626542Y-97492631D01*
X128626542Y-97492631D02*
X128483685Y-97421203D01*
X128483685Y-97421203D02*
X128412257Y-97349774D01*
X128412257Y-97349774D02*
X128340828Y-97206917D01*
X128340828Y-97206917D02*
X128340828Y-96992631D01*
X128340828Y-96992631D02*
X128412257Y-96849774D01*
X128412257Y-96849774D02*
X128483685Y-96778346D01*
X128483685Y-96778346D02*
X128626542Y-96706917D01*
X128626542Y-96706917D02*
X129055114Y-96706917D01*
X129055114Y-96706917D02*
X129197971Y-96778346D01*
X129197971Y-96778346D02*
X129269400Y-96849774D01*
X129269400Y-96849774D02*
X129340828Y-96992631D01*
X129340828Y-96992631D02*
X129340828Y-97206917D01*
X129340828Y-96064060D02*
X127840828Y-96064060D01*
X129340828Y-95421203D02*
X128555114Y-95421203D01*
X128555114Y-95421203D02*
X128412257Y-95492631D01*
X128412257Y-95492631D02*
X128340828Y-95635488D01*
X128340828Y-95635488D02*
X128340828Y-95849774D01*
X128340828Y-95849774D02*
X128412257Y-95992631D01*
X128412257Y-95992631D02*
X128483685Y-96064060D01*
X128340828Y-94706917D02*
X129340828Y-94706917D01*
X128483685Y-94706917D02*
X128412257Y-94635488D01*
X128412257Y-94635488D02*
X128340828Y-94492631D01*
X128340828Y-94492631D02*
X128340828Y-94278345D01*
X128340828Y-94278345D02*
X128412257Y-94135488D01*
X128412257Y-94135488D02*
X128555114Y-94064060D01*
X128555114Y-94064060D02*
X129340828Y-94064060D01*
X128555114Y-91706917D02*
X128626542Y-91492631D01*
X128626542Y-91492631D02*
X128697971Y-91421202D01*
X128697971Y-91421202D02*
X128840828Y-91349774D01*
X128840828Y-91349774D02*
X129055114Y-91349774D01*
X129055114Y-91349774D02*
X129197971Y-91421202D01*
X129197971Y-91421202D02*
X129269400Y-91492631D01*
X129269400Y-91492631D02*
X129340828Y-91635488D01*
X129340828Y-91635488D02*
X129340828Y-92206917D01*
X129340828Y-92206917D02*
X127840828Y-92206917D01*
X127840828Y-92206917D02*
X127840828Y-91706917D01*
X127840828Y-91706917D02*
X127912257Y-91564060D01*
X127912257Y-91564060D02*
X127983685Y-91492631D01*
X127983685Y-91492631D02*
X128126542Y-91421202D01*
X128126542Y-91421202D02*
X128269400Y-91421202D01*
X128269400Y-91421202D02*
X128412257Y-91492631D01*
X128412257Y-91492631D02*
X128483685Y-91564060D01*
X128483685Y-91564060D02*
X128555114Y-91706917D01*
X128555114Y-91706917D02*
X128555114Y-92206917D01*
X129340828Y-90706917D02*
X128340828Y-90706917D01*
X128626542Y-90706917D02*
X128483685Y-90635488D01*
X128483685Y-90635488D02*
X128412257Y-90564060D01*
X128412257Y-90564060D02*
X128340828Y-90421202D01*
X128340828Y-90421202D02*
X128340828Y-90278345D01*
X129340828Y-89135489D02*
X128555114Y-89135489D01*
X128555114Y-89135489D02*
X128412257Y-89206917D01*
X128412257Y-89206917D02*
X128340828Y-89349774D01*
X128340828Y-89349774D02*
X128340828Y-89635489D01*
X128340828Y-89635489D02*
X128412257Y-89778346D01*
X129269400Y-89135489D02*
X129340828Y-89278346D01*
X129340828Y-89278346D02*
X129340828Y-89635489D01*
X129340828Y-89635489D02*
X129269400Y-89778346D01*
X129269400Y-89778346D02*
X129126542Y-89849774D01*
X129126542Y-89849774D02*
X128983685Y-89849774D01*
X128983685Y-89849774D02*
X128840828Y-89778346D01*
X128840828Y-89778346D02*
X128769400Y-89635489D01*
X128769400Y-89635489D02*
X128769400Y-89278346D01*
X128769400Y-89278346D02*
X128697971Y-89135489D01*
X129340828Y-87778346D02*
X127840828Y-87778346D01*
X129269400Y-87778346D02*
X129340828Y-87921203D01*
X129340828Y-87921203D02*
X129340828Y-88206917D01*
X129340828Y-88206917D02*
X129269400Y-88349774D01*
X129269400Y-88349774D02*
X129197971Y-88421203D01*
X129197971Y-88421203D02*
X129055114Y-88492631D01*
X129055114Y-88492631D02*
X128626542Y-88492631D01*
X128626542Y-88492631D02*
X128483685Y-88421203D01*
X128483685Y-88421203D02*
X128412257Y-88349774D01*
X128412257Y-88349774D02*
X128340828Y-88206917D01*
X128340828Y-88206917D02*
X128340828Y-87921203D01*
X128340828Y-87921203D02*
X128412257Y-87778346D01*
X129340828Y-86849774D02*
X129269400Y-86992631D01*
X129269400Y-86992631D02*
X129126542Y-87064060D01*
X129126542Y-87064060D02*
X127840828Y-87064060D01*
X129269400Y-85706917D02*
X129340828Y-85849774D01*
X129340828Y-85849774D02*
X129340828Y-86135489D01*
X129340828Y-86135489D02*
X129269400Y-86278346D01*
X129269400Y-86278346D02*
X129126542Y-86349774D01*
X129126542Y-86349774D02*
X128555114Y-86349774D01*
X128555114Y-86349774D02*
X128412257Y-86278346D01*
X128412257Y-86278346D02*
X128340828Y-86135489D01*
X128340828Y-86135489D02*
X128340828Y-85849774D01*
X128340828Y-85849774D02*
X128412257Y-85706917D01*
X128412257Y-85706917D02*
X128555114Y-85635489D01*
X128555114Y-85635489D02*
X128697971Y-85635489D01*
X128697971Y-85635489D02*
X128840828Y-86349774D01*
X128340828Y-85135489D02*
X129340828Y-84778346D01*
X128340828Y-84421203D02*
X129340828Y-84778346D01*
X129340828Y-84778346D02*
X129697971Y-84921203D01*
X129697971Y-84921203D02*
X129769400Y-84992632D01*
X129769400Y-84992632D02*
X129840828Y-85135489D01*
X104648095Y-28187733D02*
X106171905Y-28187733D01*
D11*
X136874286Y-191639819D02*
X136874286Y-190639819D01*
X136874286Y-191116009D02*
X137445714Y-191116009D01*
X137445714Y-191639819D02*
X137445714Y-190639819D01*
X121658095Y-191639819D02*
X121658095Y-190639819D01*
X121658095Y-190639819D02*
X121896190Y-190639819D01*
X121896190Y-190639819D02*
X122039047Y-190687438D01*
X122039047Y-190687438D02*
X122134285Y-190782676D01*
X122134285Y-190782676D02*
X122181904Y-190877914D01*
X122181904Y-190877914D02*
X122229523Y-191068390D01*
X122229523Y-191068390D02*
X122229523Y-191211247D01*
X122229523Y-191211247D02*
X122181904Y-191401723D01*
X122181904Y-191401723D02*
X122134285Y-191496961D01*
X122134285Y-191496961D02*
X122039047Y-191592200D01*
X122039047Y-191592200D02*
X121896190Y-191639819D01*
X121896190Y-191639819D02*
X121658095Y-191639819D01*
D10*
X150368095Y-28187733D02*
X151891905Y-28187733D01*
X151130000Y-28949638D02*
X151130000Y-27425828D01*
D11*
X140970000Y-27809819D02*
X140970000Y-26809819D01*
D10*
X150368095Y-189477733D02*
X151891905Y-189477733D01*
X151130000Y-190239638D02*
X151130000Y-188715828D01*
X107696190Y-76570114D02*
X107791428Y-76474876D01*
X107791428Y-76474876D02*
X107981904Y-76379638D01*
X107981904Y-76379638D02*
X108458095Y-76379638D01*
X108458095Y-76379638D02*
X108648571Y-76474876D01*
X108648571Y-76474876D02*
X108743809Y-76570114D01*
X108743809Y-76570114D02*
X108839047Y-76760590D01*
X108839047Y-76760590D02*
X108839047Y-76951066D01*
X108839047Y-76951066D02*
X108743809Y-77236780D01*
X108743809Y-77236780D02*
X107600952Y-78379638D01*
X107600952Y-78379638D02*
X108839047Y-78379638D01*
X110077142Y-76379638D02*
X110267619Y-76379638D01*
X110267619Y-76379638D02*
X110458095Y-76474876D01*
X110458095Y-76474876D02*
X110553333Y-76570114D01*
X110553333Y-76570114D02*
X110648571Y-76760590D01*
X110648571Y-76760590D02*
X110743809Y-77141542D01*
X110743809Y-77141542D02*
X110743809Y-77617733D01*
X110743809Y-77617733D02*
X110648571Y-77998685D01*
X110648571Y-77998685D02*
X110553333Y-78189161D01*
X110553333Y-78189161D02*
X110458095Y-78284400D01*
X110458095Y-78284400D02*
X110267619Y-78379638D01*
X110267619Y-78379638D02*
X110077142Y-78379638D01*
X110077142Y-78379638D02*
X109886666Y-78284400D01*
X109886666Y-78284400D02*
X109791428Y-78189161D01*
X109791428Y-78189161D02*
X109696190Y-77998685D01*
X109696190Y-77998685D02*
X109600952Y-77617733D01*
X109600952Y-77617733D02*
X109600952Y-77141542D01*
X109600952Y-77141542D02*
X109696190Y-76760590D01*
X109696190Y-76760590D02*
X109791428Y-76570114D01*
X109791428Y-76570114D02*
X109886666Y-76474876D01*
X109886666Y-76474876D02*
X110077142Y-76379638D01*
X108648571Y-127846304D02*
X108648571Y-129179638D01*
X108172380Y-127084400D02*
X107696190Y-128512971D01*
X107696190Y-128512971D02*
X108934285Y-128512971D01*
X110077142Y-127179638D02*
X110267619Y-127179638D01*
X110267619Y-127179638D02*
X110458095Y-127274876D01*
X110458095Y-127274876D02*
X110553333Y-127370114D01*
X110553333Y-127370114D02*
X110648571Y-127560590D01*
X110648571Y-127560590D02*
X110743809Y-127941542D01*
X110743809Y-127941542D02*
X110743809Y-128417733D01*
X110743809Y-128417733D02*
X110648571Y-128798685D01*
X110648571Y-128798685D02*
X110553333Y-128989161D01*
X110553333Y-128989161D02*
X110458095Y-129084400D01*
X110458095Y-129084400D02*
X110267619Y-129179638D01*
X110267619Y-129179638D02*
X110077142Y-129179638D01*
X110077142Y-129179638D02*
X109886666Y-129084400D01*
X109886666Y-129084400D02*
X109791428Y-128989161D01*
X109791428Y-128989161D02*
X109696190Y-128798685D01*
X109696190Y-128798685D02*
X109600952Y-128417733D01*
X109600952Y-128417733D02*
X109600952Y-127941542D01*
X109600952Y-127941542D02*
X109696190Y-127560590D01*
X109696190Y-127560590D02*
X109791428Y-127370114D01*
X109791428Y-127370114D02*
X109886666Y-127274876D01*
X109886666Y-127274876D02*
X110077142Y-127179638D01*
X108839047Y-52979638D02*
X107696190Y-52979638D01*
X108267618Y-52979638D02*
X108267618Y-50979638D01*
X108267618Y-50979638D02*
X108077142Y-51265352D01*
X108077142Y-51265352D02*
X107886666Y-51455828D01*
X107886666Y-51455828D02*
X107696190Y-51551066D01*
X110077142Y-50979638D02*
X110267619Y-50979638D01*
X110267619Y-50979638D02*
X110458095Y-51074876D01*
X110458095Y-51074876D02*
X110553333Y-51170114D01*
X110553333Y-51170114D02*
X110648571Y-51360590D01*
X110648571Y-51360590D02*
X110743809Y-51741542D01*
X110743809Y-51741542D02*
X110743809Y-52217733D01*
X110743809Y-52217733D02*
X110648571Y-52598685D01*
X110648571Y-52598685D02*
X110553333Y-52789161D01*
X110553333Y-52789161D02*
X110458095Y-52884400D01*
X110458095Y-52884400D02*
X110267619Y-52979638D01*
X110267619Y-52979638D02*
X110077142Y-52979638D01*
X110077142Y-52979638D02*
X109886666Y-52884400D01*
X109886666Y-52884400D02*
X109791428Y-52789161D01*
X109791428Y-52789161D02*
X109696190Y-52598685D01*
X109696190Y-52598685D02*
X109600952Y-52217733D01*
X109600952Y-52217733D02*
X109600952Y-51741542D01*
X109600952Y-51741542D02*
X109696190Y-51360590D01*
X109696190Y-51360590D02*
X109791428Y-51170114D01*
X109791428Y-51170114D02*
X109886666Y-51074876D01*
X109886666Y-51074876D02*
X110077142Y-50979638D01*
X146843809Y-165279638D02*
X145891428Y-165279638D01*
X145891428Y-165279638D02*
X145796190Y-166232019D01*
X145796190Y-166232019D02*
X145891428Y-166136780D01*
X145891428Y-166136780D02*
X146081904Y-166041542D01*
X146081904Y-166041542D02*
X146558095Y-166041542D01*
X146558095Y-166041542D02*
X146748571Y-166136780D01*
X146748571Y-166136780D02*
X146843809Y-166232019D01*
X146843809Y-166232019D02*
X146939047Y-166422495D01*
X146939047Y-166422495D02*
X146939047Y-166898685D01*
X146939047Y-166898685D02*
X146843809Y-167089161D01*
X146843809Y-167089161D02*
X146748571Y-167184400D01*
X146748571Y-167184400D02*
X146558095Y-167279638D01*
X146558095Y-167279638D02*
X146081904Y-167279638D01*
X146081904Y-167279638D02*
X145891428Y-167184400D01*
X145891428Y-167184400D02*
X145796190Y-167089161D01*
X148748571Y-165279638D02*
X147796190Y-165279638D01*
X147796190Y-165279638D02*
X147700952Y-166232019D01*
X147700952Y-166232019D02*
X147796190Y-166136780D01*
X147796190Y-166136780D02*
X147986666Y-166041542D01*
X147986666Y-166041542D02*
X148462857Y-166041542D01*
X148462857Y-166041542D02*
X148653333Y-166136780D01*
X148653333Y-166136780D02*
X148748571Y-166232019D01*
X148748571Y-166232019D02*
X148843809Y-166422495D01*
X148843809Y-166422495D02*
X148843809Y-166898685D01*
X148843809Y-166898685D02*
X148748571Y-167089161D01*
X148748571Y-167089161D02*
X148653333Y-167184400D01*
X148653333Y-167184400D02*
X148462857Y-167279638D01*
X148462857Y-167279638D02*
X147986666Y-167279638D01*
X147986666Y-167279638D02*
X147796190Y-167184400D01*
X147796190Y-167184400D02*
X147700952Y-167089161D01*
X107600952Y-114479638D02*
X108839047Y-114479638D01*
X108839047Y-114479638D02*
X108172380Y-115241542D01*
X108172380Y-115241542D02*
X108458095Y-115241542D01*
X108458095Y-115241542D02*
X108648571Y-115336780D01*
X108648571Y-115336780D02*
X108743809Y-115432019D01*
X108743809Y-115432019D02*
X108839047Y-115622495D01*
X108839047Y-115622495D02*
X108839047Y-116098685D01*
X108839047Y-116098685D02*
X108743809Y-116289161D01*
X108743809Y-116289161D02*
X108648571Y-116384400D01*
X108648571Y-116384400D02*
X108458095Y-116479638D01*
X108458095Y-116479638D02*
X107886666Y-116479638D01*
X107886666Y-116479638D02*
X107696190Y-116384400D01*
X107696190Y-116384400D02*
X107600952Y-116289161D01*
X110648571Y-114479638D02*
X109696190Y-114479638D01*
X109696190Y-114479638D02*
X109600952Y-115432019D01*
X109600952Y-115432019D02*
X109696190Y-115336780D01*
X109696190Y-115336780D02*
X109886666Y-115241542D01*
X109886666Y-115241542D02*
X110362857Y-115241542D01*
X110362857Y-115241542D02*
X110553333Y-115336780D01*
X110553333Y-115336780D02*
X110648571Y-115432019D01*
X110648571Y-115432019D02*
X110743809Y-115622495D01*
X110743809Y-115622495D02*
X110743809Y-116098685D01*
X110743809Y-116098685D02*
X110648571Y-116289161D01*
X110648571Y-116289161D02*
X110553333Y-116384400D01*
X110553333Y-116384400D02*
X110362857Y-116479638D01*
X110362857Y-116479638D02*
X109886666Y-116479638D01*
X109886666Y-116479638D02*
X109696190Y-116384400D01*
X109696190Y-116384400D02*
X109600952Y-116289161D01*
D11*
X138144286Y-27809819D02*
X138144286Y-26809819D01*
X138144286Y-27286009D02*
X138715714Y-27286009D01*
X138715714Y-27809819D02*
X138715714Y-26809819D01*
D10*
X108648571Y-140546304D02*
X108648571Y-141879638D01*
X108172380Y-139784400D02*
X107696190Y-141212971D01*
X107696190Y-141212971D02*
X108934285Y-141212971D01*
X110648571Y-139879638D02*
X109696190Y-139879638D01*
X109696190Y-139879638D02*
X109600952Y-140832019D01*
X109600952Y-140832019D02*
X109696190Y-140736780D01*
X109696190Y-140736780D02*
X109886666Y-140641542D01*
X109886666Y-140641542D02*
X110362857Y-140641542D01*
X110362857Y-140641542D02*
X110553333Y-140736780D01*
X110553333Y-140736780D02*
X110648571Y-140832019D01*
X110648571Y-140832019D02*
X110743809Y-141022495D01*
X110743809Y-141022495D02*
X110743809Y-141498685D01*
X110743809Y-141498685D02*
X110648571Y-141689161D01*
X110648571Y-141689161D02*
X110553333Y-141784400D01*
X110553333Y-141784400D02*
X110362857Y-141879638D01*
X110362857Y-141879638D02*
X109886666Y-141879638D01*
X109886666Y-141879638D02*
X109696190Y-141784400D01*
X109696190Y-141784400D02*
X109600952Y-141689161D01*
X152908095Y-28187733D02*
X154431905Y-28187733D01*
X146939047Y-65679638D02*
X145796190Y-65679638D01*
X146367618Y-65679638D02*
X146367618Y-63679638D01*
X146367618Y-63679638D02*
X146177142Y-63965352D01*
X146177142Y-63965352D02*
X145986666Y-64155828D01*
X145986666Y-64155828D02*
X145796190Y-64251066D01*
X148748571Y-63679638D02*
X147796190Y-63679638D01*
X147796190Y-63679638D02*
X147700952Y-64632019D01*
X147700952Y-64632019D02*
X147796190Y-64536780D01*
X147796190Y-64536780D02*
X147986666Y-64441542D01*
X147986666Y-64441542D02*
X148462857Y-64441542D01*
X148462857Y-64441542D02*
X148653333Y-64536780D01*
X148653333Y-64536780D02*
X148748571Y-64632019D01*
X148748571Y-64632019D02*
X148843809Y-64822495D01*
X148843809Y-64822495D02*
X148843809Y-65298685D01*
X148843809Y-65298685D02*
X148748571Y-65489161D01*
X148748571Y-65489161D02*
X148653333Y-65584400D01*
X148653333Y-65584400D02*
X148462857Y-65679638D01*
X148462857Y-65679638D02*
X147986666Y-65679638D01*
X147986666Y-65679638D02*
X147796190Y-65584400D01*
X147796190Y-65584400D02*
X147700952Y-65489161D01*
X145700952Y-101779638D02*
X146939047Y-101779638D01*
X146939047Y-101779638D02*
X146272380Y-102541542D01*
X146272380Y-102541542D02*
X146558095Y-102541542D01*
X146558095Y-102541542D02*
X146748571Y-102636780D01*
X146748571Y-102636780D02*
X146843809Y-102732019D01*
X146843809Y-102732019D02*
X146939047Y-102922495D01*
X146939047Y-102922495D02*
X146939047Y-103398685D01*
X146939047Y-103398685D02*
X146843809Y-103589161D01*
X146843809Y-103589161D02*
X146748571Y-103684400D01*
X146748571Y-103684400D02*
X146558095Y-103779638D01*
X146558095Y-103779638D02*
X145986666Y-103779638D01*
X145986666Y-103779638D02*
X145796190Y-103684400D01*
X145796190Y-103684400D02*
X145700952Y-103589161D01*
X148177142Y-101779638D02*
X148367619Y-101779638D01*
X148367619Y-101779638D02*
X148558095Y-101874876D01*
X148558095Y-101874876D02*
X148653333Y-101970114D01*
X148653333Y-101970114D02*
X148748571Y-102160590D01*
X148748571Y-102160590D02*
X148843809Y-102541542D01*
X148843809Y-102541542D02*
X148843809Y-103017733D01*
X148843809Y-103017733D02*
X148748571Y-103398685D01*
X148748571Y-103398685D02*
X148653333Y-103589161D01*
X148653333Y-103589161D02*
X148558095Y-103684400D01*
X148558095Y-103684400D02*
X148367619Y-103779638D01*
X148367619Y-103779638D02*
X148177142Y-103779638D01*
X148177142Y-103779638D02*
X147986666Y-103684400D01*
X147986666Y-103684400D02*
X147891428Y-103589161D01*
X147891428Y-103589161D02*
X147796190Y-103398685D01*
X147796190Y-103398685D02*
X147700952Y-103017733D01*
X147700952Y-103017733D02*
X147700952Y-102541542D01*
X147700952Y-102541542D02*
X147796190Y-102160590D01*
X147796190Y-102160590D02*
X147891428Y-101970114D01*
X147891428Y-101970114D02*
X147986666Y-101874876D01*
X147986666Y-101874876D02*
X148177142Y-101779638D01*
D11*
X139700000Y-191639819D02*
X139700000Y-190639819D01*
D10*
X108839047Y-65679638D02*
X107696190Y-65679638D01*
X108267618Y-65679638D02*
X108267618Y-63679638D01*
X108267618Y-63679638D02*
X108077142Y-63965352D01*
X108077142Y-63965352D02*
X107886666Y-64155828D01*
X107886666Y-64155828D02*
X107696190Y-64251066D01*
X110648571Y-63679638D02*
X109696190Y-63679638D01*
X109696190Y-63679638D02*
X109600952Y-64632019D01*
X109600952Y-64632019D02*
X109696190Y-64536780D01*
X109696190Y-64536780D02*
X109886666Y-64441542D01*
X109886666Y-64441542D02*
X110362857Y-64441542D01*
X110362857Y-64441542D02*
X110553333Y-64536780D01*
X110553333Y-64536780D02*
X110648571Y-64632019D01*
X110648571Y-64632019D02*
X110743809Y-64822495D01*
X110743809Y-64822495D02*
X110743809Y-65298685D01*
X110743809Y-65298685D02*
X110648571Y-65489161D01*
X110648571Y-65489161D02*
X110553333Y-65584400D01*
X110553333Y-65584400D02*
X110362857Y-65679638D01*
X110362857Y-65679638D02*
X109886666Y-65679638D01*
X109886666Y-65679638D02*
X109696190Y-65584400D01*
X109696190Y-65584400D02*
X109600952Y-65489161D01*
D11*
X118419523Y-27714580D02*
X118371904Y-27762200D01*
X118371904Y-27762200D02*
X118229047Y-27809819D01*
X118229047Y-27809819D02*
X118133809Y-27809819D01*
X118133809Y-27809819D02*
X117990952Y-27762200D01*
X117990952Y-27762200D02*
X117895714Y-27666961D01*
X117895714Y-27666961D02*
X117848095Y-27571723D01*
X117848095Y-27571723D02*
X117800476Y-27381247D01*
X117800476Y-27381247D02*
X117800476Y-27238390D01*
X117800476Y-27238390D02*
X117848095Y-27047914D01*
X117848095Y-27047914D02*
X117895714Y-26952676D01*
X117895714Y-26952676D02*
X117990952Y-26857438D01*
X117990952Y-26857438D02*
X118133809Y-26809819D01*
X118133809Y-26809819D02*
X118229047Y-26809819D01*
X118229047Y-26809819D02*
X118371904Y-26857438D01*
X118371904Y-26857438D02*
X118419523Y-26905057D01*
D10*
X146939047Y-52979638D02*
X145796190Y-52979638D01*
X146367618Y-52979638D02*
X146367618Y-50979638D01*
X146367618Y-50979638D02*
X146177142Y-51265352D01*
X146177142Y-51265352D02*
X145986666Y-51455828D01*
X145986666Y-51455828D02*
X145796190Y-51551066D01*
X148177142Y-50979638D02*
X148367619Y-50979638D01*
X148367619Y-50979638D02*
X148558095Y-51074876D01*
X148558095Y-51074876D02*
X148653333Y-51170114D01*
X148653333Y-51170114D02*
X148748571Y-51360590D01*
X148748571Y-51360590D02*
X148843809Y-51741542D01*
X148843809Y-51741542D02*
X148843809Y-52217733D01*
X148843809Y-52217733D02*
X148748571Y-52598685D01*
X148748571Y-52598685D02*
X148653333Y-52789161D01*
X148653333Y-52789161D02*
X148558095Y-52884400D01*
X148558095Y-52884400D02*
X148367619Y-52979638D01*
X148367619Y-52979638D02*
X148177142Y-52979638D01*
X148177142Y-52979638D02*
X147986666Y-52884400D01*
X147986666Y-52884400D02*
X147891428Y-52789161D01*
X147891428Y-52789161D02*
X147796190Y-52598685D01*
X147796190Y-52598685D02*
X147700952Y-52217733D01*
X147700952Y-52217733D02*
X147700952Y-51741542D01*
X147700952Y-51741542D02*
X147796190Y-51360590D01*
X147796190Y-51360590D02*
X147891428Y-51170114D01*
X147891428Y-51170114D02*
X147986666Y-51074876D01*
X147986666Y-51074876D02*
X148177142Y-50979638D01*
X146748571Y-177979638D02*
X146367618Y-177979638D01*
X146367618Y-177979638D02*
X146177142Y-178074876D01*
X146177142Y-178074876D02*
X146081904Y-178170114D01*
X146081904Y-178170114D02*
X145891428Y-178455828D01*
X145891428Y-178455828D02*
X145796190Y-178836780D01*
X145796190Y-178836780D02*
X145796190Y-179598685D01*
X145796190Y-179598685D02*
X145891428Y-179789161D01*
X145891428Y-179789161D02*
X145986666Y-179884400D01*
X145986666Y-179884400D02*
X146177142Y-179979638D01*
X146177142Y-179979638D02*
X146558095Y-179979638D01*
X146558095Y-179979638D02*
X146748571Y-179884400D01*
X146748571Y-179884400D02*
X146843809Y-179789161D01*
X146843809Y-179789161D02*
X146939047Y-179598685D01*
X146939047Y-179598685D02*
X146939047Y-179122495D01*
X146939047Y-179122495D02*
X146843809Y-178932019D01*
X146843809Y-178932019D02*
X146748571Y-178836780D01*
X146748571Y-178836780D02*
X146558095Y-178741542D01*
X146558095Y-178741542D02*
X146177142Y-178741542D01*
X146177142Y-178741542D02*
X145986666Y-178836780D01*
X145986666Y-178836780D02*
X145891428Y-178932019D01*
X145891428Y-178932019D02*
X145796190Y-179122495D01*
X148177142Y-177979638D02*
X148367619Y-177979638D01*
X148367619Y-177979638D02*
X148558095Y-178074876D01*
X148558095Y-178074876D02*
X148653333Y-178170114D01*
X148653333Y-178170114D02*
X148748571Y-178360590D01*
X148748571Y-178360590D02*
X148843809Y-178741542D01*
X148843809Y-178741542D02*
X148843809Y-179217733D01*
X148843809Y-179217733D02*
X148748571Y-179598685D01*
X148748571Y-179598685D02*
X148653333Y-179789161D01*
X148653333Y-179789161D02*
X148558095Y-179884400D01*
X148558095Y-179884400D02*
X148367619Y-179979638D01*
X148367619Y-179979638D02*
X148177142Y-179979638D01*
X148177142Y-179979638D02*
X147986666Y-179884400D01*
X147986666Y-179884400D02*
X147891428Y-179789161D01*
X147891428Y-179789161D02*
X147796190Y-179598685D01*
X147796190Y-179598685D02*
X147700952Y-179217733D01*
X147700952Y-179217733D02*
X147700952Y-178741542D01*
X147700952Y-178741542D02*
X147796190Y-178360590D01*
X147796190Y-178360590D02*
X147891428Y-178170114D01*
X147891428Y-178170114D02*
X147986666Y-178074876D01*
X147986666Y-178074876D02*
X148177142Y-177979638D01*
D11*
X127508095Y-26564819D02*
X127508095Y-27374342D01*
X127508095Y-27374342D02*
X127555714Y-27469580D01*
X127555714Y-27469580D02*
X127603333Y-27517200D01*
X127603333Y-27517200D02*
X127698571Y-27564819D01*
X127698571Y-27564819D02*
X127889047Y-27564819D01*
X127889047Y-27564819D02*
X127984285Y-27517200D01*
X127984285Y-27517200D02*
X128031904Y-27469580D01*
X128031904Y-27469580D02*
X128079523Y-27374342D01*
X128079523Y-27374342D02*
X128079523Y-26564819D01*
X129079523Y-27564819D02*
X128508095Y-27564819D01*
X128793809Y-27564819D02*
X128793809Y-26564819D01*
X128793809Y-26564819D02*
X128698571Y-26707676D01*
X128698571Y-26707676D02*
X128603333Y-26802914D01*
X128603333Y-26802914D02*
X128508095Y-26850533D01*
X146558095Y-193494819D02*
X146558095Y-192494819D01*
X146558095Y-192971009D02*
X147129523Y-192971009D01*
X147129523Y-193494819D02*
X147129523Y-192494819D01*
X147510476Y-192494819D02*
X148129523Y-192494819D01*
X148129523Y-192494819D02*
X147796190Y-192875771D01*
X147796190Y-192875771D02*
X147939047Y-192875771D01*
X147939047Y-192875771D02*
X148034285Y-192923390D01*
X148034285Y-192923390D02*
X148081904Y-192971009D01*
X148081904Y-192971009D02*
X148129523Y-193066247D01*
X148129523Y-193066247D02*
X148129523Y-193304342D01*
X148129523Y-193304342D02*
X148081904Y-193399580D01*
X148081904Y-193399580D02*
X148034285Y-193447200D01*
X148034285Y-193447200D02*
X147939047Y-193494819D01*
X147939047Y-193494819D02*
X147653333Y-193494819D01*
X147653333Y-193494819D02*
X147558095Y-193447200D01*
X147558095Y-193447200D02*
X147510476Y-193399580D01*
X146986666Y-137884819D02*
X146986666Y-138599104D01*
X146986666Y-138599104D02*
X146939047Y-138741961D01*
X146939047Y-138741961D02*
X146843809Y-138837200D01*
X146843809Y-138837200D02*
X146700952Y-138884819D01*
X146700952Y-138884819D02*
X146605714Y-138884819D01*
X147891428Y-137884819D02*
X147700952Y-137884819D01*
X147700952Y-137884819D02*
X147605714Y-137932438D01*
X147605714Y-137932438D02*
X147558095Y-137980057D01*
X147558095Y-137980057D02*
X147462857Y-138122914D01*
X147462857Y-138122914D02*
X147415238Y-138313390D01*
X147415238Y-138313390D02*
X147415238Y-138694342D01*
X147415238Y-138694342D02*
X147462857Y-138789580D01*
X147462857Y-138789580D02*
X147510476Y-138837200D01*
X147510476Y-138837200D02*
X147605714Y-138884819D01*
X147605714Y-138884819D02*
X147796190Y-138884819D01*
X147796190Y-138884819D02*
X147891428Y-138837200D01*
X147891428Y-138837200D02*
X147939047Y-138789580D01*
X147939047Y-138789580D02*
X147986666Y-138694342D01*
X147986666Y-138694342D02*
X147986666Y-138456247D01*
X147986666Y-138456247D02*
X147939047Y-138361009D01*
X147939047Y-138361009D02*
X147891428Y-138313390D01*
X147891428Y-138313390D02*
X147796190Y-138265771D01*
X147796190Y-138265771D02*
X147605714Y-138265771D01*
X147605714Y-138265771D02*
X147510476Y-138313390D01*
X147510476Y-138313390D02*
X147462857Y-138361009D01*
X147462857Y-138361009D02*
X147415238Y-138456247D01*
X146986666Y-31204819D02*
X146986666Y-31919104D01*
X146986666Y-31919104D02*
X146939047Y-32061961D01*
X146939047Y-32061961D02*
X146843809Y-32157200D01*
X146843809Y-32157200D02*
X146700952Y-32204819D01*
X146700952Y-32204819D02*
X146605714Y-32204819D01*
X147891428Y-31538152D02*
X147891428Y-32204819D01*
X147653333Y-31157200D02*
X147415238Y-31871485D01*
X147415238Y-31871485D02*
X148034285Y-31871485D01*
X109728095Y-25854819D02*
X109728095Y-24854819D01*
X109728095Y-25331009D02*
X110299523Y-25331009D01*
X110299523Y-25854819D02*
X110299523Y-24854819D01*
X111299523Y-25854819D02*
X110728095Y-25854819D01*
X111013809Y-25854819D02*
X111013809Y-24854819D01*
X111013809Y-24854819D02*
X110918571Y-24997676D01*
X110918571Y-24997676D02*
X110823333Y-25092914D01*
X110823333Y-25092914D02*
X110728095Y-25140533D01*
X108886666Y-84544819D02*
X108886666Y-85259104D01*
X108886666Y-85259104D02*
X108839047Y-85401961D01*
X108839047Y-85401961D02*
X108743809Y-85497200D01*
X108743809Y-85497200D02*
X108600952Y-85544819D01*
X108600952Y-85544819D02*
X108505714Y-85544819D01*
X109315238Y-84640057D02*
X109362857Y-84592438D01*
X109362857Y-84592438D02*
X109458095Y-84544819D01*
X109458095Y-84544819D02*
X109696190Y-84544819D01*
X109696190Y-84544819D02*
X109791428Y-84592438D01*
X109791428Y-84592438D02*
X109839047Y-84640057D01*
X109839047Y-84640057D02*
X109886666Y-84735295D01*
X109886666Y-84735295D02*
X109886666Y-84830533D01*
X109886666Y-84830533D02*
X109839047Y-84973390D01*
X109839047Y-84973390D02*
X109267619Y-85544819D01*
X109267619Y-85544819D02*
X109886666Y-85544819D01*
X108886666Y-31204819D02*
X108886666Y-31919104D01*
X108886666Y-31919104D02*
X108839047Y-32061961D01*
X108839047Y-32061961D02*
X108743809Y-32157200D01*
X108743809Y-32157200D02*
X108600952Y-32204819D01*
X108600952Y-32204819D02*
X108505714Y-32204819D01*
X109886666Y-32204819D02*
X109315238Y-32204819D01*
X109600952Y-32204819D02*
X109600952Y-31204819D01*
X109600952Y-31204819D02*
X109505714Y-31347676D01*
X109505714Y-31347676D02*
X109410476Y-31442914D01*
X109410476Y-31442914D02*
X109315238Y-31490533D01*
X108886666Y-137884819D02*
X108886666Y-138599104D01*
X108886666Y-138599104D02*
X108839047Y-138741961D01*
X108839047Y-138741961D02*
X108743809Y-138837200D01*
X108743809Y-138837200D02*
X108600952Y-138884819D01*
X108600952Y-138884819D02*
X108505714Y-138884819D01*
X109267619Y-137884819D02*
X109886666Y-137884819D01*
X109886666Y-137884819D02*
X109553333Y-138265771D01*
X109553333Y-138265771D02*
X109696190Y-138265771D01*
X109696190Y-138265771D02*
X109791428Y-138313390D01*
X109791428Y-138313390D02*
X109839047Y-138361009D01*
X109839047Y-138361009D02*
X109886666Y-138456247D01*
X109886666Y-138456247D02*
X109886666Y-138694342D01*
X109886666Y-138694342D02*
X109839047Y-138789580D01*
X109839047Y-138789580D02*
X109791428Y-138837200D01*
X109791428Y-138837200D02*
X109696190Y-138884819D01*
X109696190Y-138884819D02*
X109410476Y-138884819D01*
X109410476Y-138884819D02*
X109315238Y-138837200D01*
X109315238Y-138837200D02*
X109267619Y-138789580D01*
X108458095Y-194764819D02*
X108458095Y-193764819D01*
X108458095Y-194241009D02*
X109029523Y-194241009D01*
X109029523Y-194764819D02*
X109029523Y-193764819D01*
X109934285Y-194098152D02*
X109934285Y-194764819D01*
X109696190Y-193717200D02*
X109458095Y-194431485D01*
X109458095Y-194431485D02*
X110077142Y-194431485D01*
X146558095Y-24584819D02*
X146558095Y-23584819D01*
X146558095Y-24061009D02*
X147129523Y-24061009D01*
X147129523Y-24584819D02*
X147129523Y-23584819D01*
X147558095Y-23680057D02*
X147605714Y-23632438D01*
X147605714Y-23632438D02*
X147700952Y-23584819D01*
X147700952Y-23584819D02*
X147939047Y-23584819D01*
X147939047Y-23584819D02*
X148034285Y-23632438D01*
X148034285Y-23632438D02*
X148081904Y-23680057D01*
X148081904Y-23680057D02*
X148129523Y-23775295D01*
X148129523Y-23775295D02*
X148129523Y-23870533D01*
X148129523Y-23870533D02*
X148081904Y-24013390D01*
X148081904Y-24013390D02*
X147510476Y-24584819D01*
X147510476Y-24584819D02*
X148129523Y-24584819D01*
X146986666Y-84544819D02*
X146986666Y-85259104D01*
X146986666Y-85259104D02*
X146939047Y-85401961D01*
X146939047Y-85401961D02*
X146843809Y-85497200D01*
X146843809Y-85497200D02*
X146700952Y-85544819D01*
X146700952Y-85544819D02*
X146605714Y-85544819D01*
X147939047Y-84544819D02*
X147462857Y-84544819D01*
X147462857Y-84544819D02*
X147415238Y-85021009D01*
X147415238Y-85021009D02*
X147462857Y-84973390D01*
X147462857Y-84973390D02*
X147558095Y-84925771D01*
X147558095Y-84925771D02*
X147796190Y-84925771D01*
X147796190Y-84925771D02*
X147891428Y-84973390D01*
X147891428Y-84973390D02*
X147939047Y-85021009D01*
X147939047Y-85021009D02*
X147986666Y-85116247D01*
X147986666Y-85116247D02*
X147986666Y-85354342D01*
X147986666Y-85354342D02*
X147939047Y-85449580D01*
X147939047Y-85449580D02*
X147891428Y-85497200D01*
X147891428Y-85497200D02*
X147796190Y-85544819D01*
X147796190Y-85544819D02*
X147558095Y-85544819D01*
X147558095Y-85544819D02*
X147462857Y-85497200D01*
X147462857Y-85497200D02*
X147415238Y-85449580D01*
D12*
%TO.C,U1*%
X144780000Y-28110000D02*
X132080000Y-28110000D01*
X132080000Y-28110000D02*
X132080000Y-28470000D01*
X124460000Y-28110000D02*
X111860001Y-28110000D01*
X111860001Y-28110000D02*
X111860000Y-190500000D01*
X132080000Y-28470000D02*
X124460000Y-28470000D01*
X124460000Y-28470000D02*
X124460000Y-28110000D01*
X144780000Y-190500000D02*
X144780000Y-28110000D01*
X111860000Y-190500000D02*
X144780000Y-190500000D01*
%TO.C,J6*%
X149800000Y-137100000D02*
X151130000Y-137100000D01*
X149800000Y-138430000D02*
X149800000Y-137100000D01*
X149800000Y-139700000D02*
X149800000Y-188020000D01*
X149800000Y-139700000D02*
X152400000Y-139700000D01*
X149800000Y-188020000D02*
X155000000Y-188020000D01*
X152400000Y-137100000D02*
X155000000Y-137100000D01*
X152400000Y-139700000D02*
X152400000Y-137100000D01*
X155000000Y-137100000D02*
X155000000Y-188020000D01*
%TO.C,J4*%
X149800000Y-30420000D02*
X151130000Y-30420000D01*
X149800000Y-31750000D02*
X149800000Y-30420000D01*
X149800000Y-33020000D02*
X149800000Y-81340000D01*
X149800000Y-33020000D02*
X152400000Y-33020000D01*
X149800000Y-81340000D02*
X155000000Y-81340000D01*
X152400000Y-30420000D02*
X155000000Y-30420000D01*
X152400000Y-33020000D02*
X152400000Y-30420000D01*
X155000000Y-30420000D02*
X155000000Y-81340000D01*
%TO.C,J2*%
X101540000Y-83760000D02*
X102870000Y-83760000D01*
X101540000Y-85090000D02*
X101540000Y-83760000D01*
X101540000Y-86360000D02*
X101540000Y-134680000D01*
X101540000Y-86360000D02*
X104140000Y-86360000D01*
X101540000Y-134680000D02*
X106740000Y-134680000D01*
X104140000Y-83760000D02*
X106740000Y-83760000D01*
X104140000Y-86360000D02*
X104140000Y-83760000D01*
X106740000Y-83760000D02*
X106740000Y-134680000D01*
%TO.C,J1*%
X106740000Y-30420000D02*
X106740000Y-81340000D01*
X104140000Y-33020000D02*
X104140000Y-30420000D01*
X104140000Y-30420000D02*
X106740000Y-30420000D01*
X101540000Y-81340000D02*
X106740000Y-81340000D01*
X101540000Y-33020000D02*
X104140000Y-33020000D01*
X101540000Y-33020000D02*
X101540000Y-81340000D01*
X101540000Y-31750000D02*
X101540000Y-30420000D01*
X101540000Y-30420000D02*
X102870000Y-30420000D01*
%TO.C,J3*%
X101540000Y-137100000D02*
X102870000Y-137100000D01*
X101540000Y-138430000D02*
X101540000Y-137100000D01*
X101540000Y-139700000D02*
X101540000Y-188020000D01*
X101540000Y-139700000D02*
X104140000Y-139700000D01*
X101540000Y-188020000D02*
X106740000Y-188020000D01*
X104140000Y-137100000D02*
X106740000Y-137100000D01*
X104140000Y-139700000D02*
X104140000Y-137100000D01*
X106740000Y-137100000D02*
X106740000Y-188020000D01*
%TO.C,J5*%
X149800000Y-83760000D02*
X151130000Y-83760000D01*
X149800000Y-85090000D02*
X149800000Y-83760000D01*
X149800000Y-86360000D02*
X149800000Y-134680000D01*
X149800000Y-86360000D02*
X152400000Y-86360000D01*
X149800000Y-134680000D02*
X155000000Y-134680000D01*
X152400000Y-83760000D02*
X155000000Y-83760000D01*
X152400000Y-86360000D02*
X152400000Y-83760000D01*
X155000000Y-83760000D02*
X155000000Y-134680000D01*
%TD*%
M02*
