M48
; DRILL file {KiCad 8.0.1} date 2024-03-17T17:03:52+0000
; FORMAT={-:-/ absolute / inch / decimal}
; #@! TF.CreationDate,2024-03-17T17:03:52+00:00
; #@! TF.GenerationSoftware,Kicad,Pcbnew,8.0.1
; #@! TF.FileFunction,Plated,1,2,PTH
FMAT,2
INCH
; #@! TA.AperFunction,Plated,PTH,ComponentDrill
T1C0.0300
; #@! TA.AperFunction,Plated,PTH,ComponentDrill
T2C0.0394
%
G90
G05
T1
X4.45Y-1.15
X4.85Y-1.15
T2
X4.05Y-1.25
X4.05Y-1.35
X4.05Y-1.45
X4.05Y-1.55
X4.05Y-1.65
X4.05Y-1.75
X4.05Y-1.85
X4.05Y-1.95
X4.05Y-2.05
X4.05Y-2.15
X4.05Y-2.25
X4.05Y-2.35
X4.05Y-2.45
X4.05Y-2.55
X4.05Y-2.65
X4.05Y-2.75
X4.05Y-2.85
X4.05Y-2.95
X4.05Y-3.05
X4.05Y-3.15
X4.05Y-3.35
X4.05Y-3.45
X4.05Y-3.55
X4.05Y-3.65
X4.05Y-3.75
X4.05Y-3.85
X4.05Y-3.95
X4.05Y-4.05
X4.05Y-4.15
X4.05Y-4.25
X4.05Y-4.35
X4.05Y-4.45
X4.05Y-4.55
X4.05Y-4.65
X4.05Y-4.75
X4.05Y-4.85
X4.05Y-4.95
X4.05Y-5.05
X4.05Y-5.15
X4.05Y-5.25
X4.05Y-5.45
X4.05Y-5.55
X4.05Y-5.65
X4.05Y-5.75
X4.05Y-5.85
X4.05Y-5.95
X4.05Y-6.05
X4.05Y-6.15
X4.05Y-6.25
X4.05Y-6.35
X4.05Y-6.45
X4.05Y-6.55
X4.05Y-6.65
X4.05Y-6.75
X4.05Y-6.85
X4.05Y-6.95
X4.05Y-7.05
X4.05Y-7.15
X4.05Y-7.25
X4.05Y-7.35
X4.15Y-1.25
X4.15Y-1.35
X4.15Y-1.45
X4.15Y-1.55
X4.15Y-1.65
X4.15Y-1.75
X4.15Y-1.85
X4.15Y-1.95
X4.15Y-2.05
X4.15Y-2.15
X4.15Y-2.25
X4.15Y-2.35
X4.15Y-2.45
X4.15Y-2.55
X4.15Y-2.65
X4.15Y-2.75
X4.15Y-2.85
X4.15Y-2.95
X4.15Y-3.05
X4.15Y-3.15
X4.15Y-3.35
X4.15Y-3.45
X4.15Y-3.55
X4.15Y-3.65
X4.15Y-3.75
X4.15Y-3.85
X4.15Y-3.95
X4.15Y-4.05
X4.15Y-4.15
X4.15Y-4.25
X4.15Y-4.35
X4.15Y-4.45
X4.15Y-4.55
X4.15Y-4.65
X4.15Y-4.75
X4.15Y-4.85
X4.15Y-4.95
X4.15Y-5.05
X4.15Y-5.15
X4.15Y-5.25
X4.15Y-5.45
X4.15Y-5.55
X4.15Y-5.65
X4.15Y-5.75
X4.15Y-5.85
X4.15Y-5.95
X4.15Y-6.05
X4.15Y-6.15
X4.15Y-6.25
X4.15Y-6.35
X4.15Y-6.45
X4.15Y-6.55
X4.15Y-6.65
X4.15Y-6.75
X4.15Y-6.85
X4.15Y-6.95
X4.15Y-7.05
X4.15Y-7.15
X4.15Y-7.25
X4.15Y-7.35
X4.4461Y-2.55
X4.4461Y-2.65
X4.4461Y-2.75
X4.4461Y-5.55
X4.4461Y-6.15
X4.4461Y-6.25
X4.45Y-1.25
X4.45Y-1.35
X4.45Y-1.45
X4.45Y-1.55
X4.45Y-1.65
X4.45Y-1.75
X4.45Y-1.85
X4.45Y-1.95
X4.45Y-2.05
X4.45Y-2.15
X4.45Y-2.25
X4.45Y-2.35
X4.45Y-2.45
X4.45Y-2.85
X4.45Y-2.95
X4.45Y-3.05
X4.45Y-3.15
X4.45Y-3.25
X4.45Y-3.35
X4.45Y-3.45
X4.45Y-3.55
X4.45Y-3.65
X4.45Y-3.75
X4.45Y-3.85
X4.45Y-3.95
X4.45Y-4.05
X4.45Y-4.15
X4.45Y-4.25
X4.45Y-4.35
X4.45Y-4.45
X4.45Y-4.55
X4.45Y-4.65
X4.45Y-4.75
X4.45Y-4.85
X4.45Y-4.95
X4.45Y-5.05
X4.45Y-5.15
X4.45Y-5.25
X4.45Y-5.35
X4.45Y-5.45
X4.45Y-5.65
X4.45Y-5.75
X4.45Y-5.85
X4.45Y-5.95
X4.45Y-6.05
X4.45Y-6.35
X4.45Y-6.45
X4.45Y-6.55
X4.45Y-6.65
X4.45Y-6.75
X4.45Y-6.85
X4.45Y-6.95
X4.45Y-7.05
X4.45Y-7.15
X4.45Y-7.25
X4.45Y-7.35
X4.45Y-7.45
X4.5461Y-2.55
X4.5461Y-2.65
X4.5461Y-2.75
X4.5461Y-3.95
X4.5461Y-5.55
X4.5461Y-6.15
X4.5461Y-6.25
X4.55Y-1.15
X4.55Y-1.25
X4.55Y-1.35
X4.55Y-1.45
X4.55Y-1.55
X4.55Y-1.65
X4.55Y-1.75
X4.55Y-1.85
X4.55Y-1.95
X4.55Y-2.05
X4.55Y-2.15
X4.55Y-2.25
X4.55Y-2.35
X4.55Y-2.45
X4.55Y-2.85
X4.55Y-2.95
X4.55Y-3.05
X4.55Y-3.15
X4.55Y-3.25
X4.55Y-3.35
X4.55Y-3.45
X4.55Y-3.55
X4.55Y-3.65
X4.55Y-3.75
X4.55Y-3.85
X4.55Y-4.05
X4.55Y-4.15
X4.55Y-4.25
X4.55Y-4.35
X4.55Y-4.45
X4.55Y-4.55
X4.55Y-4.65
X4.55Y-4.75
X4.55Y-4.85
X4.55Y-4.95
X4.55Y-5.05
X4.55Y-5.15
X4.55Y-5.25
X4.55Y-5.35
X4.55Y-5.45
X4.55Y-5.65
X4.55Y-5.75
X4.55Y-5.85
X4.55Y-5.95
X4.55Y-6.05
X4.55Y-6.35
X4.55Y-6.45
X4.55Y-6.55
X4.55Y-6.65
X4.55Y-6.75
X4.55Y-6.85
X4.55Y-6.95
X4.55Y-7.05
X4.55Y-7.15
X4.55Y-7.25
X4.55Y-7.35
X4.55Y-7.45
X4.6461Y-2.55
X4.6461Y-2.65
X4.6461Y-2.75
X4.6461Y-5.55
X4.6461Y-6.15
X4.6461Y-6.25
X4.65Y-1.15
X4.65Y-1.25
X4.65Y-1.35
X4.65Y-1.45
X4.65Y-1.55
X4.65Y-1.65
X4.65Y-1.75
X4.65Y-1.85
X4.65Y-1.95
X4.65Y-2.05
X4.65Y-2.15
X4.65Y-2.25
X4.65Y-2.35
X4.65Y-2.45
X4.65Y-2.85
X4.65Y-2.95
X4.65Y-3.05
X4.65Y-3.15
X4.65Y-3.25
X4.65Y-3.35
X4.65Y-3.45
X4.65Y-3.55
X4.65Y-3.65
X4.65Y-3.75
X4.65Y-3.85
X4.65Y-3.95
X4.65Y-4.05
X4.65Y-4.15
X4.65Y-4.25
X4.65Y-4.35
X4.65Y-4.45
X4.65Y-4.55
X4.65Y-4.65
X4.65Y-4.75
X4.65Y-4.85
X4.65Y-4.95
X4.65Y-5.05
X4.65Y-5.15
X4.65Y-5.25
X4.65Y-5.35
X4.65Y-5.45
X4.65Y-5.65
X4.65Y-5.75
X4.65Y-5.85
X4.65Y-5.95
X4.65Y-6.05
X4.65Y-6.35
X4.65Y-6.45
X4.65Y-6.55
X4.65Y-6.65
X4.65Y-6.75
X4.65Y-6.85
X4.65Y-6.95
X4.65Y-7.05
X4.65Y-7.15
X4.65Y-7.25
X4.65Y-7.35
X4.65Y-7.45
X4.7461Y-2.55
X4.7461Y-2.65
X4.7461Y-2.75
X4.7461Y-3.95
X4.7461Y-5.55
X4.7461Y-6.15
X4.7461Y-6.25
X4.75Y-1.15
X4.75Y-1.25
X4.75Y-1.35
X4.75Y-1.45
X4.75Y-1.55
X4.75Y-1.65
X4.75Y-1.75
X4.75Y-1.85
X4.75Y-1.95
X4.75Y-2.05
X4.75Y-2.15
X4.75Y-2.25
X4.75Y-2.35
X4.75Y-2.45
X4.75Y-2.85
X4.75Y-2.95
X4.75Y-3.05
X4.75Y-3.15
X4.75Y-3.25
X4.75Y-3.35
X4.75Y-3.45
X4.75Y-3.55
X4.75Y-3.65
X4.75Y-3.75
X4.75Y-3.85
X4.75Y-4.05
X4.75Y-4.15
X4.75Y-4.25
X4.75Y-4.35
X4.75Y-4.45
X4.75Y-4.55
X4.75Y-4.65
X4.75Y-4.75
X4.75Y-4.85
X4.75Y-4.95
X4.75Y-5.05
X4.75Y-5.15
X4.75Y-5.25
X4.75Y-5.35
X4.75Y-5.45
X4.75Y-5.65
X4.75Y-5.75
X4.75Y-5.85
X4.75Y-5.95
X4.75Y-6.05
X4.75Y-6.35
X4.75Y-6.45
X4.75Y-6.55
X4.75Y-6.65
X4.75Y-6.75
X4.75Y-6.85
X4.75Y-6.95
X4.75Y-7.05
X4.75Y-7.15
X4.75Y-7.25
X4.75Y-7.35
X4.75Y-7.45
X4.8461Y-2.55
X4.8461Y-2.65
X4.8461Y-2.75
X4.8461Y-5.55
X4.8461Y-6.15
X4.8461Y-6.25
X4.85Y-1.25
X4.85Y-1.35
X4.85Y-1.45
X4.85Y-1.55
X4.85Y-1.65
X4.85Y-1.75
X4.85Y-1.85
X4.85Y-1.95
X4.85Y-2.05
X4.85Y-2.15
X4.85Y-2.25
X4.85Y-2.35
X4.85Y-2.45
X4.85Y-2.85
X4.85Y-2.95
X4.85Y-3.05
X4.85Y-3.15
X4.85Y-3.25
X4.85Y-3.35
X4.85Y-3.45
X4.85Y-3.55
X4.85Y-3.65
X4.85Y-3.75
X4.85Y-3.85
X4.85Y-3.95
X4.85Y-4.05
X4.85Y-4.15
X4.85Y-4.25
X4.85Y-4.35
X4.85Y-4.45
X4.85Y-4.55
X4.85Y-4.65
X4.85Y-4.75
X4.85Y-4.85
X4.85Y-4.95
X4.85Y-5.05
X4.85Y-5.15
X4.85Y-5.25
X4.85Y-5.35
X4.85Y-5.45
X4.85Y-5.65
X4.85Y-5.75
X4.85Y-5.85
X4.85Y-5.95
X4.85Y-6.05
X4.85Y-6.35
X4.85Y-6.45
X4.85Y-6.55
X4.85Y-6.65
X4.85Y-6.75
X4.85Y-6.85
X4.85Y-6.95
X4.85Y-7.05
X4.85Y-7.15
X4.85Y-7.25
X4.85Y-7.35
X4.85Y-7.45
X5.25Y-1.15
X5.25Y-1.25
X5.25Y-1.35
X5.25Y-1.45
X5.25Y-1.55
X5.25Y-1.65
X5.25Y-1.75
X5.25Y-1.85
X5.25Y-1.95
X5.25Y-2.05
X5.25Y-2.15
X5.25Y-2.25
X5.25Y-2.35
X5.25Y-2.45
X5.25Y-2.55
X5.25Y-2.65
X5.25Y-2.75
X5.25Y-2.85
X5.25Y-2.95
X5.25Y-3.05
X5.25Y-3.15
X5.25Y-3.25
X5.25Y-3.35
X5.25Y-3.45
X5.25Y-3.55
X5.25Y-3.65
X5.25Y-3.75
X5.25Y-3.85
X5.25Y-3.95
X5.25Y-4.05
X5.25Y-4.15
X5.25Y-4.25
X5.25Y-4.35
X5.25Y-4.45
X5.25Y-4.55
X5.25Y-4.65
X5.25Y-4.75
X5.25Y-4.85
X5.25Y-4.95
X5.25Y-5.05
X5.25Y-5.15
X5.25Y-5.25
X5.25Y-5.35
X5.25Y-5.45
X5.25Y-5.55
X5.25Y-5.65
X5.25Y-5.75
X5.25Y-5.85
X5.25Y-5.95
X5.25Y-6.05
X5.25Y-6.15
X5.25Y-6.25
X5.25Y-6.35
X5.25Y-6.45
X5.25Y-6.55
X5.25Y-6.65
X5.25Y-6.75
X5.25Y-6.85
X5.25Y-6.95
X5.25Y-7.05
X5.25Y-7.15
X5.25Y-7.25
X5.25Y-7.35
X5.25Y-7.45
X5.35Y-1.15
X5.35Y-1.25
X5.35Y-1.35
X5.35Y-1.45
X5.35Y-1.55
X5.35Y-1.65
X5.35Y-1.75
X5.35Y-1.85
X5.35Y-1.95
X5.35Y-2.05
X5.35Y-2.15
X5.35Y-2.25
X5.35Y-2.35
X5.35Y-2.45
X5.35Y-2.55
X5.35Y-2.65
X5.35Y-2.75
X5.35Y-2.85
X5.35Y-2.95
X5.35Y-3.05
X5.35Y-3.15
X5.35Y-3.25
X5.35Y-3.35
X5.35Y-3.45
X5.35Y-3.55
X5.35Y-3.65
X5.35Y-3.75
X5.35Y-3.85
X5.35Y-3.95
X5.35Y-4.05
X5.35Y-4.15
X5.35Y-4.25
X5.35Y-4.35
X5.35Y-4.45
X5.35Y-4.55
X5.35Y-4.65
X5.35Y-4.75
X5.35Y-4.85
X5.35Y-4.95
X5.35Y-5.05
X5.35Y-5.15
X5.35Y-5.25
X5.35Y-5.35
X5.35Y-5.45
X5.35Y-5.55
X5.35Y-5.65
X5.35Y-5.75
X5.35Y-5.85
X5.35Y-5.95
X5.35Y-6.05
X5.35Y-6.15
X5.35Y-6.25
X5.35Y-6.35
X5.35Y-6.45
X5.35Y-6.55
X5.35Y-6.65
X5.35Y-6.75
X5.35Y-6.85
X5.35Y-6.95
X5.35Y-7.05
X5.35Y-7.15
X5.35Y-7.25
X5.35Y-7.35
X5.35Y-7.45
X5.45Y-1.15
X5.45Y-1.25
X5.45Y-1.35
X5.45Y-1.45
X5.45Y-1.55
X5.45Y-1.65
X5.45Y-1.75
X5.45Y-1.85
X5.45Y-1.95
X5.45Y-2.05
X5.45Y-2.15
X5.45Y-2.25
X5.45Y-2.35
X5.45Y-2.45
X5.45Y-2.55
X5.45Y-2.65
X5.45Y-2.75
X5.45Y-2.85
X5.45Y-2.95
X5.45Y-3.05
X5.45Y-3.15
X5.45Y-3.25
X5.45Y-3.35
X5.45Y-3.45
X5.45Y-3.55
X5.45Y-3.65
X5.45Y-3.75
X5.45Y-3.85
X5.45Y-3.95
X5.45Y-4.05
X5.45Y-4.15
X5.45Y-4.25
X5.45Y-4.35
X5.45Y-4.45
X5.45Y-4.55
X5.45Y-4.65
X5.45Y-4.75
X5.45Y-4.85
X5.45Y-4.95
X5.45Y-5.05
X5.45Y-5.15
X5.45Y-5.25
X5.45Y-5.35
X5.45Y-5.45
X5.45Y-5.55
X5.45Y-5.65
X5.45Y-5.75
X5.45Y-5.85
X5.45Y-5.95
X5.45Y-6.05
X5.45Y-6.15
X5.45Y-6.25
X5.45Y-6.35
X5.45Y-6.45
X5.45Y-6.55
X5.45Y-6.65
X5.45Y-6.75
X5.45Y-6.85
X5.45Y-6.95
X5.45Y-7.05
X5.45Y-7.15
X5.45Y-7.25
X5.45Y-7.35
X5.45Y-7.45
X5.55Y-1.15
X5.55Y-1.25
X5.55Y-1.35
X5.55Y-1.45
X5.55Y-1.55
X5.55Y-1.65
X5.55Y-1.75
X5.55Y-1.85
X5.55Y-1.95
X5.55Y-2.05
X5.55Y-2.15
X5.55Y-2.25
X5.55Y-2.35
X5.55Y-2.45
X5.55Y-2.55
X5.55Y-2.65
X5.55Y-2.75
X5.55Y-2.85
X5.55Y-2.95
X5.55Y-3.05
X5.55Y-3.15
X5.55Y-3.25
X5.55Y-3.35
X5.55Y-3.45
X5.55Y-3.55
X5.55Y-3.65
X5.55Y-3.75
X5.55Y-3.85
X5.55Y-3.95
X5.55Y-4.05
X5.55Y-4.15
X5.55Y-4.25
X5.55Y-4.35
X5.55Y-4.45
X5.55Y-4.55
X5.55Y-4.65
X5.55Y-4.75
X5.55Y-4.85
X5.55Y-4.95
X5.55Y-5.05
X5.55Y-5.15
X5.55Y-5.25
X5.55Y-5.35
X5.55Y-5.45
X5.55Y-5.55
X5.55Y-5.65
X5.55Y-5.75
X5.55Y-5.85
X5.55Y-5.95
X5.55Y-6.05
X5.55Y-6.15
X5.55Y-6.25
X5.55Y-6.35
X5.55Y-6.45
X5.55Y-6.55
X5.55Y-6.65
X5.55Y-6.75
X5.55Y-6.85
X5.55Y-6.95
X5.55Y-7.05
X5.55Y-7.15
X5.55Y-7.25
X5.55Y-7.35
X5.55Y-7.45
X5.65Y-1.15
X5.65Y-1.25
X5.65Y-1.35
X5.65Y-1.45
X5.65Y-1.55
X5.65Y-1.65
X5.65Y-1.75
X5.65Y-1.85
X5.65Y-1.95
X5.65Y-2.05
X5.65Y-2.15
X5.65Y-2.25
X5.65Y-2.35
X5.65Y-2.45
X5.65Y-2.55
X5.65Y-2.65
X5.65Y-2.75
X5.65Y-2.85
X5.65Y-2.95
X5.65Y-3.05
X5.65Y-3.15
X5.65Y-3.25
X5.65Y-3.35
X5.65Y-3.45
X5.65Y-3.55
X5.65Y-3.65
X5.65Y-3.75
X5.65Y-3.85
X5.65Y-3.95
X5.65Y-4.05
X5.65Y-4.15
X5.65Y-4.25
X5.65Y-4.35
X5.65Y-4.45
X5.65Y-4.55
X5.65Y-4.65
X5.65Y-4.75
X5.65Y-4.85
X5.65Y-4.95
X5.65Y-5.05
X5.65Y-5.15
X5.65Y-5.25
X5.65Y-5.35
X5.65Y-5.45
X5.65Y-5.55
X5.65Y-5.65
X5.65Y-5.75
X5.65Y-5.85
X5.65Y-5.95
X5.65Y-6.05
X5.65Y-6.15
X5.65Y-6.25
X5.65Y-6.35
X5.65Y-6.45
X5.65Y-6.55
X5.65Y-6.65
X5.65Y-6.75
X5.65Y-6.85
X5.65Y-6.95
X5.65Y-7.05
X5.65Y-7.15
X5.65Y-7.25
X5.65Y-7.35
X5.65Y-7.45
X5.95Y-1.25
X5.95Y-1.35
X5.95Y-1.45
X5.95Y-1.55
X5.95Y-1.65
X5.95Y-1.75
X5.95Y-1.85
X5.95Y-1.95
X5.95Y-2.05
X5.95Y-2.15
X5.95Y-2.25
X5.95Y-2.35
X5.95Y-2.45
X5.95Y-2.55
X5.95Y-2.65
X5.95Y-2.75
X5.95Y-2.85
X5.95Y-2.95
X5.95Y-3.05
X5.95Y-3.15
X5.95Y-3.35
X5.95Y-3.45
X5.95Y-3.55
X5.95Y-3.65
X5.95Y-3.75
X5.95Y-3.85
X5.95Y-3.95
X5.95Y-4.05
X5.95Y-4.15
X5.95Y-4.25
X5.95Y-4.35
X5.95Y-4.45
X5.95Y-4.55
X5.95Y-4.65
X5.95Y-4.75
X5.95Y-4.85
X5.95Y-4.95
X5.95Y-5.05
X5.95Y-5.15
X5.95Y-5.25
X5.95Y-5.45
X5.95Y-5.55
X5.95Y-5.65
X5.95Y-5.75
X5.95Y-5.85
X5.95Y-5.95
X5.95Y-6.05
X5.95Y-6.15
X5.95Y-6.25
X5.95Y-6.35
X5.95Y-6.45
X5.95Y-6.55
X5.95Y-6.65
X5.95Y-6.75
X5.95Y-6.85
X5.95Y-6.95
X5.95Y-7.05
X5.95Y-7.15
X5.95Y-7.25
X5.95Y-7.35
X6.05Y-1.25
X6.05Y-1.35
X6.05Y-1.45
X6.05Y-1.55
X6.05Y-1.65
X6.05Y-1.75
X6.05Y-1.85
X6.05Y-1.95
X6.05Y-2.05
X6.05Y-2.15
X6.05Y-2.25
X6.05Y-2.35
X6.05Y-2.45
X6.05Y-2.55
X6.05Y-2.65
X6.05Y-2.75
X6.05Y-2.85
X6.05Y-2.95
X6.05Y-3.05
X6.05Y-3.15
X6.05Y-3.35
X6.05Y-3.45
X6.05Y-3.55
X6.05Y-3.65
X6.05Y-3.75
X6.05Y-3.85
X6.05Y-3.95
X6.05Y-4.05
X6.05Y-4.15
X6.05Y-4.25
X6.05Y-4.35
X6.05Y-4.45
X6.05Y-4.55
X6.05Y-4.65
X6.05Y-4.75
X6.05Y-4.85
X6.05Y-4.95
X6.05Y-5.05
X6.05Y-5.15
X6.05Y-5.25
X6.05Y-5.45
X6.05Y-5.55
X6.05Y-5.65
X6.05Y-5.75
X6.05Y-5.85
X6.05Y-5.95
X6.05Y-6.05
X6.05Y-6.15
X6.05Y-6.25
X6.05Y-6.35
X6.05Y-6.45
X6.05Y-6.55
X6.05Y-6.65
X6.05Y-6.75
X6.05Y-6.85
X6.05Y-6.95
X6.05Y-7.05
X6.05Y-7.15
X6.05Y-7.25
X6.05Y-7.35
M30
