%TF.GenerationSoftware,KiCad,Pcbnew,8.0.1*%
%TF.CreationDate,2024-03-17T17:03:56+00:00*%
%TF.ProjectId,ToastedBreadBoard128,546f6173-7465-4644-9272-656164426f61,rev?*%
%TF.SameCoordinates,Original*%
%TF.FileFunction,Soldermask,Top*%
%TF.FilePolarity,Negative*%
%FSLAX46Y46*%
G04 Gerber Fmt 4.6, Leading zero omitted, Abs format (unit mm)*
G04 Created by KiCad (PCBNEW 8.0.1) date 2024-03-17 17:03:56*
%MOMM*%
%LPD*%
G01*
G04 APERTURE LIST*
%ADD10R,1.524000X1.524000*%
%ADD11C,1.524000*%
%ADD12O,11.700000X1.524000*%
%ADD13C,3.500000*%
%ADD14R,1.700000X1.700000*%
%ADD15O,1.700000X1.700000*%
G04 APERTURE END LIST*
D10*
%TO.C,U1*%
X123190000Y-29210000D03*
D11*
X120650000Y-29210000D03*
D12*
X118110000Y-29210000D03*
D11*
X115570000Y-29210000D03*
D10*
X113030000Y-29210000D03*
D11*
X123190000Y-31750000D03*
X120650000Y-31750000D03*
D12*
X118110000Y-31750000D03*
D11*
X115570000Y-31750000D03*
X113030000Y-31750000D03*
X123190000Y-34290000D03*
X120650000Y-34290000D03*
D12*
X118110000Y-34290000D03*
D11*
X115570000Y-34290000D03*
X113030000Y-34290000D03*
X123190000Y-36830000D03*
X120650000Y-36830000D03*
D12*
X118110000Y-36830000D03*
D11*
X115570000Y-36830000D03*
X113030000Y-36830000D03*
X123190000Y-39370000D03*
X120650000Y-39370000D03*
D12*
X118110000Y-39370000D03*
D11*
X115570000Y-39370000D03*
X113030000Y-39370000D03*
X123190000Y-41910000D03*
X120650000Y-41910000D03*
D12*
X118110000Y-41910000D03*
D11*
X115570000Y-41910000D03*
X113030000Y-41910000D03*
X123190000Y-44450000D03*
X120650000Y-44450000D03*
D12*
X118110000Y-44450000D03*
D11*
X115570000Y-44450000D03*
X113030000Y-44450000D03*
X123190000Y-46990000D03*
X120650000Y-46990000D03*
D12*
X118110000Y-46990000D03*
D11*
X115570000Y-46990000D03*
X113030000Y-46990000D03*
X123190000Y-49530000D03*
X120650000Y-49530000D03*
D12*
X118110000Y-49530000D03*
D11*
X115570000Y-49530000D03*
X113030000Y-49530000D03*
X123190000Y-52070000D03*
X120650000Y-52070000D03*
D12*
X118110000Y-52070000D03*
D11*
X115570000Y-52070000D03*
X113030000Y-52070000D03*
X123190000Y-54610000D03*
X120650000Y-54610000D03*
D12*
X118110000Y-54610000D03*
D11*
X115570000Y-54610000D03*
X113030000Y-54610000D03*
X123190000Y-57150000D03*
X120650000Y-57150000D03*
D12*
X118110000Y-57150000D03*
D11*
X115570000Y-57150000D03*
X113030000Y-57150000D03*
X123190000Y-59690000D03*
X120650000Y-59690000D03*
D12*
X118110000Y-59690000D03*
D11*
X115570000Y-59690000D03*
X113030000Y-59690000D03*
X123190000Y-62230000D03*
X120650000Y-62230000D03*
D12*
X118110000Y-62230000D03*
D11*
X115570000Y-62230000D03*
X113030000Y-62230000D03*
X123090000Y-64770000D03*
X120550000Y-64770000D03*
D12*
X118010000Y-64770000D03*
D11*
X115470000Y-64770000D03*
X112930000Y-64770000D03*
X123090000Y-67310000D03*
X120550000Y-67310000D03*
D12*
X118010000Y-67310000D03*
D11*
X115470000Y-67310000D03*
X112930000Y-67310000D03*
X123090000Y-69850000D03*
X120550000Y-69850000D03*
D12*
X118010000Y-69850000D03*
D11*
X115470000Y-69850000D03*
X112930000Y-69850000D03*
X123190000Y-72390000D03*
X120650000Y-72390000D03*
D12*
X118110000Y-72390000D03*
D11*
X115570000Y-72390000D03*
X113030000Y-72390000D03*
X123190000Y-74930000D03*
X120650000Y-74930000D03*
D12*
X118110000Y-74930000D03*
D11*
X115570000Y-74930000D03*
X113030000Y-74930000D03*
X123190000Y-77470000D03*
X120650000Y-77470000D03*
D12*
X118110000Y-77470000D03*
D11*
X115570000Y-77470000D03*
X113030000Y-77470000D03*
X123190000Y-80010000D03*
X120650000Y-80010000D03*
D12*
X118110000Y-80010000D03*
D11*
X115570000Y-80010000D03*
X113030000Y-80010000D03*
X123190000Y-82550000D03*
X120650000Y-82550000D03*
D12*
X118110000Y-82550000D03*
D11*
X115570000Y-82550000D03*
X113030000Y-82550000D03*
X123190000Y-85090000D03*
X120650000Y-85090000D03*
D12*
X118110000Y-85090000D03*
D11*
X115570000Y-85090000D03*
X113030000Y-85090000D03*
X123190000Y-87630000D03*
X120650000Y-87630000D03*
D12*
X118110000Y-87630000D03*
D11*
X115570000Y-87630000D03*
X113030000Y-87630000D03*
X123190000Y-90170000D03*
X120650000Y-90170000D03*
D12*
X118110000Y-90170000D03*
D11*
X115570000Y-90170000D03*
X113030000Y-90170000D03*
X123190000Y-92710000D03*
X120650000Y-92710000D03*
D12*
X118110000Y-92710000D03*
D11*
X115570000Y-92710000D03*
X113030000Y-92710000D03*
X123190000Y-95250000D03*
X120650000Y-95250000D03*
D12*
X118110000Y-95250000D03*
D11*
X115570000Y-95250000D03*
X113030000Y-95250000D03*
X123190000Y-97790000D03*
X120650000Y-97790000D03*
D12*
X118110000Y-97790000D03*
D11*
X115570000Y-97790000D03*
X113030000Y-97790000D03*
X123190000Y-100330000D03*
X120550000Y-100330000D03*
D12*
X118110000Y-100330000D03*
D11*
X115470000Y-100330000D03*
X113030000Y-100330000D03*
X123190000Y-102870000D03*
X120650000Y-102870000D03*
D12*
X118110000Y-102870000D03*
D11*
X115570000Y-102870000D03*
X113030000Y-102870000D03*
X123190000Y-105410000D03*
X120650000Y-105410000D03*
D12*
X118110000Y-105410000D03*
D11*
X115570000Y-105410000D03*
X113030000Y-105410000D03*
X123190000Y-107950000D03*
X120650000Y-107950000D03*
D12*
X118110000Y-107950000D03*
D11*
X115570000Y-107950000D03*
X113030000Y-107950000D03*
X123190000Y-110490000D03*
X120650000Y-110490000D03*
D12*
X118110000Y-110490000D03*
D11*
X115570000Y-110490000D03*
X113030000Y-110490000D03*
X123190000Y-113030000D03*
X120650000Y-113030000D03*
D12*
X118110000Y-113030000D03*
D11*
X115570000Y-113030000D03*
X113030000Y-113030000D03*
X123190000Y-115570000D03*
X120650000Y-115570000D03*
D12*
X118110000Y-115570000D03*
D11*
X115570000Y-115570000D03*
X113030000Y-115570000D03*
X123190000Y-118110000D03*
X120650000Y-118110000D03*
D12*
X118110000Y-118110000D03*
D11*
X115570000Y-118110000D03*
X113030000Y-118110000D03*
X123190000Y-120650000D03*
X120650000Y-120650000D03*
D12*
X118110000Y-120650000D03*
D11*
X115570000Y-120650000D03*
X113030000Y-120650000D03*
X123190000Y-123190000D03*
X120650000Y-123190000D03*
D12*
X118110000Y-123190000D03*
D11*
X115570000Y-123190000D03*
X113030000Y-123190000D03*
X123190000Y-125730000D03*
X120650000Y-125730000D03*
D12*
X118110000Y-125730000D03*
D11*
X115570000Y-125730000D03*
X113030000Y-125730000D03*
X123190000Y-128270000D03*
X120650000Y-128270000D03*
D12*
X118110000Y-128270000D03*
D11*
X115570000Y-128270000D03*
X113030000Y-128270000D03*
X123190000Y-130810000D03*
X120650000Y-130810000D03*
D12*
X118110000Y-130810000D03*
D11*
X115570000Y-130810000D03*
X113030000Y-130810000D03*
X123190000Y-133350000D03*
X120650000Y-133350000D03*
D12*
X118110000Y-133350000D03*
D11*
X115570000Y-133350000D03*
X113030000Y-133350000D03*
X123190000Y-135890000D03*
X120650000Y-135890000D03*
D12*
X118110000Y-135890000D03*
D11*
X115570000Y-135890000D03*
X113030000Y-135890000D03*
X123190000Y-138430000D03*
X120650000Y-138430000D03*
D12*
X118110000Y-138430000D03*
D11*
X115570000Y-138430000D03*
X113030000Y-138430000D03*
X123090000Y-140970000D03*
X120550000Y-140970000D03*
D12*
X118010000Y-140970000D03*
D11*
X115470000Y-140970000D03*
X112930000Y-140970000D03*
X123190000Y-143510000D03*
X120650000Y-143510000D03*
D12*
X118110000Y-143510000D03*
D11*
X115570000Y-143510000D03*
X113030000Y-143510000D03*
X123190000Y-146050000D03*
X120650000Y-146050000D03*
D12*
X118110000Y-146050000D03*
D11*
X115570000Y-146050000D03*
X113030000Y-146050000D03*
X123190000Y-148590000D03*
X120650000Y-148590000D03*
D12*
X118110000Y-148590000D03*
D11*
X115570000Y-148590000D03*
X113030000Y-148590000D03*
X123190000Y-151130000D03*
X120650000Y-151130000D03*
D12*
X118110000Y-151130000D03*
D11*
X115570000Y-151130000D03*
X113030000Y-151130000D03*
X123190000Y-153670000D03*
X120650000Y-153670000D03*
D12*
X118110000Y-153670000D03*
D11*
X115570000Y-153670000D03*
X113030000Y-153670000D03*
X123090000Y-156210000D03*
X120550000Y-156210000D03*
D12*
X118010000Y-156210000D03*
D11*
X115470000Y-156210000D03*
X112930000Y-156210000D03*
X123090000Y-158750000D03*
X120550000Y-158750000D03*
D12*
X118010000Y-158750000D03*
D11*
X115470000Y-158750000D03*
X112930000Y-158750000D03*
X123190000Y-161290000D03*
X120650000Y-161290000D03*
D12*
X118110000Y-161290000D03*
D11*
X115570000Y-161290000D03*
X113030000Y-161290000D03*
X123190000Y-163830000D03*
X120650000Y-163830000D03*
D12*
X118110000Y-163830000D03*
D11*
X115570000Y-163830000D03*
X113030000Y-163830000D03*
X123190000Y-166370000D03*
X120650000Y-166370000D03*
D12*
X118110000Y-166370000D03*
D11*
X115570000Y-166370000D03*
X113030000Y-166370000D03*
X123190000Y-168910000D03*
X120650000Y-168910000D03*
D12*
X118110000Y-168910000D03*
D11*
X115570000Y-168910000D03*
X113030000Y-168910000D03*
X123190000Y-171450000D03*
X120650000Y-171450000D03*
D12*
X118110000Y-171450000D03*
D11*
X115570000Y-171450000D03*
X113030000Y-171450000D03*
X123190000Y-173990000D03*
X120650000Y-173990000D03*
D12*
X118110000Y-173990000D03*
D11*
X115570000Y-173990000D03*
X113030000Y-173990000D03*
X123190000Y-176530000D03*
X120650000Y-176530000D03*
D12*
X118110000Y-176530000D03*
D11*
X115570000Y-176530000D03*
X113030000Y-176530000D03*
X123190000Y-179070000D03*
X120650000Y-179070000D03*
D12*
X118110000Y-179070000D03*
D11*
X115570000Y-179070000D03*
X113030000Y-179070000D03*
X123190000Y-181610000D03*
X120650000Y-181610000D03*
D12*
X118110000Y-181610000D03*
D11*
X115570000Y-181610000D03*
X113030000Y-181610000D03*
X123190000Y-184150000D03*
X120650000Y-184150000D03*
D12*
X118110000Y-184150000D03*
D11*
X115570000Y-184150000D03*
X113030000Y-184150000D03*
X123190000Y-186690000D03*
X120650000Y-186690000D03*
D12*
X118110000Y-186690000D03*
D11*
X115570000Y-186690000D03*
X113030000Y-186690000D03*
X123190000Y-189230000D03*
X120650000Y-189230000D03*
D12*
X118110000Y-189230000D03*
D11*
X115570000Y-189230000D03*
X113030000Y-189230000D03*
X143510000Y-189230000D03*
X140970000Y-189230000D03*
D12*
X138430000Y-189230000D03*
D11*
X135890000Y-189230000D03*
X133350000Y-189230000D03*
X143510000Y-186690000D03*
X140970000Y-186690000D03*
D12*
X138430000Y-186690000D03*
D11*
X135890000Y-186690000D03*
X133350000Y-186690000D03*
X143510000Y-184150000D03*
X140970000Y-184150000D03*
D12*
X138430000Y-184150000D03*
D11*
X135890000Y-184150000D03*
X133350000Y-184150000D03*
X143510000Y-181610000D03*
X140970000Y-181610000D03*
D12*
X138430000Y-181610000D03*
D11*
X135890000Y-181610000D03*
X133350000Y-181610000D03*
X143510000Y-179070000D03*
X140970000Y-179070000D03*
D12*
X138430000Y-179070000D03*
D11*
X135890000Y-179070000D03*
X133350000Y-179070000D03*
X143510000Y-176530000D03*
X140970000Y-176530000D03*
D12*
X138430000Y-176530000D03*
D11*
X135890000Y-176530000D03*
X133350000Y-176530000D03*
X143510000Y-173990000D03*
X140970000Y-173990000D03*
D12*
X138430000Y-173990000D03*
D11*
X135890000Y-173990000D03*
X133350000Y-173990000D03*
X143510000Y-171450000D03*
X140970000Y-171450000D03*
D12*
X138430000Y-171450000D03*
D11*
X135890000Y-171450000D03*
X133350000Y-171450000D03*
X143510000Y-168910000D03*
X140970000Y-168910000D03*
D12*
X138430000Y-168910000D03*
D11*
X135890000Y-168910000D03*
X133350000Y-168910000D03*
X143510000Y-166370000D03*
X140970000Y-166370000D03*
D12*
X138430000Y-166370000D03*
D11*
X135890000Y-166370000D03*
X133350000Y-166370000D03*
X143510000Y-163830000D03*
X140970000Y-163830000D03*
D12*
X138430000Y-163830000D03*
D11*
X135890000Y-163830000D03*
X133350000Y-163830000D03*
X143510000Y-161290000D03*
X140970000Y-161290000D03*
D12*
X138430000Y-161290000D03*
D11*
X135890000Y-161290000D03*
X133350000Y-161290000D03*
X143510000Y-158750000D03*
X140970000Y-158750000D03*
D12*
X138430000Y-158750000D03*
D11*
X135890000Y-158750000D03*
X133350000Y-158750000D03*
X143510000Y-156210000D03*
X140970000Y-156210000D03*
D12*
X138430000Y-156210000D03*
D11*
X135890000Y-156210000D03*
X133350000Y-156210000D03*
X143510000Y-153670000D03*
X140970000Y-153670000D03*
D12*
X138430000Y-153670000D03*
D11*
X135890000Y-153670000D03*
X133350000Y-153670000D03*
X143510000Y-151130000D03*
X140970000Y-151130000D03*
D12*
X138430000Y-151130000D03*
D11*
X135890000Y-151130000D03*
X133350000Y-151130000D03*
X143510000Y-148590000D03*
X140970000Y-148590000D03*
D12*
X138430000Y-148590000D03*
D11*
X135890000Y-148590000D03*
X133350000Y-148590000D03*
X143510000Y-146050000D03*
X140970000Y-146050000D03*
D12*
X138430000Y-146050000D03*
D11*
X135890000Y-146050000D03*
X133350000Y-146050000D03*
X143510000Y-143510000D03*
X140970000Y-143510000D03*
D12*
X138430000Y-143510000D03*
D11*
X135890000Y-143510000D03*
X133350000Y-143510000D03*
X143510000Y-140970000D03*
X140970000Y-140970000D03*
D12*
X138430000Y-140970000D03*
D11*
X135890000Y-140970000D03*
X133350000Y-140970000D03*
X143510000Y-138430000D03*
X140970000Y-138430000D03*
D12*
X138430000Y-138430000D03*
D11*
X135890000Y-138430000D03*
X133350000Y-138430000D03*
X143510000Y-135890000D03*
X140970000Y-135890000D03*
D12*
X138430000Y-135890000D03*
D11*
X135890000Y-135890000D03*
X133350000Y-135890000D03*
X143510000Y-133350000D03*
X140970000Y-133350000D03*
D12*
X138430000Y-133350000D03*
D11*
X135890000Y-133350000D03*
X133350000Y-133350000D03*
X143510000Y-130810000D03*
X140970000Y-130810000D03*
D12*
X138430000Y-130810000D03*
D11*
X135890000Y-130810000D03*
X133350000Y-130810000D03*
X143510000Y-128270000D03*
X140970000Y-128270000D03*
D12*
X138430000Y-128270000D03*
D11*
X135890000Y-128270000D03*
X133350000Y-128270000D03*
X143510000Y-125730000D03*
X140970000Y-125730000D03*
D12*
X138430000Y-125730000D03*
D11*
X135890000Y-125730000D03*
X133350000Y-125730000D03*
X143510000Y-123190000D03*
X140970000Y-123190000D03*
D12*
X138430000Y-123190000D03*
D11*
X135890000Y-123190000D03*
X133350000Y-123190000D03*
X143510000Y-120650000D03*
X140970000Y-120650000D03*
D12*
X138430000Y-120650000D03*
D11*
X135890000Y-120650000D03*
X133350000Y-120650000D03*
X143510000Y-118110000D03*
X140970000Y-118110000D03*
D12*
X138430000Y-118110000D03*
D11*
X135890000Y-118110000D03*
X133350000Y-118110000D03*
X143510000Y-115570000D03*
X140970000Y-115570000D03*
D12*
X138430000Y-115570000D03*
D11*
X135890000Y-115570000D03*
X133350000Y-115570000D03*
X143510000Y-113030000D03*
X140970000Y-113030000D03*
D12*
X138430000Y-113030000D03*
D11*
X135890000Y-113030000D03*
X133350000Y-113030000D03*
X143510000Y-110490000D03*
X140970000Y-110490000D03*
D12*
X138430000Y-110490000D03*
D11*
X135890000Y-110490000D03*
X133350000Y-110490000D03*
X143510000Y-107950000D03*
X140970000Y-107950000D03*
D12*
X138430000Y-107950000D03*
D11*
X135890000Y-107950000D03*
X133350000Y-107950000D03*
X143510000Y-105410000D03*
X140970000Y-105410000D03*
D12*
X138430000Y-105410000D03*
D11*
X135890000Y-105410000D03*
X133350000Y-105410000D03*
X143510000Y-102870000D03*
X140970000Y-102870000D03*
D12*
X138430000Y-102870000D03*
D11*
X135890000Y-102870000D03*
X133350000Y-102870000D03*
X143510000Y-100330000D03*
X140970000Y-100330000D03*
D12*
X138430000Y-100330000D03*
D11*
X135890000Y-100330000D03*
X133350000Y-100330000D03*
X143510000Y-97790000D03*
X140970000Y-97790000D03*
D12*
X138430000Y-97790000D03*
D11*
X135890000Y-97790000D03*
X133350000Y-97790000D03*
X143510000Y-95250000D03*
X140970000Y-95250000D03*
D12*
X138430000Y-95250000D03*
D11*
X135890000Y-95250000D03*
X133350000Y-95250000D03*
X143510000Y-92710000D03*
X140970000Y-92710000D03*
D12*
X138430000Y-92710000D03*
D11*
X135890000Y-92710000D03*
X133350000Y-92710000D03*
X143510000Y-90170000D03*
X140970000Y-90170000D03*
D12*
X138430000Y-90170000D03*
D11*
X135890000Y-90170000D03*
X133350000Y-90170000D03*
X143510000Y-87630000D03*
X140970000Y-87630000D03*
D12*
X138430000Y-87630000D03*
D11*
X135890000Y-87630000D03*
X133350000Y-87630000D03*
X143510000Y-85090000D03*
X140970000Y-85090000D03*
D12*
X138430000Y-85090000D03*
D11*
X135890000Y-85090000D03*
X133350000Y-85090000D03*
X143510000Y-82550000D03*
X140970000Y-82550000D03*
D12*
X138430000Y-82550000D03*
D11*
X135890000Y-82550000D03*
X133350000Y-82550000D03*
X143510000Y-80010000D03*
X140970000Y-80010000D03*
D12*
X138430000Y-80010000D03*
D11*
X135890000Y-80010000D03*
X133350000Y-80010000D03*
X143510000Y-77470000D03*
X140970000Y-77470000D03*
D12*
X138430000Y-77470000D03*
D11*
X135890000Y-77470000D03*
X133350000Y-77470000D03*
X143510000Y-74930000D03*
X140970000Y-74930000D03*
D12*
X138430000Y-74930000D03*
D11*
X135890000Y-74930000D03*
X133350000Y-74930000D03*
X143510000Y-72390000D03*
X140970000Y-72390000D03*
D12*
X138430000Y-72390000D03*
D11*
X135890000Y-72390000D03*
X133350000Y-72390000D03*
X143510000Y-69850000D03*
X140970000Y-69850000D03*
D12*
X138430000Y-69850000D03*
D11*
X135890000Y-69850000D03*
X133350000Y-69850000D03*
X143510000Y-67310000D03*
X140970000Y-67310000D03*
D12*
X138430000Y-67310000D03*
D11*
X135890000Y-67310000D03*
X133350000Y-67310000D03*
X143510000Y-64770000D03*
X140970000Y-64770000D03*
D12*
X138430000Y-64770000D03*
D11*
X135890000Y-64770000D03*
X133350000Y-64770000D03*
X143510000Y-62230000D03*
X140970000Y-62230000D03*
D12*
X138430000Y-62230000D03*
D11*
X135890000Y-62230000D03*
X133350000Y-62230000D03*
X143510000Y-59690000D03*
X140970000Y-59690000D03*
D12*
X138430000Y-59690000D03*
D11*
X135890000Y-59690000D03*
X133350000Y-59690000D03*
X143510000Y-57150000D03*
X140970000Y-57150000D03*
D12*
X138430000Y-57150000D03*
D11*
X135890000Y-57150000D03*
X133350000Y-57150000D03*
X143510000Y-54610000D03*
X140970000Y-54610000D03*
D12*
X138430000Y-54610000D03*
D11*
X135890000Y-54610000D03*
X133350000Y-54610000D03*
X143510000Y-52070000D03*
X140970000Y-52070000D03*
D12*
X138430000Y-52070000D03*
D11*
X135890000Y-52070000D03*
X133350000Y-52070000D03*
X143510000Y-49530000D03*
X140970000Y-49530000D03*
D12*
X138430000Y-49530000D03*
D11*
X135890000Y-49530000D03*
X133350000Y-49530000D03*
X143510000Y-46990000D03*
X140970000Y-46990000D03*
D12*
X138430000Y-46990000D03*
D11*
X135890000Y-46990000D03*
X133350000Y-46990000D03*
X143510000Y-44450000D03*
X140970000Y-44450000D03*
D12*
X138430000Y-44450000D03*
D11*
X135890000Y-44450000D03*
X133350000Y-44450000D03*
X143510000Y-41910000D03*
X140970000Y-41910000D03*
D12*
X138430000Y-41910000D03*
D11*
X135890000Y-41910000D03*
X133350000Y-41910000D03*
X143510000Y-39370000D03*
X140970000Y-39370000D03*
D12*
X138430000Y-39370000D03*
D11*
X135890000Y-39370000D03*
X133350000Y-39370000D03*
X143510000Y-36830000D03*
X140970000Y-36830000D03*
D12*
X138430000Y-36830000D03*
D11*
X135890000Y-36830000D03*
X133350000Y-36830000D03*
X143510000Y-34290000D03*
X140970000Y-34290000D03*
D12*
X138430000Y-34290000D03*
D11*
X135890000Y-34290000D03*
X133350000Y-34290000D03*
X143510000Y-31750000D03*
X140970000Y-31750000D03*
D12*
X138430000Y-31750000D03*
D11*
X135890000Y-31750000D03*
X133350000Y-31750000D03*
X143510000Y-29210000D03*
X140970000Y-29210000D03*
D12*
X138430000Y-29210000D03*
D11*
X135890000Y-29210000D03*
X133350000Y-29210000D03*
%TD*%
D13*
%TO.C,H3*%
X152400000Y-194310000D03*
%TD*%
D14*
%TO.C,J6*%
X151130000Y-138430000D03*
D15*
X153670000Y-138430000D03*
X151130000Y-140970000D03*
X153670000Y-140970000D03*
X151130000Y-143510000D03*
X153670000Y-143510000D03*
X151130000Y-146050000D03*
X153670000Y-146050000D03*
X151130000Y-148590000D03*
X153670000Y-148590000D03*
X151130000Y-151130000D03*
X153670000Y-151130000D03*
X151130000Y-153670000D03*
X153670000Y-153670000D03*
X151130000Y-156210000D03*
X153670000Y-156210000D03*
X151130000Y-158750000D03*
X153670000Y-158750000D03*
X151130000Y-161290000D03*
X153670000Y-161290000D03*
X151130000Y-163830000D03*
X153670000Y-163830000D03*
X151130000Y-166370000D03*
X153670000Y-166370000D03*
X151130000Y-168910000D03*
X153670000Y-168910000D03*
X151130000Y-171450000D03*
X153670000Y-171450000D03*
X151130000Y-173990000D03*
X153670000Y-173990000D03*
X151130000Y-176530000D03*
X153670000Y-176530000D03*
X151130000Y-179070000D03*
X153670000Y-179070000D03*
X151130000Y-181610000D03*
X153670000Y-181610000D03*
X151130000Y-184150000D03*
X153670000Y-184150000D03*
X151130000Y-186690000D03*
X153670000Y-186690000D03*
%TD*%
D14*
%TO.C,J4*%
X151130000Y-31750000D03*
D15*
X153670000Y-31750000D03*
X151130000Y-34290000D03*
X153670000Y-34290000D03*
X151130000Y-36830000D03*
X153670000Y-36830000D03*
X151130000Y-39370000D03*
X153670000Y-39370000D03*
X151130000Y-41910000D03*
X153670000Y-41910000D03*
X151130000Y-44450000D03*
X153670000Y-44450000D03*
X151130000Y-46990000D03*
X153670000Y-46990000D03*
X151130000Y-49530000D03*
X153670000Y-49530000D03*
X151130000Y-52070000D03*
X153670000Y-52070000D03*
X151130000Y-54610000D03*
X153670000Y-54610000D03*
X151130000Y-57150000D03*
X153670000Y-57150000D03*
X151130000Y-59690000D03*
X153670000Y-59690000D03*
X151130000Y-62230000D03*
X153670000Y-62230000D03*
X151130000Y-64770000D03*
X153670000Y-64770000D03*
X151130000Y-67310000D03*
X153670000Y-67310000D03*
X151130000Y-69850000D03*
X153670000Y-69850000D03*
X151130000Y-72390000D03*
X153670000Y-72390000D03*
X151130000Y-74930000D03*
X153670000Y-74930000D03*
X151130000Y-77470000D03*
X153670000Y-77470000D03*
X151130000Y-80010000D03*
X153670000Y-80010000D03*
%TD*%
D13*
%TO.C,H1*%
X104140000Y-25400000D03*
%TD*%
D14*
%TO.C,J2*%
X102870000Y-85090000D03*
D15*
X105410000Y-85090000D03*
X102870000Y-87630000D03*
X105410000Y-87630000D03*
X102870000Y-90170000D03*
X105410000Y-90170000D03*
X102870000Y-92710000D03*
X105410000Y-92710000D03*
X102870000Y-95250000D03*
X105410000Y-95250000D03*
X102870000Y-97790000D03*
X105410000Y-97790000D03*
X102870000Y-100330000D03*
X105410000Y-100330000D03*
X102870000Y-102870000D03*
X105410000Y-102870000D03*
X102870000Y-105410000D03*
X105410000Y-105410000D03*
X102870000Y-107950000D03*
X105410000Y-107950000D03*
X102870000Y-110490000D03*
X105410000Y-110490000D03*
X102870000Y-113030000D03*
X105410000Y-113030000D03*
X102870000Y-115570000D03*
X105410000Y-115570000D03*
X102870000Y-118110000D03*
X105410000Y-118110000D03*
X102870000Y-120650000D03*
X105410000Y-120650000D03*
X102870000Y-123190000D03*
X105410000Y-123190000D03*
X102870000Y-125730000D03*
X105410000Y-125730000D03*
X102870000Y-128270000D03*
X105410000Y-128270000D03*
X102870000Y-130810000D03*
X105410000Y-130810000D03*
X102870000Y-133350000D03*
X105410000Y-133350000D03*
%TD*%
%TO.C,J1*%
X105410000Y-80010000D03*
X102870000Y-80010000D03*
X105410000Y-77470000D03*
X102870000Y-77470000D03*
X105410000Y-74930000D03*
X102870000Y-74930000D03*
X105410000Y-72390000D03*
X102870000Y-72390000D03*
X105410000Y-69850000D03*
X102870000Y-69850000D03*
X105410000Y-67310000D03*
X102870000Y-67310000D03*
X105410000Y-64770000D03*
X102870000Y-64770000D03*
X105410000Y-62230000D03*
X102870000Y-62230000D03*
X105410000Y-59690000D03*
X102870000Y-59690000D03*
X105410000Y-57150000D03*
X102870000Y-57150000D03*
X105410000Y-54610000D03*
X102870000Y-54610000D03*
X105410000Y-52070000D03*
X102870000Y-52070000D03*
X105410000Y-49530000D03*
X102870000Y-49530000D03*
X105410000Y-46990000D03*
X102870000Y-46990000D03*
X105410000Y-44450000D03*
X102870000Y-44450000D03*
X105410000Y-41910000D03*
X102870000Y-41910000D03*
X105410000Y-39370000D03*
X102870000Y-39370000D03*
X105410000Y-36830000D03*
X102870000Y-36830000D03*
X105410000Y-34290000D03*
X102870000Y-34290000D03*
X105410000Y-31750000D03*
D14*
X102870000Y-31750000D03*
%TD*%
%TO.C,J3*%
X102870000Y-138430000D03*
D15*
X105410000Y-138430000D03*
X102870000Y-140970000D03*
X105410000Y-140970000D03*
X102870000Y-143510000D03*
X105410000Y-143510000D03*
X102870000Y-146050000D03*
X105410000Y-146050000D03*
X102870000Y-148590000D03*
X105410000Y-148590000D03*
X102870000Y-151130000D03*
X105410000Y-151130000D03*
X102870000Y-153670000D03*
X105410000Y-153670000D03*
X102870000Y-156210000D03*
X105410000Y-156210000D03*
X102870000Y-158750000D03*
X105410000Y-158750000D03*
X102870000Y-161290000D03*
X105410000Y-161290000D03*
X102870000Y-163830000D03*
X105410000Y-163830000D03*
X102870000Y-166370000D03*
X105410000Y-166370000D03*
X102870000Y-168910000D03*
X105410000Y-168910000D03*
X102870000Y-171450000D03*
X105410000Y-171450000D03*
X102870000Y-173990000D03*
X105410000Y-173990000D03*
X102870000Y-176530000D03*
X105410000Y-176530000D03*
X102870000Y-179070000D03*
X105410000Y-179070000D03*
X102870000Y-181610000D03*
X105410000Y-181610000D03*
X102870000Y-184150000D03*
X105410000Y-184150000D03*
X102870000Y-186690000D03*
X105410000Y-186690000D03*
%TD*%
D13*
%TO.C,H4*%
X104140000Y-194310000D03*
%TD*%
%TO.C,H2*%
X152400000Y-25400000D03*
%TD*%
D14*
%TO.C,J5*%
X151130000Y-85090000D03*
D15*
X153670000Y-85090000D03*
X151130000Y-87630000D03*
X153670000Y-87630000D03*
X151130000Y-90170000D03*
X153670000Y-90170000D03*
X151130000Y-92710000D03*
X153670000Y-92710000D03*
X151130000Y-95250000D03*
X153670000Y-95250000D03*
X151130000Y-97790000D03*
X153670000Y-97790000D03*
X151130000Y-100330000D03*
X153670000Y-100330000D03*
X151130000Y-102870000D03*
X153670000Y-102870000D03*
X151130000Y-105410000D03*
X153670000Y-105410000D03*
X151130000Y-107950000D03*
X153670000Y-107950000D03*
X151130000Y-110490000D03*
X153670000Y-110490000D03*
X151130000Y-113030000D03*
X153670000Y-113030000D03*
X151130000Y-115570000D03*
X153670000Y-115570000D03*
X151130000Y-118110000D03*
X153670000Y-118110000D03*
X151130000Y-120650000D03*
X153670000Y-120650000D03*
X151130000Y-123190000D03*
X153670000Y-123190000D03*
X151130000Y-125730000D03*
X153670000Y-125730000D03*
X151130000Y-128270000D03*
X153670000Y-128270000D03*
X151130000Y-130810000D03*
X153670000Y-130810000D03*
X151130000Y-133350000D03*
X153670000Y-133350000D03*
%TD*%
M02*
