%TF.GenerationSoftware,KiCad,Pcbnew,8.0.0*%
%TF.CreationDate,2024-03-14T18:24:49+00:00*%
%TF.ProjectId,ToastedBreadBoard128,546f6173-7465-4644-9272-656164426f61,rev?*%
%TF.SameCoordinates,Original*%
%TF.FileFunction,Legend,Top*%
%TF.FilePolarity,Positive*%
%FSLAX46Y46*%
G04 Gerber Fmt 4.6, Leading zero omitted, Abs format (unit mm)*
G04 Created by KiCad (PCBNEW 8.0.0) date 2024-03-14 18:24:49*
%MOMM*%
%LPD*%
G01*
G04 APERTURE LIST*
%ADD10C,0.300000*%
%ADD11C,0.150000*%
%ADD12C,0.120000*%
G04 APERTURE END LIST*
D10*
X127840828Y-122849774D02*
X127840828Y-121992632D01*
X129340828Y-122421203D02*
X127840828Y-122421203D01*
X129340828Y-121278346D02*
X129269400Y-121421203D01*
X129269400Y-121421203D02*
X129197971Y-121492632D01*
X129197971Y-121492632D02*
X129055114Y-121564060D01*
X129055114Y-121564060D02*
X128626542Y-121564060D01*
X128626542Y-121564060D02*
X128483685Y-121492632D01*
X128483685Y-121492632D02*
X128412257Y-121421203D01*
X128412257Y-121421203D02*
X128340828Y-121278346D01*
X128340828Y-121278346D02*
X128340828Y-121064060D01*
X128340828Y-121064060D02*
X128412257Y-120921203D01*
X128412257Y-120921203D02*
X128483685Y-120849775D01*
X128483685Y-120849775D02*
X128626542Y-120778346D01*
X128626542Y-120778346D02*
X129055114Y-120778346D01*
X129055114Y-120778346D02*
X129197971Y-120849775D01*
X129197971Y-120849775D02*
X129269400Y-120921203D01*
X129269400Y-120921203D02*
X129340828Y-121064060D01*
X129340828Y-121064060D02*
X129340828Y-121278346D01*
X129340828Y-119492632D02*
X128555114Y-119492632D01*
X128555114Y-119492632D02*
X128412257Y-119564060D01*
X128412257Y-119564060D02*
X128340828Y-119706917D01*
X128340828Y-119706917D02*
X128340828Y-119992632D01*
X128340828Y-119992632D02*
X128412257Y-120135489D01*
X129269400Y-119492632D02*
X129340828Y-119635489D01*
X129340828Y-119635489D02*
X129340828Y-119992632D01*
X129340828Y-119992632D02*
X129269400Y-120135489D01*
X129269400Y-120135489D02*
X129126542Y-120206917D01*
X129126542Y-120206917D02*
X128983685Y-120206917D01*
X128983685Y-120206917D02*
X128840828Y-120135489D01*
X128840828Y-120135489D02*
X128769400Y-119992632D01*
X128769400Y-119992632D02*
X128769400Y-119635489D01*
X128769400Y-119635489D02*
X128697971Y-119492632D01*
X129269400Y-118849774D02*
X129340828Y-118706917D01*
X129340828Y-118706917D02*
X129340828Y-118421203D01*
X129340828Y-118421203D02*
X129269400Y-118278346D01*
X129269400Y-118278346D02*
X129126542Y-118206917D01*
X129126542Y-118206917D02*
X129055114Y-118206917D01*
X129055114Y-118206917D02*
X128912257Y-118278346D01*
X128912257Y-118278346D02*
X128840828Y-118421203D01*
X128840828Y-118421203D02*
X128840828Y-118635489D01*
X128840828Y-118635489D02*
X128769400Y-118778346D01*
X128769400Y-118778346D02*
X128626542Y-118849774D01*
X128626542Y-118849774D02*
X128555114Y-118849774D01*
X128555114Y-118849774D02*
X128412257Y-118778346D01*
X128412257Y-118778346D02*
X128340828Y-118635489D01*
X128340828Y-118635489D02*
X128340828Y-118421203D01*
X128340828Y-118421203D02*
X128412257Y-118278346D01*
X128340828Y-117778345D02*
X128340828Y-117206917D01*
X127840828Y-117564060D02*
X129126542Y-117564060D01*
X129126542Y-117564060D02*
X129269400Y-117492631D01*
X129269400Y-117492631D02*
X129340828Y-117349774D01*
X129340828Y-117349774D02*
X129340828Y-117206917D01*
X129269400Y-116135488D02*
X129340828Y-116278345D01*
X129340828Y-116278345D02*
X129340828Y-116564060D01*
X129340828Y-116564060D02*
X129269400Y-116706917D01*
X129269400Y-116706917D02*
X129126542Y-116778345D01*
X129126542Y-116778345D02*
X128555114Y-116778345D01*
X128555114Y-116778345D02*
X128412257Y-116706917D01*
X128412257Y-116706917D02*
X128340828Y-116564060D01*
X128340828Y-116564060D02*
X128340828Y-116278345D01*
X128340828Y-116278345D02*
X128412257Y-116135488D01*
X128412257Y-116135488D02*
X128555114Y-116064060D01*
X128555114Y-116064060D02*
X128697971Y-116064060D01*
X128697971Y-116064060D02*
X128840828Y-116778345D01*
X129340828Y-114778346D02*
X127840828Y-114778346D01*
X129269400Y-114778346D02*
X129340828Y-114921203D01*
X129340828Y-114921203D02*
X129340828Y-115206917D01*
X129340828Y-115206917D02*
X129269400Y-115349774D01*
X129269400Y-115349774D02*
X129197971Y-115421203D01*
X129197971Y-115421203D02*
X129055114Y-115492631D01*
X129055114Y-115492631D02*
X128626542Y-115492631D01*
X128626542Y-115492631D02*
X128483685Y-115421203D01*
X128483685Y-115421203D02*
X128412257Y-115349774D01*
X128412257Y-115349774D02*
X128340828Y-115206917D01*
X128340828Y-115206917D02*
X128340828Y-114921203D01*
X128340828Y-114921203D02*
X128412257Y-114778346D01*
X128555114Y-112421203D02*
X128626542Y-112206917D01*
X128626542Y-112206917D02*
X128697971Y-112135488D01*
X128697971Y-112135488D02*
X128840828Y-112064060D01*
X128840828Y-112064060D02*
X129055114Y-112064060D01*
X129055114Y-112064060D02*
X129197971Y-112135488D01*
X129197971Y-112135488D02*
X129269400Y-112206917D01*
X129269400Y-112206917D02*
X129340828Y-112349774D01*
X129340828Y-112349774D02*
X129340828Y-112921203D01*
X129340828Y-112921203D02*
X127840828Y-112921203D01*
X127840828Y-112921203D02*
X127840828Y-112421203D01*
X127840828Y-112421203D02*
X127912257Y-112278346D01*
X127912257Y-112278346D02*
X127983685Y-112206917D01*
X127983685Y-112206917D02*
X128126542Y-112135488D01*
X128126542Y-112135488D02*
X128269400Y-112135488D01*
X128269400Y-112135488D02*
X128412257Y-112206917D01*
X128412257Y-112206917D02*
X128483685Y-112278346D01*
X128483685Y-112278346D02*
X128555114Y-112421203D01*
X128555114Y-112421203D02*
X128555114Y-112921203D01*
X129340828Y-111421203D02*
X128340828Y-111421203D01*
X128626542Y-111421203D02*
X128483685Y-111349774D01*
X128483685Y-111349774D02*
X128412257Y-111278346D01*
X128412257Y-111278346D02*
X128340828Y-111135488D01*
X128340828Y-111135488D02*
X128340828Y-110992631D01*
X129269400Y-109921203D02*
X129340828Y-110064060D01*
X129340828Y-110064060D02*
X129340828Y-110349775D01*
X129340828Y-110349775D02*
X129269400Y-110492632D01*
X129269400Y-110492632D02*
X129126542Y-110564060D01*
X129126542Y-110564060D02*
X128555114Y-110564060D01*
X128555114Y-110564060D02*
X128412257Y-110492632D01*
X128412257Y-110492632D02*
X128340828Y-110349775D01*
X128340828Y-110349775D02*
X128340828Y-110064060D01*
X128340828Y-110064060D02*
X128412257Y-109921203D01*
X128412257Y-109921203D02*
X128555114Y-109849775D01*
X128555114Y-109849775D02*
X128697971Y-109849775D01*
X128697971Y-109849775D02*
X128840828Y-110564060D01*
X129340828Y-108564061D02*
X128555114Y-108564061D01*
X128555114Y-108564061D02*
X128412257Y-108635489D01*
X128412257Y-108635489D02*
X128340828Y-108778346D01*
X128340828Y-108778346D02*
X128340828Y-109064061D01*
X128340828Y-109064061D02*
X128412257Y-109206918D01*
X129269400Y-108564061D02*
X129340828Y-108706918D01*
X129340828Y-108706918D02*
X129340828Y-109064061D01*
X129340828Y-109064061D02*
X129269400Y-109206918D01*
X129269400Y-109206918D02*
X129126542Y-109278346D01*
X129126542Y-109278346D02*
X128983685Y-109278346D01*
X128983685Y-109278346D02*
X128840828Y-109206918D01*
X128840828Y-109206918D02*
X128769400Y-109064061D01*
X128769400Y-109064061D02*
X128769400Y-108706918D01*
X128769400Y-108706918D02*
X128697971Y-108564061D01*
X129340828Y-107206918D02*
X127840828Y-107206918D01*
X129269400Y-107206918D02*
X129340828Y-107349775D01*
X129340828Y-107349775D02*
X129340828Y-107635489D01*
X129340828Y-107635489D02*
X129269400Y-107778346D01*
X129269400Y-107778346D02*
X129197971Y-107849775D01*
X129197971Y-107849775D02*
X129055114Y-107921203D01*
X129055114Y-107921203D02*
X128626542Y-107921203D01*
X128626542Y-107921203D02*
X128483685Y-107849775D01*
X128483685Y-107849775D02*
X128412257Y-107778346D01*
X128412257Y-107778346D02*
X128340828Y-107635489D01*
X128340828Y-107635489D02*
X128340828Y-107349775D01*
X128340828Y-107349775D02*
X128412257Y-107206918D01*
X129340828Y-106492632D02*
X127840828Y-106492632D01*
X128412257Y-106492632D02*
X128340828Y-106349775D01*
X128340828Y-106349775D02*
X128340828Y-106064060D01*
X128340828Y-106064060D02*
X128412257Y-105921203D01*
X128412257Y-105921203D02*
X128483685Y-105849775D01*
X128483685Y-105849775D02*
X128626542Y-105778346D01*
X128626542Y-105778346D02*
X129055114Y-105778346D01*
X129055114Y-105778346D02*
X129197971Y-105849775D01*
X129197971Y-105849775D02*
X129269400Y-105921203D01*
X129269400Y-105921203D02*
X129340828Y-106064060D01*
X129340828Y-106064060D02*
X129340828Y-106349775D01*
X129340828Y-106349775D02*
X129269400Y-106492632D01*
X129340828Y-104921203D02*
X129269400Y-105064060D01*
X129269400Y-105064060D02*
X129197971Y-105135489D01*
X129197971Y-105135489D02*
X129055114Y-105206917D01*
X129055114Y-105206917D02*
X128626542Y-105206917D01*
X128626542Y-105206917D02*
X128483685Y-105135489D01*
X128483685Y-105135489D02*
X128412257Y-105064060D01*
X128412257Y-105064060D02*
X128340828Y-104921203D01*
X128340828Y-104921203D02*
X128340828Y-104706917D01*
X128340828Y-104706917D02*
X128412257Y-104564060D01*
X128412257Y-104564060D02*
X128483685Y-104492632D01*
X128483685Y-104492632D02*
X128626542Y-104421203D01*
X128626542Y-104421203D02*
X129055114Y-104421203D01*
X129055114Y-104421203D02*
X129197971Y-104492632D01*
X129197971Y-104492632D02*
X129269400Y-104564060D01*
X129269400Y-104564060D02*
X129340828Y-104706917D01*
X129340828Y-104706917D02*
X129340828Y-104921203D01*
X129340828Y-103135489D02*
X128555114Y-103135489D01*
X128555114Y-103135489D02*
X128412257Y-103206917D01*
X128412257Y-103206917D02*
X128340828Y-103349774D01*
X128340828Y-103349774D02*
X128340828Y-103635489D01*
X128340828Y-103635489D02*
X128412257Y-103778346D01*
X129269400Y-103135489D02*
X129340828Y-103278346D01*
X129340828Y-103278346D02*
X129340828Y-103635489D01*
X129340828Y-103635489D02*
X129269400Y-103778346D01*
X129269400Y-103778346D02*
X129126542Y-103849774D01*
X129126542Y-103849774D02*
X128983685Y-103849774D01*
X128983685Y-103849774D02*
X128840828Y-103778346D01*
X128840828Y-103778346D02*
X128769400Y-103635489D01*
X128769400Y-103635489D02*
X128769400Y-103278346D01*
X128769400Y-103278346D02*
X128697971Y-103135489D01*
X129340828Y-102421203D02*
X128340828Y-102421203D01*
X128626542Y-102421203D02*
X128483685Y-102349774D01*
X128483685Y-102349774D02*
X128412257Y-102278346D01*
X128412257Y-102278346D02*
X128340828Y-102135488D01*
X128340828Y-102135488D02*
X128340828Y-101992631D01*
X129340828Y-100849775D02*
X127840828Y-100849775D01*
X129269400Y-100849775D02*
X129340828Y-100992632D01*
X129340828Y-100992632D02*
X129340828Y-101278346D01*
X129340828Y-101278346D02*
X129269400Y-101421203D01*
X129269400Y-101421203D02*
X129197971Y-101492632D01*
X129197971Y-101492632D02*
X129055114Y-101564060D01*
X129055114Y-101564060D02*
X128626542Y-101564060D01*
X128626542Y-101564060D02*
X128483685Y-101492632D01*
X128483685Y-101492632D02*
X128412257Y-101421203D01*
X128412257Y-101421203D02*
X128340828Y-101278346D01*
X128340828Y-101278346D02*
X128340828Y-100992632D01*
X128340828Y-100992632D02*
X128412257Y-100849775D01*
X127769400Y-99064060D02*
X129697971Y-100349774D01*
X127840828Y-98135488D02*
X128912257Y-98135488D01*
X128912257Y-98135488D02*
X129126542Y-98206917D01*
X129126542Y-98206917D02*
X129269400Y-98349774D01*
X129269400Y-98349774D02*
X129340828Y-98564060D01*
X129340828Y-98564060D02*
X129340828Y-98706917D01*
X129340828Y-97206917D02*
X129269400Y-97349774D01*
X129269400Y-97349774D02*
X129197971Y-97421203D01*
X129197971Y-97421203D02*
X129055114Y-97492631D01*
X129055114Y-97492631D02*
X128626542Y-97492631D01*
X128626542Y-97492631D02*
X128483685Y-97421203D01*
X128483685Y-97421203D02*
X128412257Y-97349774D01*
X128412257Y-97349774D02*
X128340828Y-97206917D01*
X128340828Y-97206917D02*
X128340828Y-96992631D01*
X128340828Y-96992631D02*
X128412257Y-96849774D01*
X128412257Y-96849774D02*
X128483685Y-96778346D01*
X128483685Y-96778346D02*
X128626542Y-96706917D01*
X128626542Y-96706917D02*
X129055114Y-96706917D01*
X129055114Y-96706917D02*
X129197971Y-96778346D01*
X129197971Y-96778346D02*
X129269400Y-96849774D01*
X129269400Y-96849774D02*
X129340828Y-96992631D01*
X129340828Y-96992631D02*
X129340828Y-97206917D01*
X129340828Y-96064060D02*
X127840828Y-96064060D01*
X129340828Y-95421203D02*
X128555114Y-95421203D01*
X128555114Y-95421203D02*
X128412257Y-95492631D01*
X128412257Y-95492631D02*
X128340828Y-95635488D01*
X128340828Y-95635488D02*
X128340828Y-95849774D01*
X128340828Y-95849774D02*
X128412257Y-95992631D01*
X128412257Y-95992631D02*
X128483685Y-96064060D01*
X128340828Y-94706917D02*
X129340828Y-94706917D01*
X128483685Y-94706917D02*
X128412257Y-94635488D01*
X128412257Y-94635488D02*
X128340828Y-94492631D01*
X128340828Y-94492631D02*
X128340828Y-94278345D01*
X128340828Y-94278345D02*
X128412257Y-94135488D01*
X128412257Y-94135488D02*
X128555114Y-94064060D01*
X128555114Y-94064060D02*
X129340828Y-94064060D01*
X128555114Y-91706917D02*
X128626542Y-91492631D01*
X128626542Y-91492631D02*
X128697971Y-91421202D01*
X128697971Y-91421202D02*
X128840828Y-91349774D01*
X128840828Y-91349774D02*
X129055114Y-91349774D01*
X129055114Y-91349774D02*
X129197971Y-91421202D01*
X129197971Y-91421202D02*
X129269400Y-91492631D01*
X129269400Y-91492631D02*
X129340828Y-91635488D01*
X129340828Y-91635488D02*
X129340828Y-92206917D01*
X129340828Y-92206917D02*
X127840828Y-92206917D01*
X127840828Y-92206917D02*
X127840828Y-91706917D01*
X127840828Y-91706917D02*
X127912257Y-91564060D01*
X127912257Y-91564060D02*
X127983685Y-91492631D01*
X127983685Y-91492631D02*
X128126542Y-91421202D01*
X128126542Y-91421202D02*
X128269400Y-91421202D01*
X128269400Y-91421202D02*
X128412257Y-91492631D01*
X128412257Y-91492631D02*
X128483685Y-91564060D01*
X128483685Y-91564060D02*
X128555114Y-91706917D01*
X128555114Y-91706917D02*
X128555114Y-92206917D01*
X129340828Y-90706917D02*
X128340828Y-90706917D01*
X128626542Y-90706917D02*
X128483685Y-90635488D01*
X128483685Y-90635488D02*
X128412257Y-90564060D01*
X128412257Y-90564060D02*
X128340828Y-90421202D01*
X128340828Y-90421202D02*
X128340828Y-90278345D01*
X129340828Y-89135489D02*
X128555114Y-89135489D01*
X128555114Y-89135489D02*
X128412257Y-89206917D01*
X128412257Y-89206917D02*
X128340828Y-89349774D01*
X128340828Y-89349774D02*
X128340828Y-89635489D01*
X128340828Y-89635489D02*
X128412257Y-89778346D01*
X129269400Y-89135489D02*
X129340828Y-89278346D01*
X129340828Y-89278346D02*
X129340828Y-89635489D01*
X129340828Y-89635489D02*
X129269400Y-89778346D01*
X129269400Y-89778346D02*
X129126542Y-89849774D01*
X129126542Y-89849774D02*
X128983685Y-89849774D01*
X128983685Y-89849774D02*
X128840828Y-89778346D01*
X128840828Y-89778346D02*
X128769400Y-89635489D01*
X128769400Y-89635489D02*
X128769400Y-89278346D01*
X128769400Y-89278346D02*
X128697971Y-89135489D01*
X129340828Y-87778346D02*
X127840828Y-87778346D01*
X129269400Y-87778346D02*
X129340828Y-87921203D01*
X129340828Y-87921203D02*
X129340828Y-88206917D01*
X129340828Y-88206917D02*
X129269400Y-88349774D01*
X129269400Y-88349774D02*
X129197971Y-88421203D01*
X129197971Y-88421203D02*
X129055114Y-88492631D01*
X129055114Y-88492631D02*
X128626542Y-88492631D01*
X128626542Y-88492631D02*
X128483685Y-88421203D01*
X128483685Y-88421203D02*
X128412257Y-88349774D01*
X128412257Y-88349774D02*
X128340828Y-88206917D01*
X128340828Y-88206917D02*
X128340828Y-87921203D01*
X128340828Y-87921203D02*
X128412257Y-87778346D01*
X129340828Y-86849774D02*
X129269400Y-86992631D01*
X129269400Y-86992631D02*
X129126542Y-87064060D01*
X129126542Y-87064060D02*
X127840828Y-87064060D01*
X129269400Y-85706917D02*
X129340828Y-85849774D01*
X129340828Y-85849774D02*
X129340828Y-86135489D01*
X129340828Y-86135489D02*
X129269400Y-86278346D01*
X129269400Y-86278346D02*
X129126542Y-86349774D01*
X129126542Y-86349774D02*
X128555114Y-86349774D01*
X128555114Y-86349774D02*
X128412257Y-86278346D01*
X128412257Y-86278346D02*
X128340828Y-86135489D01*
X128340828Y-86135489D02*
X128340828Y-85849774D01*
X128340828Y-85849774D02*
X128412257Y-85706917D01*
X128412257Y-85706917D02*
X128555114Y-85635489D01*
X128555114Y-85635489D02*
X128697971Y-85635489D01*
X128697971Y-85635489D02*
X128840828Y-86349774D01*
X128340828Y-85135489D02*
X129340828Y-84778346D01*
X128340828Y-84421203D02*
X129340828Y-84778346D01*
X129340828Y-84778346D02*
X129697971Y-84921203D01*
X129697971Y-84921203D02*
X129769400Y-84992632D01*
X129769400Y-84992632D02*
X129840828Y-85135489D01*
X145256190Y-38279638D02*
X144303809Y-38279638D01*
X144303809Y-38279638D02*
X144208571Y-39232019D01*
X144208571Y-39232019D02*
X144303809Y-39136780D01*
X144303809Y-39136780D02*
X144494285Y-39041542D01*
X144494285Y-39041542D02*
X144970476Y-39041542D01*
X144970476Y-39041542D02*
X145160952Y-39136780D01*
X145160952Y-39136780D02*
X145256190Y-39232019D01*
X145256190Y-39232019D02*
X145351428Y-39422495D01*
X145351428Y-39422495D02*
X145351428Y-39898685D01*
X145351428Y-39898685D02*
X145256190Y-40089161D01*
X145256190Y-40089161D02*
X145160952Y-40184400D01*
X145160952Y-40184400D02*
X144970476Y-40279638D01*
X144970476Y-40279638D02*
X144494285Y-40279638D01*
X144494285Y-40279638D02*
X144303809Y-40184400D01*
X144303809Y-40184400D02*
X144208571Y-40089161D01*
X103378095Y-189477733D02*
X104901905Y-189477733D01*
X104140000Y-190239638D02*
X104140000Y-188715828D01*
X112236190Y-38279638D02*
X111283809Y-38279638D01*
X111283809Y-38279638D02*
X111188571Y-39232019D01*
X111188571Y-39232019D02*
X111283809Y-39136780D01*
X111283809Y-39136780D02*
X111474285Y-39041542D01*
X111474285Y-39041542D02*
X111950476Y-39041542D01*
X111950476Y-39041542D02*
X112140952Y-39136780D01*
X112140952Y-39136780D02*
X112236190Y-39232019D01*
X112236190Y-39232019D02*
X112331428Y-39422495D01*
X112331428Y-39422495D02*
X112331428Y-39898685D01*
X112331428Y-39898685D02*
X112236190Y-40089161D01*
X112236190Y-40089161D02*
X112140952Y-40184400D01*
X112140952Y-40184400D02*
X111950476Y-40279638D01*
X111950476Y-40279638D02*
X111474285Y-40279638D01*
X111474285Y-40279638D02*
X111283809Y-40184400D01*
X111283809Y-40184400D02*
X111188571Y-40089161D01*
D11*
X119689523Y-191544580D02*
X119641904Y-191592200D01*
X119641904Y-191592200D02*
X119499047Y-191639819D01*
X119499047Y-191639819D02*
X119403809Y-191639819D01*
X119403809Y-191639819D02*
X119260952Y-191592200D01*
X119260952Y-191592200D02*
X119165714Y-191496961D01*
X119165714Y-191496961D02*
X119118095Y-191401723D01*
X119118095Y-191401723D02*
X119070476Y-191211247D01*
X119070476Y-191211247D02*
X119070476Y-191068390D01*
X119070476Y-191068390D02*
X119118095Y-190877914D01*
X119118095Y-190877914D02*
X119165714Y-190782676D01*
X119165714Y-190782676D02*
X119260952Y-190687438D01*
X119260952Y-190687438D02*
X119403809Y-190639819D01*
X119403809Y-190639819D02*
X119499047Y-190639819D01*
X119499047Y-190639819D02*
X119641904Y-190687438D01*
X119641904Y-190687438D02*
X119689523Y-190735057D01*
D10*
X108966190Y-89270114D02*
X109061428Y-89174876D01*
X109061428Y-89174876D02*
X109251904Y-89079638D01*
X109251904Y-89079638D02*
X109728095Y-89079638D01*
X109728095Y-89079638D02*
X109918571Y-89174876D01*
X109918571Y-89174876D02*
X110013809Y-89270114D01*
X110013809Y-89270114D02*
X110109047Y-89460590D01*
X110109047Y-89460590D02*
X110109047Y-89651066D01*
X110109047Y-89651066D02*
X110013809Y-89936780D01*
X110013809Y-89936780D02*
X108870952Y-91079638D01*
X108870952Y-91079638D02*
X110109047Y-91079638D01*
X111918571Y-89079638D02*
X110966190Y-89079638D01*
X110966190Y-89079638D02*
X110870952Y-90032019D01*
X110870952Y-90032019D02*
X110966190Y-89936780D01*
X110966190Y-89936780D02*
X111156666Y-89841542D01*
X111156666Y-89841542D02*
X111632857Y-89841542D01*
X111632857Y-89841542D02*
X111823333Y-89936780D01*
X111823333Y-89936780D02*
X111918571Y-90032019D01*
X111918571Y-90032019D02*
X112013809Y-90222495D01*
X112013809Y-90222495D02*
X112013809Y-90698685D01*
X112013809Y-90698685D02*
X111918571Y-90889161D01*
X111918571Y-90889161D02*
X111823333Y-90984400D01*
X111823333Y-90984400D02*
X111632857Y-91079638D01*
X111632857Y-91079638D02*
X111156666Y-91079638D01*
X111156666Y-91079638D02*
X110966190Y-90984400D01*
X110966190Y-90984400D02*
X110870952Y-90889161D01*
X151698095Y-136077733D02*
X153221905Y-136077733D01*
X103378095Y-82737733D02*
X104901905Y-82737733D01*
X104140000Y-83499638D02*
X104140000Y-81975828D01*
D11*
X114061905Y-191354104D02*
X114538095Y-191354104D01*
X113966667Y-191639819D02*
X114300000Y-190639819D01*
X114300000Y-190639819D02*
X114633333Y-191639819D01*
D10*
X144430952Y-114479638D02*
X145669047Y-114479638D01*
X145669047Y-114479638D02*
X145002380Y-115241542D01*
X145002380Y-115241542D02*
X145288095Y-115241542D01*
X145288095Y-115241542D02*
X145478571Y-115336780D01*
X145478571Y-115336780D02*
X145573809Y-115432019D01*
X145573809Y-115432019D02*
X145669047Y-115622495D01*
X145669047Y-115622495D02*
X145669047Y-116098685D01*
X145669047Y-116098685D02*
X145573809Y-116289161D01*
X145573809Y-116289161D02*
X145478571Y-116384400D01*
X145478571Y-116384400D02*
X145288095Y-116479638D01*
X145288095Y-116479638D02*
X144716666Y-116479638D01*
X144716666Y-116479638D02*
X144526190Y-116384400D01*
X144526190Y-116384400D02*
X144430952Y-116289161D01*
X147478571Y-114479638D02*
X146526190Y-114479638D01*
X146526190Y-114479638D02*
X146430952Y-115432019D01*
X146430952Y-115432019D02*
X146526190Y-115336780D01*
X146526190Y-115336780D02*
X146716666Y-115241542D01*
X146716666Y-115241542D02*
X147192857Y-115241542D01*
X147192857Y-115241542D02*
X147383333Y-115336780D01*
X147383333Y-115336780D02*
X147478571Y-115432019D01*
X147478571Y-115432019D02*
X147573809Y-115622495D01*
X147573809Y-115622495D02*
X147573809Y-116098685D01*
X147573809Y-116098685D02*
X147478571Y-116289161D01*
X147478571Y-116289161D02*
X147383333Y-116384400D01*
X147383333Y-116384400D02*
X147192857Y-116479638D01*
X147192857Y-116479638D02*
X146716666Y-116479638D01*
X146716666Y-116479638D02*
X146526190Y-116384400D01*
X146526190Y-116384400D02*
X146430952Y-116289161D01*
D11*
X134881904Y-26857438D02*
X134786666Y-26809819D01*
X134786666Y-26809819D02*
X134643809Y-26809819D01*
X134643809Y-26809819D02*
X134500952Y-26857438D01*
X134500952Y-26857438D02*
X134405714Y-26952676D01*
X134405714Y-26952676D02*
X134358095Y-27047914D01*
X134358095Y-27047914D02*
X134310476Y-27238390D01*
X134310476Y-27238390D02*
X134310476Y-27381247D01*
X134310476Y-27381247D02*
X134358095Y-27571723D01*
X134358095Y-27571723D02*
X134405714Y-27666961D01*
X134405714Y-27666961D02*
X134500952Y-27762200D01*
X134500952Y-27762200D02*
X134643809Y-27809819D01*
X134643809Y-27809819D02*
X134739047Y-27809819D01*
X134739047Y-27809819D02*
X134881904Y-27762200D01*
X134881904Y-27762200D02*
X134929523Y-27714580D01*
X134929523Y-27714580D02*
X134929523Y-27381247D01*
X134929523Y-27381247D02*
X134739047Y-27381247D01*
D10*
X149098095Y-136077733D02*
X150621905Y-136077733D01*
X149860000Y-136839638D02*
X149860000Y-135315828D01*
X149098095Y-82737733D02*
X150621905Y-82737733D01*
X149860000Y-83499638D02*
X149860000Y-81975828D01*
D11*
X132222857Y-27286009D02*
X131889524Y-27286009D01*
X131889524Y-27809819D02*
X131889524Y-26809819D01*
X131889524Y-26809819D02*
X132365714Y-26809819D01*
X132222857Y-191116009D02*
X131889524Y-191116009D01*
X131889524Y-191639819D02*
X131889524Y-190639819D01*
X131889524Y-190639819D02*
X132365714Y-190639819D01*
D10*
X144526190Y-76570114D02*
X144621428Y-76474876D01*
X144621428Y-76474876D02*
X144811904Y-76379638D01*
X144811904Y-76379638D02*
X145288095Y-76379638D01*
X145288095Y-76379638D02*
X145478571Y-76474876D01*
X145478571Y-76474876D02*
X145573809Y-76570114D01*
X145573809Y-76570114D02*
X145669047Y-76760590D01*
X145669047Y-76760590D02*
X145669047Y-76951066D01*
X145669047Y-76951066D02*
X145573809Y-77236780D01*
X145573809Y-77236780D02*
X144430952Y-78379638D01*
X144430952Y-78379638D02*
X145669047Y-78379638D01*
X146907142Y-76379638D02*
X147097619Y-76379638D01*
X147097619Y-76379638D02*
X147288095Y-76474876D01*
X147288095Y-76474876D02*
X147383333Y-76570114D01*
X147383333Y-76570114D02*
X147478571Y-76760590D01*
X147478571Y-76760590D02*
X147573809Y-77141542D01*
X147573809Y-77141542D02*
X147573809Y-77617733D01*
X147573809Y-77617733D02*
X147478571Y-77998685D01*
X147478571Y-77998685D02*
X147383333Y-78189161D01*
X147383333Y-78189161D02*
X147288095Y-78284400D01*
X147288095Y-78284400D02*
X147097619Y-78379638D01*
X147097619Y-78379638D02*
X146907142Y-78379638D01*
X146907142Y-78379638D02*
X146716666Y-78284400D01*
X146716666Y-78284400D02*
X146621428Y-78189161D01*
X146621428Y-78189161D02*
X146526190Y-77998685D01*
X146526190Y-77998685D02*
X146430952Y-77617733D01*
X146430952Y-77617733D02*
X146430952Y-77141542D01*
X146430952Y-77141542D02*
X146526190Y-76760590D01*
X146526190Y-76760590D02*
X146621428Y-76570114D01*
X146621428Y-76570114D02*
X146716666Y-76474876D01*
X146716666Y-76474876D02*
X146907142Y-76379638D01*
X145573809Y-152579638D02*
X144621428Y-152579638D01*
X144621428Y-152579638D02*
X144526190Y-153532019D01*
X144526190Y-153532019D02*
X144621428Y-153436780D01*
X144621428Y-153436780D02*
X144811904Y-153341542D01*
X144811904Y-153341542D02*
X145288095Y-153341542D01*
X145288095Y-153341542D02*
X145478571Y-153436780D01*
X145478571Y-153436780D02*
X145573809Y-153532019D01*
X145573809Y-153532019D02*
X145669047Y-153722495D01*
X145669047Y-153722495D02*
X145669047Y-154198685D01*
X145669047Y-154198685D02*
X145573809Y-154389161D01*
X145573809Y-154389161D02*
X145478571Y-154484400D01*
X145478571Y-154484400D02*
X145288095Y-154579638D01*
X145288095Y-154579638D02*
X144811904Y-154579638D01*
X144811904Y-154579638D02*
X144621428Y-154484400D01*
X144621428Y-154484400D02*
X144526190Y-154389161D01*
X146907142Y-152579638D02*
X147097619Y-152579638D01*
X147097619Y-152579638D02*
X147288095Y-152674876D01*
X147288095Y-152674876D02*
X147383333Y-152770114D01*
X147383333Y-152770114D02*
X147478571Y-152960590D01*
X147478571Y-152960590D02*
X147573809Y-153341542D01*
X147573809Y-153341542D02*
X147573809Y-153817733D01*
X147573809Y-153817733D02*
X147478571Y-154198685D01*
X147478571Y-154198685D02*
X147383333Y-154389161D01*
X147383333Y-154389161D02*
X147288095Y-154484400D01*
X147288095Y-154484400D02*
X147097619Y-154579638D01*
X147097619Y-154579638D02*
X146907142Y-154579638D01*
X146907142Y-154579638D02*
X146716666Y-154484400D01*
X146716666Y-154484400D02*
X146621428Y-154389161D01*
X146621428Y-154389161D02*
X146526190Y-154198685D01*
X146526190Y-154198685D02*
X146430952Y-153817733D01*
X146430952Y-153817733D02*
X146430952Y-153341542D01*
X146430952Y-153341542D02*
X146526190Y-152960590D01*
X146526190Y-152960590D02*
X146621428Y-152770114D01*
X146621428Y-152770114D02*
X146716666Y-152674876D01*
X146716666Y-152674876D02*
X146907142Y-152579638D01*
D11*
X142382857Y-190639819D02*
X142382857Y-191354104D01*
X142382857Y-191354104D02*
X142335238Y-191496961D01*
X142335238Y-191496961D02*
X142240000Y-191592200D01*
X142240000Y-191592200D02*
X142097143Y-191639819D01*
X142097143Y-191639819D02*
X142001905Y-191639819D01*
D10*
X110013809Y-165279638D02*
X109061428Y-165279638D01*
X109061428Y-165279638D02*
X108966190Y-166232019D01*
X108966190Y-166232019D02*
X109061428Y-166136780D01*
X109061428Y-166136780D02*
X109251904Y-166041542D01*
X109251904Y-166041542D02*
X109728095Y-166041542D01*
X109728095Y-166041542D02*
X109918571Y-166136780D01*
X109918571Y-166136780D02*
X110013809Y-166232019D01*
X110013809Y-166232019D02*
X110109047Y-166422495D01*
X110109047Y-166422495D02*
X110109047Y-166898685D01*
X110109047Y-166898685D02*
X110013809Y-167089161D01*
X110013809Y-167089161D02*
X109918571Y-167184400D01*
X109918571Y-167184400D02*
X109728095Y-167279638D01*
X109728095Y-167279638D02*
X109251904Y-167279638D01*
X109251904Y-167279638D02*
X109061428Y-167184400D01*
X109061428Y-167184400D02*
X108966190Y-167089161D01*
X111918571Y-165279638D02*
X110966190Y-165279638D01*
X110966190Y-165279638D02*
X110870952Y-166232019D01*
X110870952Y-166232019D02*
X110966190Y-166136780D01*
X110966190Y-166136780D02*
X111156666Y-166041542D01*
X111156666Y-166041542D02*
X111632857Y-166041542D01*
X111632857Y-166041542D02*
X111823333Y-166136780D01*
X111823333Y-166136780D02*
X111918571Y-166232019D01*
X111918571Y-166232019D02*
X112013809Y-166422495D01*
X112013809Y-166422495D02*
X112013809Y-166898685D01*
X112013809Y-166898685D02*
X111918571Y-167089161D01*
X111918571Y-167089161D02*
X111823333Y-167184400D01*
X111823333Y-167184400D02*
X111632857Y-167279638D01*
X111632857Y-167279638D02*
X111156666Y-167279638D01*
X111156666Y-167279638D02*
X110966190Y-167184400D01*
X110966190Y-167184400D02*
X110870952Y-167089161D01*
X103378095Y-28187733D02*
X104901905Y-28187733D01*
X104140000Y-28949638D02*
X104140000Y-27425828D01*
X145478571Y-140546304D02*
X145478571Y-141879638D01*
X145002380Y-139784400D02*
X144526190Y-141212971D01*
X144526190Y-141212971D02*
X145764285Y-141212971D01*
X147478571Y-139879638D02*
X146526190Y-139879638D01*
X146526190Y-139879638D02*
X146430952Y-140832019D01*
X146430952Y-140832019D02*
X146526190Y-140736780D01*
X146526190Y-140736780D02*
X146716666Y-140641542D01*
X146716666Y-140641542D02*
X147192857Y-140641542D01*
X147192857Y-140641542D02*
X147383333Y-140736780D01*
X147383333Y-140736780D02*
X147478571Y-140832019D01*
X147478571Y-140832019D02*
X147573809Y-141022495D01*
X147573809Y-141022495D02*
X147573809Y-141498685D01*
X147573809Y-141498685D02*
X147478571Y-141689161D01*
X147478571Y-141689161D02*
X147383333Y-141784400D01*
X147383333Y-141784400D02*
X147192857Y-141879638D01*
X147192857Y-141879638D02*
X146716666Y-141879638D01*
X146716666Y-141879638D02*
X146526190Y-141784400D01*
X146526190Y-141784400D02*
X146430952Y-141689161D01*
X103378095Y-136077733D02*
X104901905Y-136077733D01*
X104140000Y-136839638D02*
X104140000Y-135315828D01*
X105918095Y-189477733D02*
X107441905Y-189477733D01*
D11*
X124245714Y-191116009D02*
X124579047Y-191116009D01*
X124721904Y-191639819D02*
X124245714Y-191639819D01*
X124245714Y-191639819D02*
X124245714Y-190639819D01*
X124245714Y-190639819D02*
X124721904Y-190639819D01*
D10*
X105948095Y-136077733D02*
X107471905Y-136077733D01*
D11*
X114061905Y-27524104D02*
X114538095Y-27524104D01*
X113966667Y-27809819D02*
X114300000Y-26809819D01*
X114300000Y-26809819D02*
X114633333Y-27809819D01*
X121658095Y-27809819D02*
X121658095Y-26809819D01*
X121658095Y-26809819D02*
X121896190Y-26809819D01*
X121896190Y-26809819D02*
X122039047Y-26857438D01*
X122039047Y-26857438D02*
X122134285Y-26952676D01*
X122134285Y-26952676D02*
X122181904Y-27047914D01*
X122181904Y-27047914D02*
X122229523Y-27238390D01*
X122229523Y-27238390D02*
X122229523Y-27381247D01*
X122229523Y-27381247D02*
X122181904Y-27571723D01*
X122181904Y-27571723D02*
X122134285Y-27666961D01*
X122134285Y-27666961D02*
X122039047Y-27762200D01*
X122039047Y-27762200D02*
X121896190Y-27809819D01*
X121896190Y-27809819D02*
X121658095Y-27809819D01*
D10*
X144526190Y-89270114D02*
X144621428Y-89174876D01*
X144621428Y-89174876D02*
X144811904Y-89079638D01*
X144811904Y-89079638D02*
X145288095Y-89079638D01*
X145288095Y-89079638D02*
X145478571Y-89174876D01*
X145478571Y-89174876D02*
X145573809Y-89270114D01*
X145573809Y-89270114D02*
X145669047Y-89460590D01*
X145669047Y-89460590D02*
X145669047Y-89651066D01*
X145669047Y-89651066D02*
X145573809Y-89936780D01*
X145573809Y-89936780D02*
X144430952Y-91079638D01*
X144430952Y-91079638D02*
X145669047Y-91079638D01*
X147478571Y-89079638D02*
X146526190Y-89079638D01*
X146526190Y-89079638D02*
X146430952Y-90032019D01*
X146430952Y-90032019D02*
X146526190Y-89936780D01*
X146526190Y-89936780D02*
X146716666Y-89841542D01*
X146716666Y-89841542D02*
X147192857Y-89841542D01*
X147192857Y-89841542D02*
X147383333Y-89936780D01*
X147383333Y-89936780D02*
X147478571Y-90032019D01*
X147478571Y-90032019D02*
X147573809Y-90222495D01*
X147573809Y-90222495D02*
X147573809Y-90698685D01*
X147573809Y-90698685D02*
X147478571Y-90889161D01*
X147478571Y-90889161D02*
X147383333Y-90984400D01*
X147383333Y-90984400D02*
X147192857Y-91079638D01*
X147192857Y-91079638D02*
X146716666Y-91079638D01*
X146716666Y-91079638D02*
X146526190Y-90984400D01*
X146526190Y-90984400D02*
X146430952Y-90889161D01*
X144684761Y-28119638D02*
X144875238Y-28119638D01*
X144875238Y-28119638D02*
X145065714Y-28214876D01*
X145065714Y-28214876D02*
X145160952Y-28310114D01*
X145160952Y-28310114D02*
X145256190Y-28500590D01*
X145256190Y-28500590D02*
X145351428Y-28881542D01*
X145351428Y-28881542D02*
X145351428Y-29357733D01*
X145351428Y-29357733D02*
X145256190Y-29738685D01*
X145256190Y-29738685D02*
X145160952Y-29929161D01*
X145160952Y-29929161D02*
X145065714Y-30024400D01*
X145065714Y-30024400D02*
X144875238Y-30119638D01*
X144875238Y-30119638D02*
X144684761Y-30119638D01*
X144684761Y-30119638D02*
X144494285Y-30024400D01*
X144494285Y-30024400D02*
X144399047Y-29929161D01*
X144399047Y-29929161D02*
X144303809Y-29738685D01*
X144303809Y-29738685D02*
X144208571Y-29357733D01*
X144208571Y-29357733D02*
X144208571Y-28881542D01*
X144208571Y-28881542D02*
X144303809Y-28500590D01*
X144303809Y-28500590D02*
X144399047Y-28310114D01*
X144399047Y-28310114D02*
X144494285Y-28214876D01*
X144494285Y-28214876D02*
X144684761Y-28119638D01*
D11*
X116911428Y-191116009D02*
X117054285Y-191163628D01*
X117054285Y-191163628D02*
X117101904Y-191211247D01*
X117101904Y-191211247D02*
X117149523Y-191306485D01*
X117149523Y-191306485D02*
X117149523Y-191449342D01*
X117149523Y-191449342D02*
X117101904Y-191544580D01*
X117101904Y-191544580D02*
X117054285Y-191592200D01*
X117054285Y-191592200D02*
X116959047Y-191639819D01*
X116959047Y-191639819D02*
X116578095Y-191639819D01*
X116578095Y-191639819D02*
X116578095Y-190639819D01*
X116578095Y-190639819D02*
X116911428Y-190639819D01*
X116911428Y-190639819D02*
X117006666Y-190687438D01*
X117006666Y-190687438D02*
X117054285Y-190735057D01*
X117054285Y-190735057D02*
X117101904Y-190830295D01*
X117101904Y-190830295D02*
X117101904Y-190925533D01*
X117101904Y-190925533D02*
X117054285Y-191020771D01*
X117054285Y-191020771D02*
X117006666Y-191068390D01*
X117006666Y-191068390D02*
X116911428Y-191116009D01*
X116911428Y-191116009D02*
X116578095Y-191116009D01*
D10*
X151638095Y-189477733D02*
X153161905Y-189477733D01*
X151668095Y-82737733D02*
X153191905Y-82737733D01*
D11*
X124245714Y-27286009D02*
X124579047Y-27286009D01*
X124721904Y-27809819D02*
X124245714Y-27809819D01*
X124245714Y-27809819D02*
X124245714Y-26809819D01*
X124245714Y-26809819D02*
X124721904Y-26809819D01*
D10*
X111664761Y-28119638D02*
X111855238Y-28119638D01*
X111855238Y-28119638D02*
X112045714Y-28214876D01*
X112045714Y-28214876D02*
X112140952Y-28310114D01*
X112140952Y-28310114D02*
X112236190Y-28500590D01*
X112236190Y-28500590D02*
X112331428Y-28881542D01*
X112331428Y-28881542D02*
X112331428Y-29357733D01*
X112331428Y-29357733D02*
X112236190Y-29738685D01*
X112236190Y-29738685D02*
X112140952Y-29929161D01*
X112140952Y-29929161D02*
X112045714Y-30024400D01*
X112045714Y-30024400D02*
X111855238Y-30119638D01*
X111855238Y-30119638D02*
X111664761Y-30119638D01*
X111664761Y-30119638D02*
X111474285Y-30024400D01*
X111474285Y-30024400D02*
X111379047Y-29929161D01*
X111379047Y-29929161D02*
X111283809Y-29738685D01*
X111283809Y-29738685D02*
X111188571Y-29357733D01*
X111188571Y-29357733D02*
X111188571Y-28881542D01*
X111188571Y-28881542D02*
X111283809Y-28500590D01*
X111283809Y-28500590D02*
X111379047Y-28310114D01*
X111379047Y-28310114D02*
X111474285Y-28214876D01*
X111474285Y-28214876D02*
X111664761Y-28119638D01*
X108870952Y-101779638D02*
X110109047Y-101779638D01*
X110109047Y-101779638D02*
X109442380Y-102541542D01*
X109442380Y-102541542D02*
X109728095Y-102541542D01*
X109728095Y-102541542D02*
X109918571Y-102636780D01*
X109918571Y-102636780D02*
X110013809Y-102732019D01*
X110013809Y-102732019D02*
X110109047Y-102922495D01*
X110109047Y-102922495D02*
X110109047Y-103398685D01*
X110109047Y-103398685D02*
X110013809Y-103589161D01*
X110013809Y-103589161D02*
X109918571Y-103684400D01*
X109918571Y-103684400D02*
X109728095Y-103779638D01*
X109728095Y-103779638D02*
X109156666Y-103779638D01*
X109156666Y-103779638D02*
X108966190Y-103684400D01*
X108966190Y-103684400D02*
X108870952Y-103589161D01*
X111347142Y-101779638D02*
X111537619Y-101779638D01*
X111537619Y-101779638D02*
X111728095Y-101874876D01*
X111728095Y-101874876D02*
X111823333Y-101970114D01*
X111823333Y-101970114D02*
X111918571Y-102160590D01*
X111918571Y-102160590D02*
X112013809Y-102541542D01*
X112013809Y-102541542D02*
X112013809Y-103017733D01*
X112013809Y-103017733D02*
X111918571Y-103398685D01*
X111918571Y-103398685D02*
X111823333Y-103589161D01*
X111823333Y-103589161D02*
X111728095Y-103684400D01*
X111728095Y-103684400D02*
X111537619Y-103779638D01*
X111537619Y-103779638D02*
X111347142Y-103779638D01*
X111347142Y-103779638D02*
X111156666Y-103684400D01*
X111156666Y-103684400D02*
X111061428Y-103589161D01*
X111061428Y-103589161D02*
X110966190Y-103398685D01*
X110966190Y-103398685D02*
X110870952Y-103017733D01*
X110870952Y-103017733D02*
X110870952Y-102541542D01*
X110870952Y-102541542D02*
X110966190Y-102160590D01*
X110966190Y-102160590D02*
X111061428Y-101970114D01*
X111061428Y-101970114D02*
X111156666Y-101874876D01*
X111156666Y-101874876D02*
X111347142Y-101779638D01*
X105948095Y-82737733D02*
X107471905Y-82737733D01*
D11*
X116911428Y-27286009D02*
X117054285Y-27333628D01*
X117054285Y-27333628D02*
X117101904Y-27381247D01*
X117101904Y-27381247D02*
X117149523Y-27476485D01*
X117149523Y-27476485D02*
X117149523Y-27619342D01*
X117149523Y-27619342D02*
X117101904Y-27714580D01*
X117101904Y-27714580D02*
X117054285Y-27762200D01*
X117054285Y-27762200D02*
X116959047Y-27809819D01*
X116959047Y-27809819D02*
X116578095Y-27809819D01*
X116578095Y-27809819D02*
X116578095Y-26809819D01*
X116578095Y-26809819D02*
X116911428Y-26809819D01*
X116911428Y-26809819D02*
X117006666Y-26857438D01*
X117006666Y-26857438D02*
X117054285Y-26905057D01*
X117054285Y-26905057D02*
X117101904Y-27000295D01*
X117101904Y-27000295D02*
X117101904Y-27095533D01*
X117101904Y-27095533D02*
X117054285Y-27190771D01*
X117054285Y-27190771D02*
X117006666Y-27238390D01*
X117006666Y-27238390D02*
X116911428Y-27286009D01*
X116911428Y-27286009D02*
X116578095Y-27286009D01*
X134881904Y-190687438D02*
X134786666Y-190639819D01*
X134786666Y-190639819D02*
X134643809Y-190639819D01*
X134643809Y-190639819D02*
X134500952Y-190687438D01*
X134500952Y-190687438D02*
X134405714Y-190782676D01*
X134405714Y-190782676D02*
X134358095Y-190877914D01*
X134358095Y-190877914D02*
X134310476Y-191068390D01*
X134310476Y-191068390D02*
X134310476Y-191211247D01*
X134310476Y-191211247D02*
X134358095Y-191401723D01*
X134358095Y-191401723D02*
X134405714Y-191496961D01*
X134405714Y-191496961D02*
X134500952Y-191592200D01*
X134500952Y-191592200D02*
X134643809Y-191639819D01*
X134643809Y-191639819D02*
X134739047Y-191639819D01*
X134739047Y-191639819D02*
X134881904Y-191592200D01*
X134881904Y-191592200D02*
X134929523Y-191544580D01*
X134929523Y-191544580D02*
X134929523Y-191211247D01*
X134929523Y-191211247D02*
X134739047Y-191211247D01*
D10*
X110013809Y-152579638D02*
X109061428Y-152579638D01*
X109061428Y-152579638D02*
X108966190Y-153532019D01*
X108966190Y-153532019D02*
X109061428Y-153436780D01*
X109061428Y-153436780D02*
X109251904Y-153341542D01*
X109251904Y-153341542D02*
X109728095Y-153341542D01*
X109728095Y-153341542D02*
X109918571Y-153436780D01*
X109918571Y-153436780D02*
X110013809Y-153532019D01*
X110013809Y-153532019D02*
X110109047Y-153722495D01*
X110109047Y-153722495D02*
X110109047Y-154198685D01*
X110109047Y-154198685D02*
X110013809Y-154389161D01*
X110013809Y-154389161D02*
X109918571Y-154484400D01*
X109918571Y-154484400D02*
X109728095Y-154579638D01*
X109728095Y-154579638D02*
X109251904Y-154579638D01*
X109251904Y-154579638D02*
X109061428Y-154484400D01*
X109061428Y-154484400D02*
X108966190Y-154389161D01*
X111347142Y-152579638D02*
X111537619Y-152579638D01*
X111537619Y-152579638D02*
X111728095Y-152674876D01*
X111728095Y-152674876D02*
X111823333Y-152770114D01*
X111823333Y-152770114D02*
X111918571Y-152960590D01*
X111918571Y-152960590D02*
X112013809Y-153341542D01*
X112013809Y-153341542D02*
X112013809Y-153817733D01*
X112013809Y-153817733D02*
X111918571Y-154198685D01*
X111918571Y-154198685D02*
X111823333Y-154389161D01*
X111823333Y-154389161D02*
X111728095Y-154484400D01*
X111728095Y-154484400D02*
X111537619Y-154579638D01*
X111537619Y-154579638D02*
X111347142Y-154579638D01*
X111347142Y-154579638D02*
X111156666Y-154484400D01*
X111156666Y-154484400D02*
X111061428Y-154389161D01*
X111061428Y-154389161D02*
X110966190Y-154198685D01*
X110966190Y-154198685D02*
X110870952Y-153817733D01*
X110870952Y-153817733D02*
X110870952Y-153341542D01*
X110870952Y-153341542D02*
X110966190Y-152960590D01*
X110966190Y-152960590D02*
X111061428Y-152770114D01*
X111061428Y-152770114D02*
X111156666Y-152674876D01*
X111156666Y-152674876D02*
X111347142Y-152579638D01*
X145478571Y-127846304D02*
X145478571Y-129179638D01*
X145002380Y-127084400D02*
X144526190Y-128512971D01*
X144526190Y-128512971D02*
X145764285Y-128512971D01*
X146907142Y-127179638D02*
X147097619Y-127179638D01*
X147097619Y-127179638D02*
X147288095Y-127274876D01*
X147288095Y-127274876D02*
X147383333Y-127370114D01*
X147383333Y-127370114D02*
X147478571Y-127560590D01*
X147478571Y-127560590D02*
X147573809Y-127941542D01*
X147573809Y-127941542D02*
X147573809Y-128417733D01*
X147573809Y-128417733D02*
X147478571Y-128798685D01*
X147478571Y-128798685D02*
X147383333Y-128989161D01*
X147383333Y-128989161D02*
X147288095Y-129084400D01*
X147288095Y-129084400D02*
X147097619Y-129179638D01*
X147097619Y-129179638D02*
X146907142Y-129179638D01*
X146907142Y-129179638D02*
X146716666Y-129084400D01*
X146716666Y-129084400D02*
X146621428Y-128989161D01*
X146621428Y-128989161D02*
X146526190Y-128798685D01*
X146526190Y-128798685D02*
X146430952Y-128417733D01*
X146430952Y-128417733D02*
X146430952Y-127941542D01*
X146430952Y-127941542D02*
X146526190Y-127560590D01*
X146526190Y-127560590D02*
X146621428Y-127370114D01*
X146621428Y-127370114D02*
X146716666Y-127274876D01*
X146716666Y-127274876D02*
X146907142Y-127179638D01*
X109918571Y-177979638D02*
X109537618Y-177979638D01*
X109537618Y-177979638D02*
X109347142Y-178074876D01*
X109347142Y-178074876D02*
X109251904Y-178170114D01*
X109251904Y-178170114D02*
X109061428Y-178455828D01*
X109061428Y-178455828D02*
X108966190Y-178836780D01*
X108966190Y-178836780D02*
X108966190Y-179598685D01*
X108966190Y-179598685D02*
X109061428Y-179789161D01*
X109061428Y-179789161D02*
X109156666Y-179884400D01*
X109156666Y-179884400D02*
X109347142Y-179979638D01*
X109347142Y-179979638D02*
X109728095Y-179979638D01*
X109728095Y-179979638D02*
X109918571Y-179884400D01*
X109918571Y-179884400D02*
X110013809Y-179789161D01*
X110013809Y-179789161D02*
X110109047Y-179598685D01*
X110109047Y-179598685D02*
X110109047Y-179122495D01*
X110109047Y-179122495D02*
X110013809Y-178932019D01*
X110013809Y-178932019D02*
X109918571Y-178836780D01*
X109918571Y-178836780D02*
X109728095Y-178741542D01*
X109728095Y-178741542D02*
X109347142Y-178741542D01*
X109347142Y-178741542D02*
X109156666Y-178836780D01*
X109156666Y-178836780D02*
X109061428Y-178932019D01*
X109061428Y-178932019D02*
X108966190Y-179122495D01*
X111347142Y-177979638D02*
X111537619Y-177979638D01*
X111537619Y-177979638D02*
X111728095Y-178074876D01*
X111728095Y-178074876D02*
X111823333Y-178170114D01*
X111823333Y-178170114D02*
X111918571Y-178360590D01*
X111918571Y-178360590D02*
X112013809Y-178741542D01*
X112013809Y-178741542D02*
X112013809Y-179217733D01*
X112013809Y-179217733D02*
X111918571Y-179598685D01*
X111918571Y-179598685D02*
X111823333Y-179789161D01*
X111823333Y-179789161D02*
X111728095Y-179884400D01*
X111728095Y-179884400D02*
X111537619Y-179979638D01*
X111537619Y-179979638D02*
X111347142Y-179979638D01*
X111347142Y-179979638D02*
X111156666Y-179884400D01*
X111156666Y-179884400D02*
X111061428Y-179789161D01*
X111061428Y-179789161D02*
X110966190Y-179598685D01*
X110966190Y-179598685D02*
X110870952Y-179217733D01*
X110870952Y-179217733D02*
X110870952Y-178741542D01*
X110870952Y-178741542D02*
X110966190Y-178360590D01*
X110966190Y-178360590D02*
X111061428Y-178170114D01*
X111061428Y-178170114D02*
X111156666Y-178074876D01*
X111156666Y-178074876D02*
X111347142Y-177979638D01*
D11*
X142382857Y-26809819D02*
X142382857Y-27524104D01*
X142382857Y-27524104D02*
X142335238Y-27666961D01*
X142335238Y-27666961D02*
X142240000Y-27762200D01*
X142240000Y-27762200D02*
X142097143Y-27809819D01*
X142097143Y-27809819D02*
X142001905Y-27809819D01*
D10*
X105918095Y-28187733D02*
X107441905Y-28187733D01*
D11*
X136874286Y-191639819D02*
X136874286Y-190639819D01*
X136874286Y-191116009D02*
X137445714Y-191116009D01*
X137445714Y-191639819D02*
X137445714Y-190639819D01*
X121658095Y-191639819D02*
X121658095Y-190639819D01*
X121658095Y-190639819D02*
X121896190Y-190639819D01*
X121896190Y-190639819D02*
X122039047Y-190687438D01*
X122039047Y-190687438D02*
X122134285Y-190782676D01*
X122134285Y-190782676D02*
X122181904Y-190877914D01*
X122181904Y-190877914D02*
X122229523Y-191068390D01*
X122229523Y-191068390D02*
X122229523Y-191211247D01*
X122229523Y-191211247D02*
X122181904Y-191401723D01*
X122181904Y-191401723D02*
X122134285Y-191496961D01*
X122134285Y-191496961D02*
X122039047Y-191592200D01*
X122039047Y-191592200D02*
X121896190Y-191639819D01*
X121896190Y-191639819D02*
X121658095Y-191639819D01*
D10*
X149098095Y-28187733D02*
X150621905Y-28187733D01*
X149860000Y-28949638D02*
X149860000Y-27425828D01*
D11*
X139700000Y-27809819D02*
X139700000Y-26809819D01*
D10*
X149098095Y-189477733D02*
X150621905Y-189477733D01*
X149860000Y-190239638D02*
X149860000Y-188715828D01*
X108966190Y-76570114D02*
X109061428Y-76474876D01*
X109061428Y-76474876D02*
X109251904Y-76379638D01*
X109251904Y-76379638D02*
X109728095Y-76379638D01*
X109728095Y-76379638D02*
X109918571Y-76474876D01*
X109918571Y-76474876D02*
X110013809Y-76570114D01*
X110013809Y-76570114D02*
X110109047Y-76760590D01*
X110109047Y-76760590D02*
X110109047Y-76951066D01*
X110109047Y-76951066D02*
X110013809Y-77236780D01*
X110013809Y-77236780D02*
X108870952Y-78379638D01*
X108870952Y-78379638D02*
X110109047Y-78379638D01*
X111347142Y-76379638D02*
X111537619Y-76379638D01*
X111537619Y-76379638D02*
X111728095Y-76474876D01*
X111728095Y-76474876D02*
X111823333Y-76570114D01*
X111823333Y-76570114D02*
X111918571Y-76760590D01*
X111918571Y-76760590D02*
X112013809Y-77141542D01*
X112013809Y-77141542D02*
X112013809Y-77617733D01*
X112013809Y-77617733D02*
X111918571Y-77998685D01*
X111918571Y-77998685D02*
X111823333Y-78189161D01*
X111823333Y-78189161D02*
X111728095Y-78284400D01*
X111728095Y-78284400D02*
X111537619Y-78379638D01*
X111537619Y-78379638D02*
X111347142Y-78379638D01*
X111347142Y-78379638D02*
X111156666Y-78284400D01*
X111156666Y-78284400D02*
X111061428Y-78189161D01*
X111061428Y-78189161D02*
X110966190Y-77998685D01*
X110966190Y-77998685D02*
X110870952Y-77617733D01*
X110870952Y-77617733D02*
X110870952Y-77141542D01*
X110870952Y-77141542D02*
X110966190Y-76760590D01*
X110966190Y-76760590D02*
X111061428Y-76570114D01*
X111061428Y-76570114D02*
X111156666Y-76474876D01*
X111156666Y-76474876D02*
X111347142Y-76379638D01*
X109918571Y-127846304D02*
X109918571Y-129179638D01*
X109442380Y-127084400D02*
X108966190Y-128512971D01*
X108966190Y-128512971D02*
X110204285Y-128512971D01*
X111347142Y-127179638D02*
X111537619Y-127179638D01*
X111537619Y-127179638D02*
X111728095Y-127274876D01*
X111728095Y-127274876D02*
X111823333Y-127370114D01*
X111823333Y-127370114D02*
X111918571Y-127560590D01*
X111918571Y-127560590D02*
X112013809Y-127941542D01*
X112013809Y-127941542D02*
X112013809Y-128417733D01*
X112013809Y-128417733D02*
X111918571Y-128798685D01*
X111918571Y-128798685D02*
X111823333Y-128989161D01*
X111823333Y-128989161D02*
X111728095Y-129084400D01*
X111728095Y-129084400D02*
X111537619Y-129179638D01*
X111537619Y-129179638D02*
X111347142Y-129179638D01*
X111347142Y-129179638D02*
X111156666Y-129084400D01*
X111156666Y-129084400D02*
X111061428Y-128989161D01*
X111061428Y-128989161D02*
X110966190Y-128798685D01*
X110966190Y-128798685D02*
X110870952Y-128417733D01*
X110870952Y-128417733D02*
X110870952Y-127941542D01*
X110870952Y-127941542D02*
X110966190Y-127560590D01*
X110966190Y-127560590D02*
X111061428Y-127370114D01*
X111061428Y-127370114D02*
X111156666Y-127274876D01*
X111156666Y-127274876D02*
X111347142Y-127179638D01*
X110109047Y-52979638D02*
X108966190Y-52979638D01*
X109537618Y-52979638D02*
X109537618Y-50979638D01*
X109537618Y-50979638D02*
X109347142Y-51265352D01*
X109347142Y-51265352D02*
X109156666Y-51455828D01*
X109156666Y-51455828D02*
X108966190Y-51551066D01*
X111347142Y-50979638D02*
X111537619Y-50979638D01*
X111537619Y-50979638D02*
X111728095Y-51074876D01*
X111728095Y-51074876D02*
X111823333Y-51170114D01*
X111823333Y-51170114D02*
X111918571Y-51360590D01*
X111918571Y-51360590D02*
X112013809Y-51741542D01*
X112013809Y-51741542D02*
X112013809Y-52217733D01*
X112013809Y-52217733D02*
X111918571Y-52598685D01*
X111918571Y-52598685D02*
X111823333Y-52789161D01*
X111823333Y-52789161D02*
X111728095Y-52884400D01*
X111728095Y-52884400D02*
X111537619Y-52979638D01*
X111537619Y-52979638D02*
X111347142Y-52979638D01*
X111347142Y-52979638D02*
X111156666Y-52884400D01*
X111156666Y-52884400D02*
X111061428Y-52789161D01*
X111061428Y-52789161D02*
X110966190Y-52598685D01*
X110966190Y-52598685D02*
X110870952Y-52217733D01*
X110870952Y-52217733D02*
X110870952Y-51741542D01*
X110870952Y-51741542D02*
X110966190Y-51360590D01*
X110966190Y-51360590D02*
X111061428Y-51170114D01*
X111061428Y-51170114D02*
X111156666Y-51074876D01*
X111156666Y-51074876D02*
X111347142Y-50979638D01*
X145573809Y-165279638D02*
X144621428Y-165279638D01*
X144621428Y-165279638D02*
X144526190Y-166232019D01*
X144526190Y-166232019D02*
X144621428Y-166136780D01*
X144621428Y-166136780D02*
X144811904Y-166041542D01*
X144811904Y-166041542D02*
X145288095Y-166041542D01*
X145288095Y-166041542D02*
X145478571Y-166136780D01*
X145478571Y-166136780D02*
X145573809Y-166232019D01*
X145573809Y-166232019D02*
X145669047Y-166422495D01*
X145669047Y-166422495D02*
X145669047Y-166898685D01*
X145669047Y-166898685D02*
X145573809Y-167089161D01*
X145573809Y-167089161D02*
X145478571Y-167184400D01*
X145478571Y-167184400D02*
X145288095Y-167279638D01*
X145288095Y-167279638D02*
X144811904Y-167279638D01*
X144811904Y-167279638D02*
X144621428Y-167184400D01*
X144621428Y-167184400D02*
X144526190Y-167089161D01*
X147478571Y-165279638D02*
X146526190Y-165279638D01*
X146526190Y-165279638D02*
X146430952Y-166232019D01*
X146430952Y-166232019D02*
X146526190Y-166136780D01*
X146526190Y-166136780D02*
X146716666Y-166041542D01*
X146716666Y-166041542D02*
X147192857Y-166041542D01*
X147192857Y-166041542D02*
X147383333Y-166136780D01*
X147383333Y-166136780D02*
X147478571Y-166232019D01*
X147478571Y-166232019D02*
X147573809Y-166422495D01*
X147573809Y-166422495D02*
X147573809Y-166898685D01*
X147573809Y-166898685D02*
X147478571Y-167089161D01*
X147478571Y-167089161D02*
X147383333Y-167184400D01*
X147383333Y-167184400D02*
X147192857Y-167279638D01*
X147192857Y-167279638D02*
X146716666Y-167279638D01*
X146716666Y-167279638D02*
X146526190Y-167184400D01*
X146526190Y-167184400D02*
X146430952Y-167089161D01*
X108870952Y-114479638D02*
X110109047Y-114479638D01*
X110109047Y-114479638D02*
X109442380Y-115241542D01*
X109442380Y-115241542D02*
X109728095Y-115241542D01*
X109728095Y-115241542D02*
X109918571Y-115336780D01*
X109918571Y-115336780D02*
X110013809Y-115432019D01*
X110013809Y-115432019D02*
X110109047Y-115622495D01*
X110109047Y-115622495D02*
X110109047Y-116098685D01*
X110109047Y-116098685D02*
X110013809Y-116289161D01*
X110013809Y-116289161D02*
X109918571Y-116384400D01*
X109918571Y-116384400D02*
X109728095Y-116479638D01*
X109728095Y-116479638D02*
X109156666Y-116479638D01*
X109156666Y-116479638D02*
X108966190Y-116384400D01*
X108966190Y-116384400D02*
X108870952Y-116289161D01*
X111918571Y-114479638D02*
X110966190Y-114479638D01*
X110966190Y-114479638D02*
X110870952Y-115432019D01*
X110870952Y-115432019D02*
X110966190Y-115336780D01*
X110966190Y-115336780D02*
X111156666Y-115241542D01*
X111156666Y-115241542D02*
X111632857Y-115241542D01*
X111632857Y-115241542D02*
X111823333Y-115336780D01*
X111823333Y-115336780D02*
X111918571Y-115432019D01*
X111918571Y-115432019D02*
X112013809Y-115622495D01*
X112013809Y-115622495D02*
X112013809Y-116098685D01*
X112013809Y-116098685D02*
X111918571Y-116289161D01*
X111918571Y-116289161D02*
X111823333Y-116384400D01*
X111823333Y-116384400D02*
X111632857Y-116479638D01*
X111632857Y-116479638D02*
X111156666Y-116479638D01*
X111156666Y-116479638D02*
X110966190Y-116384400D01*
X110966190Y-116384400D02*
X110870952Y-116289161D01*
D11*
X136874286Y-27809819D02*
X136874286Y-26809819D01*
X136874286Y-27286009D02*
X137445714Y-27286009D01*
X137445714Y-27809819D02*
X137445714Y-26809819D01*
D10*
X109918571Y-140546304D02*
X109918571Y-141879638D01*
X109442380Y-139784400D02*
X108966190Y-141212971D01*
X108966190Y-141212971D02*
X110204285Y-141212971D01*
X111918571Y-139879638D02*
X110966190Y-139879638D01*
X110966190Y-139879638D02*
X110870952Y-140832019D01*
X110870952Y-140832019D02*
X110966190Y-140736780D01*
X110966190Y-140736780D02*
X111156666Y-140641542D01*
X111156666Y-140641542D02*
X111632857Y-140641542D01*
X111632857Y-140641542D02*
X111823333Y-140736780D01*
X111823333Y-140736780D02*
X111918571Y-140832019D01*
X111918571Y-140832019D02*
X112013809Y-141022495D01*
X112013809Y-141022495D02*
X112013809Y-141498685D01*
X112013809Y-141498685D02*
X111918571Y-141689161D01*
X111918571Y-141689161D02*
X111823333Y-141784400D01*
X111823333Y-141784400D02*
X111632857Y-141879638D01*
X111632857Y-141879638D02*
X111156666Y-141879638D01*
X111156666Y-141879638D02*
X110966190Y-141784400D01*
X110966190Y-141784400D02*
X110870952Y-141689161D01*
X151638095Y-28187733D02*
X153161905Y-28187733D01*
X145669047Y-65679638D02*
X144526190Y-65679638D01*
X145097618Y-65679638D02*
X145097618Y-63679638D01*
X145097618Y-63679638D02*
X144907142Y-63965352D01*
X144907142Y-63965352D02*
X144716666Y-64155828D01*
X144716666Y-64155828D02*
X144526190Y-64251066D01*
X147478571Y-63679638D02*
X146526190Y-63679638D01*
X146526190Y-63679638D02*
X146430952Y-64632019D01*
X146430952Y-64632019D02*
X146526190Y-64536780D01*
X146526190Y-64536780D02*
X146716666Y-64441542D01*
X146716666Y-64441542D02*
X147192857Y-64441542D01*
X147192857Y-64441542D02*
X147383333Y-64536780D01*
X147383333Y-64536780D02*
X147478571Y-64632019D01*
X147478571Y-64632019D02*
X147573809Y-64822495D01*
X147573809Y-64822495D02*
X147573809Y-65298685D01*
X147573809Y-65298685D02*
X147478571Y-65489161D01*
X147478571Y-65489161D02*
X147383333Y-65584400D01*
X147383333Y-65584400D02*
X147192857Y-65679638D01*
X147192857Y-65679638D02*
X146716666Y-65679638D01*
X146716666Y-65679638D02*
X146526190Y-65584400D01*
X146526190Y-65584400D02*
X146430952Y-65489161D01*
X144430952Y-101779638D02*
X145669047Y-101779638D01*
X145669047Y-101779638D02*
X145002380Y-102541542D01*
X145002380Y-102541542D02*
X145288095Y-102541542D01*
X145288095Y-102541542D02*
X145478571Y-102636780D01*
X145478571Y-102636780D02*
X145573809Y-102732019D01*
X145573809Y-102732019D02*
X145669047Y-102922495D01*
X145669047Y-102922495D02*
X145669047Y-103398685D01*
X145669047Y-103398685D02*
X145573809Y-103589161D01*
X145573809Y-103589161D02*
X145478571Y-103684400D01*
X145478571Y-103684400D02*
X145288095Y-103779638D01*
X145288095Y-103779638D02*
X144716666Y-103779638D01*
X144716666Y-103779638D02*
X144526190Y-103684400D01*
X144526190Y-103684400D02*
X144430952Y-103589161D01*
X146907142Y-101779638D02*
X147097619Y-101779638D01*
X147097619Y-101779638D02*
X147288095Y-101874876D01*
X147288095Y-101874876D02*
X147383333Y-101970114D01*
X147383333Y-101970114D02*
X147478571Y-102160590D01*
X147478571Y-102160590D02*
X147573809Y-102541542D01*
X147573809Y-102541542D02*
X147573809Y-103017733D01*
X147573809Y-103017733D02*
X147478571Y-103398685D01*
X147478571Y-103398685D02*
X147383333Y-103589161D01*
X147383333Y-103589161D02*
X147288095Y-103684400D01*
X147288095Y-103684400D02*
X147097619Y-103779638D01*
X147097619Y-103779638D02*
X146907142Y-103779638D01*
X146907142Y-103779638D02*
X146716666Y-103684400D01*
X146716666Y-103684400D02*
X146621428Y-103589161D01*
X146621428Y-103589161D02*
X146526190Y-103398685D01*
X146526190Y-103398685D02*
X146430952Y-103017733D01*
X146430952Y-103017733D02*
X146430952Y-102541542D01*
X146430952Y-102541542D02*
X146526190Y-102160590D01*
X146526190Y-102160590D02*
X146621428Y-101970114D01*
X146621428Y-101970114D02*
X146716666Y-101874876D01*
X146716666Y-101874876D02*
X146907142Y-101779638D01*
D11*
X139700000Y-191639819D02*
X139700000Y-190639819D01*
D10*
X110109047Y-65679638D02*
X108966190Y-65679638D01*
X109537618Y-65679638D02*
X109537618Y-63679638D01*
X109537618Y-63679638D02*
X109347142Y-63965352D01*
X109347142Y-63965352D02*
X109156666Y-64155828D01*
X109156666Y-64155828D02*
X108966190Y-64251066D01*
X111918571Y-63679638D02*
X110966190Y-63679638D01*
X110966190Y-63679638D02*
X110870952Y-64632019D01*
X110870952Y-64632019D02*
X110966190Y-64536780D01*
X110966190Y-64536780D02*
X111156666Y-64441542D01*
X111156666Y-64441542D02*
X111632857Y-64441542D01*
X111632857Y-64441542D02*
X111823333Y-64536780D01*
X111823333Y-64536780D02*
X111918571Y-64632019D01*
X111918571Y-64632019D02*
X112013809Y-64822495D01*
X112013809Y-64822495D02*
X112013809Y-65298685D01*
X112013809Y-65298685D02*
X111918571Y-65489161D01*
X111918571Y-65489161D02*
X111823333Y-65584400D01*
X111823333Y-65584400D02*
X111632857Y-65679638D01*
X111632857Y-65679638D02*
X111156666Y-65679638D01*
X111156666Y-65679638D02*
X110966190Y-65584400D01*
X110966190Y-65584400D02*
X110870952Y-65489161D01*
D11*
X119689523Y-27714580D02*
X119641904Y-27762200D01*
X119641904Y-27762200D02*
X119499047Y-27809819D01*
X119499047Y-27809819D02*
X119403809Y-27809819D01*
X119403809Y-27809819D02*
X119260952Y-27762200D01*
X119260952Y-27762200D02*
X119165714Y-27666961D01*
X119165714Y-27666961D02*
X119118095Y-27571723D01*
X119118095Y-27571723D02*
X119070476Y-27381247D01*
X119070476Y-27381247D02*
X119070476Y-27238390D01*
X119070476Y-27238390D02*
X119118095Y-27047914D01*
X119118095Y-27047914D02*
X119165714Y-26952676D01*
X119165714Y-26952676D02*
X119260952Y-26857438D01*
X119260952Y-26857438D02*
X119403809Y-26809819D01*
X119403809Y-26809819D02*
X119499047Y-26809819D01*
X119499047Y-26809819D02*
X119641904Y-26857438D01*
X119641904Y-26857438D02*
X119689523Y-26905057D01*
D10*
X145669047Y-52979638D02*
X144526190Y-52979638D01*
X145097618Y-52979638D02*
X145097618Y-50979638D01*
X145097618Y-50979638D02*
X144907142Y-51265352D01*
X144907142Y-51265352D02*
X144716666Y-51455828D01*
X144716666Y-51455828D02*
X144526190Y-51551066D01*
X146907142Y-50979638D02*
X147097619Y-50979638D01*
X147097619Y-50979638D02*
X147288095Y-51074876D01*
X147288095Y-51074876D02*
X147383333Y-51170114D01*
X147383333Y-51170114D02*
X147478571Y-51360590D01*
X147478571Y-51360590D02*
X147573809Y-51741542D01*
X147573809Y-51741542D02*
X147573809Y-52217733D01*
X147573809Y-52217733D02*
X147478571Y-52598685D01*
X147478571Y-52598685D02*
X147383333Y-52789161D01*
X147383333Y-52789161D02*
X147288095Y-52884400D01*
X147288095Y-52884400D02*
X147097619Y-52979638D01*
X147097619Y-52979638D02*
X146907142Y-52979638D01*
X146907142Y-52979638D02*
X146716666Y-52884400D01*
X146716666Y-52884400D02*
X146621428Y-52789161D01*
X146621428Y-52789161D02*
X146526190Y-52598685D01*
X146526190Y-52598685D02*
X146430952Y-52217733D01*
X146430952Y-52217733D02*
X146430952Y-51741542D01*
X146430952Y-51741542D02*
X146526190Y-51360590D01*
X146526190Y-51360590D02*
X146621428Y-51170114D01*
X146621428Y-51170114D02*
X146716666Y-51074876D01*
X146716666Y-51074876D02*
X146907142Y-50979638D01*
X145478571Y-177979638D02*
X145097618Y-177979638D01*
X145097618Y-177979638D02*
X144907142Y-178074876D01*
X144907142Y-178074876D02*
X144811904Y-178170114D01*
X144811904Y-178170114D02*
X144621428Y-178455828D01*
X144621428Y-178455828D02*
X144526190Y-178836780D01*
X144526190Y-178836780D02*
X144526190Y-179598685D01*
X144526190Y-179598685D02*
X144621428Y-179789161D01*
X144621428Y-179789161D02*
X144716666Y-179884400D01*
X144716666Y-179884400D02*
X144907142Y-179979638D01*
X144907142Y-179979638D02*
X145288095Y-179979638D01*
X145288095Y-179979638D02*
X145478571Y-179884400D01*
X145478571Y-179884400D02*
X145573809Y-179789161D01*
X145573809Y-179789161D02*
X145669047Y-179598685D01*
X145669047Y-179598685D02*
X145669047Y-179122495D01*
X145669047Y-179122495D02*
X145573809Y-178932019D01*
X145573809Y-178932019D02*
X145478571Y-178836780D01*
X145478571Y-178836780D02*
X145288095Y-178741542D01*
X145288095Y-178741542D02*
X144907142Y-178741542D01*
X144907142Y-178741542D02*
X144716666Y-178836780D01*
X144716666Y-178836780D02*
X144621428Y-178932019D01*
X144621428Y-178932019D02*
X144526190Y-179122495D01*
X146907142Y-177979638D02*
X147097619Y-177979638D01*
X147097619Y-177979638D02*
X147288095Y-178074876D01*
X147288095Y-178074876D02*
X147383333Y-178170114D01*
X147383333Y-178170114D02*
X147478571Y-178360590D01*
X147478571Y-178360590D02*
X147573809Y-178741542D01*
X147573809Y-178741542D02*
X147573809Y-179217733D01*
X147573809Y-179217733D02*
X147478571Y-179598685D01*
X147478571Y-179598685D02*
X147383333Y-179789161D01*
X147383333Y-179789161D02*
X147288095Y-179884400D01*
X147288095Y-179884400D02*
X147097619Y-179979638D01*
X147097619Y-179979638D02*
X146907142Y-179979638D01*
X146907142Y-179979638D02*
X146716666Y-179884400D01*
X146716666Y-179884400D02*
X146621428Y-179789161D01*
X146621428Y-179789161D02*
X146526190Y-179598685D01*
X146526190Y-179598685D02*
X146430952Y-179217733D01*
X146430952Y-179217733D02*
X146430952Y-178741542D01*
X146430952Y-178741542D02*
X146526190Y-178360590D01*
X146526190Y-178360590D02*
X146621428Y-178170114D01*
X146621428Y-178170114D02*
X146716666Y-178074876D01*
X146716666Y-178074876D02*
X146907142Y-177979638D01*
D11*
X127508095Y-26564819D02*
X127508095Y-27374342D01*
X127508095Y-27374342D02*
X127555714Y-27469580D01*
X127555714Y-27469580D02*
X127603333Y-27517200D01*
X127603333Y-27517200D02*
X127698571Y-27564819D01*
X127698571Y-27564819D02*
X127889047Y-27564819D01*
X127889047Y-27564819D02*
X127984285Y-27517200D01*
X127984285Y-27517200D02*
X128031904Y-27469580D01*
X128031904Y-27469580D02*
X128079523Y-27374342D01*
X128079523Y-27374342D02*
X128079523Y-26564819D01*
X129079523Y-27564819D02*
X128508095Y-27564819D01*
X128793809Y-27564819D02*
X128793809Y-26564819D01*
X128793809Y-26564819D02*
X128698571Y-26707676D01*
X128698571Y-26707676D02*
X128603333Y-26802914D01*
X128603333Y-26802914D02*
X128508095Y-26850533D01*
X145288095Y-193494819D02*
X145288095Y-192494819D01*
X145288095Y-192971009D02*
X145859523Y-192971009D01*
X145859523Y-193494819D02*
X145859523Y-192494819D01*
X146240476Y-192494819D02*
X146859523Y-192494819D01*
X146859523Y-192494819D02*
X146526190Y-192875771D01*
X146526190Y-192875771D02*
X146669047Y-192875771D01*
X146669047Y-192875771D02*
X146764285Y-192923390D01*
X146764285Y-192923390D02*
X146811904Y-192971009D01*
X146811904Y-192971009D02*
X146859523Y-193066247D01*
X146859523Y-193066247D02*
X146859523Y-193304342D01*
X146859523Y-193304342D02*
X146811904Y-193399580D01*
X146811904Y-193399580D02*
X146764285Y-193447200D01*
X146764285Y-193447200D02*
X146669047Y-193494819D01*
X146669047Y-193494819D02*
X146383333Y-193494819D01*
X146383333Y-193494819D02*
X146288095Y-193447200D01*
X146288095Y-193447200D02*
X146240476Y-193399580D01*
X145716666Y-137884819D02*
X145716666Y-138599104D01*
X145716666Y-138599104D02*
X145669047Y-138741961D01*
X145669047Y-138741961D02*
X145573809Y-138837200D01*
X145573809Y-138837200D02*
X145430952Y-138884819D01*
X145430952Y-138884819D02*
X145335714Y-138884819D01*
X146621428Y-137884819D02*
X146430952Y-137884819D01*
X146430952Y-137884819D02*
X146335714Y-137932438D01*
X146335714Y-137932438D02*
X146288095Y-137980057D01*
X146288095Y-137980057D02*
X146192857Y-138122914D01*
X146192857Y-138122914D02*
X146145238Y-138313390D01*
X146145238Y-138313390D02*
X146145238Y-138694342D01*
X146145238Y-138694342D02*
X146192857Y-138789580D01*
X146192857Y-138789580D02*
X146240476Y-138837200D01*
X146240476Y-138837200D02*
X146335714Y-138884819D01*
X146335714Y-138884819D02*
X146526190Y-138884819D01*
X146526190Y-138884819D02*
X146621428Y-138837200D01*
X146621428Y-138837200D02*
X146669047Y-138789580D01*
X146669047Y-138789580D02*
X146716666Y-138694342D01*
X146716666Y-138694342D02*
X146716666Y-138456247D01*
X146716666Y-138456247D02*
X146669047Y-138361009D01*
X146669047Y-138361009D02*
X146621428Y-138313390D01*
X146621428Y-138313390D02*
X146526190Y-138265771D01*
X146526190Y-138265771D02*
X146335714Y-138265771D01*
X146335714Y-138265771D02*
X146240476Y-138313390D01*
X146240476Y-138313390D02*
X146192857Y-138361009D01*
X146192857Y-138361009D02*
X146145238Y-138456247D01*
X145716666Y-31204819D02*
X145716666Y-31919104D01*
X145716666Y-31919104D02*
X145669047Y-32061961D01*
X145669047Y-32061961D02*
X145573809Y-32157200D01*
X145573809Y-32157200D02*
X145430952Y-32204819D01*
X145430952Y-32204819D02*
X145335714Y-32204819D01*
X146621428Y-31538152D02*
X146621428Y-32204819D01*
X146383333Y-31157200D02*
X146145238Y-31871485D01*
X146145238Y-31871485D02*
X146764285Y-31871485D01*
X110998095Y-25854819D02*
X110998095Y-24854819D01*
X110998095Y-25331009D02*
X111569523Y-25331009D01*
X111569523Y-25854819D02*
X111569523Y-24854819D01*
X112569523Y-25854819D02*
X111998095Y-25854819D01*
X112283809Y-25854819D02*
X112283809Y-24854819D01*
X112283809Y-24854819D02*
X112188571Y-24997676D01*
X112188571Y-24997676D02*
X112093333Y-25092914D01*
X112093333Y-25092914D02*
X111998095Y-25140533D01*
X110156666Y-84544819D02*
X110156666Y-85259104D01*
X110156666Y-85259104D02*
X110109047Y-85401961D01*
X110109047Y-85401961D02*
X110013809Y-85497200D01*
X110013809Y-85497200D02*
X109870952Y-85544819D01*
X109870952Y-85544819D02*
X109775714Y-85544819D01*
X110585238Y-84640057D02*
X110632857Y-84592438D01*
X110632857Y-84592438D02*
X110728095Y-84544819D01*
X110728095Y-84544819D02*
X110966190Y-84544819D01*
X110966190Y-84544819D02*
X111061428Y-84592438D01*
X111061428Y-84592438D02*
X111109047Y-84640057D01*
X111109047Y-84640057D02*
X111156666Y-84735295D01*
X111156666Y-84735295D02*
X111156666Y-84830533D01*
X111156666Y-84830533D02*
X111109047Y-84973390D01*
X111109047Y-84973390D02*
X110537619Y-85544819D01*
X110537619Y-85544819D02*
X111156666Y-85544819D01*
X110156666Y-31204819D02*
X110156666Y-31919104D01*
X110156666Y-31919104D02*
X110109047Y-32061961D01*
X110109047Y-32061961D02*
X110013809Y-32157200D01*
X110013809Y-32157200D02*
X109870952Y-32204819D01*
X109870952Y-32204819D02*
X109775714Y-32204819D01*
X111156666Y-32204819D02*
X110585238Y-32204819D01*
X110870952Y-32204819D02*
X110870952Y-31204819D01*
X110870952Y-31204819D02*
X110775714Y-31347676D01*
X110775714Y-31347676D02*
X110680476Y-31442914D01*
X110680476Y-31442914D02*
X110585238Y-31490533D01*
X110156666Y-137884819D02*
X110156666Y-138599104D01*
X110156666Y-138599104D02*
X110109047Y-138741961D01*
X110109047Y-138741961D02*
X110013809Y-138837200D01*
X110013809Y-138837200D02*
X109870952Y-138884819D01*
X109870952Y-138884819D02*
X109775714Y-138884819D01*
X110537619Y-137884819D02*
X111156666Y-137884819D01*
X111156666Y-137884819D02*
X110823333Y-138265771D01*
X110823333Y-138265771D02*
X110966190Y-138265771D01*
X110966190Y-138265771D02*
X111061428Y-138313390D01*
X111061428Y-138313390D02*
X111109047Y-138361009D01*
X111109047Y-138361009D02*
X111156666Y-138456247D01*
X111156666Y-138456247D02*
X111156666Y-138694342D01*
X111156666Y-138694342D02*
X111109047Y-138789580D01*
X111109047Y-138789580D02*
X111061428Y-138837200D01*
X111061428Y-138837200D02*
X110966190Y-138884819D01*
X110966190Y-138884819D02*
X110680476Y-138884819D01*
X110680476Y-138884819D02*
X110585238Y-138837200D01*
X110585238Y-138837200D02*
X110537619Y-138789580D01*
X109728095Y-194764819D02*
X109728095Y-193764819D01*
X109728095Y-194241009D02*
X110299523Y-194241009D01*
X110299523Y-194764819D02*
X110299523Y-193764819D01*
X111204285Y-194098152D02*
X111204285Y-194764819D01*
X110966190Y-193717200D02*
X110728095Y-194431485D01*
X110728095Y-194431485D02*
X111347142Y-194431485D01*
X145288095Y-24584819D02*
X145288095Y-23584819D01*
X145288095Y-24061009D02*
X145859523Y-24061009D01*
X145859523Y-24584819D02*
X145859523Y-23584819D01*
X146288095Y-23680057D02*
X146335714Y-23632438D01*
X146335714Y-23632438D02*
X146430952Y-23584819D01*
X146430952Y-23584819D02*
X146669047Y-23584819D01*
X146669047Y-23584819D02*
X146764285Y-23632438D01*
X146764285Y-23632438D02*
X146811904Y-23680057D01*
X146811904Y-23680057D02*
X146859523Y-23775295D01*
X146859523Y-23775295D02*
X146859523Y-23870533D01*
X146859523Y-23870533D02*
X146811904Y-24013390D01*
X146811904Y-24013390D02*
X146240476Y-24584819D01*
X146240476Y-24584819D02*
X146859523Y-24584819D01*
X145716666Y-84544819D02*
X145716666Y-85259104D01*
X145716666Y-85259104D02*
X145669047Y-85401961D01*
X145669047Y-85401961D02*
X145573809Y-85497200D01*
X145573809Y-85497200D02*
X145430952Y-85544819D01*
X145430952Y-85544819D02*
X145335714Y-85544819D01*
X146669047Y-84544819D02*
X146192857Y-84544819D01*
X146192857Y-84544819D02*
X146145238Y-85021009D01*
X146145238Y-85021009D02*
X146192857Y-84973390D01*
X146192857Y-84973390D02*
X146288095Y-84925771D01*
X146288095Y-84925771D02*
X146526190Y-84925771D01*
X146526190Y-84925771D02*
X146621428Y-84973390D01*
X146621428Y-84973390D02*
X146669047Y-85021009D01*
X146669047Y-85021009D02*
X146716666Y-85116247D01*
X146716666Y-85116247D02*
X146716666Y-85354342D01*
X146716666Y-85354342D02*
X146669047Y-85449580D01*
X146669047Y-85449580D02*
X146621428Y-85497200D01*
X146621428Y-85497200D02*
X146526190Y-85544819D01*
X146526190Y-85544819D02*
X146288095Y-85544819D01*
X146288095Y-85544819D02*
X146192857Y-85497200D01*
X146192857Y-85497200D02*
X146145238Y-85449580D01*
D12*
%TO.C,U1*%
X143510000Y-28110000D02*
X130810000Y-28110000D01*
X130810000Y-28110000D02*
X130810000Y-28470000D01*
X125730000Y-28110000D02*
X113130001Y-28110000D01*
X113130001Y-28110000D02*
X113130000Y-190500000D01*
X130810000Y-28470000D02*
X125730000Y-28470000D01*
X125730000Y-28470000D02*
X125730000Y-28110000D01*
X143510000Y-190500000D02*
X143510000Y-28110000D01*
X113130000Y-190500000D02*
X143510000Y-190500000D01*
%TO.C,J6*%
X148530000Y-137100000D02*
X149860000Y-137100000D01*
X148530000Y-138430000D02*
X148530000Y-137100000D01*
X148530000Y-139700000D02*
X148530000Y-188020000D01*
X148530000Y-139700000D02*
X151130000Y-139700000D01*
X148530000Y-188020000D02*
X153730000Y-188020000D01*
X151130000Y-137100000D02*
X153730000Y-137100000D01*
X151130000Y-139700000D02*
X151130000Y-137100000D01*
X153730000Y-137100000D02*
X153730000Y-188020000D01*
%TO.C,J4*%
X148530000Y-30420000D02*
X149860000Y-30420000D01*
X148530000Y-31750000D02*
X148530000Y-30420000D01*
X148530000Y-33020000D02*
X148530000Y-81340000D01*
X148530000Y-33020000D02*
X151130000Y-33020000D01*
X148530000Y-81340000D02*
X153730000Y-81340000D01*
X151130000Y-30420000D02*
X153730000Y-30420000D01*
X151130000Y-33020000D02*
X151130000Y-30420000D01*
X153730000Y-30420000D02*
X153730000Y-81340000D01*
%TO.C,J2*%
X102810000Y-83760000D02*
X104140000Y-83760000D01*
X102810000Y-85090000D02*
X102810000Y-83760000D01*
X102810000Y-86360000D02*
X102810000Y-134680000D01*
X102810000Y-86360000D02*
X105410000Y-86360000D01*
X102810000Y-134680000D02*
X108010000Y-134680000D01*
X105410000Y-83760000D02*
X108010000Y-83760000D01*
X105410000Y-86360000D02*
X105410000Y-83760000D01*
X108010000Y-83760000D02*
X108010000Y-134680000D01*
%TO.C,J1*%
X102810000Y-30420000D02*
X104140000Y-30420000D01*
X102810000Y-31750000D02*
X102810000Y-30420000D01*
X102810000Y-33020000D02*
X102810000Y-81340000D01*
X102810000Y-33020000D02*
X105410000Y-33020000D01*
X102810000Y-81340000D02*
X108010000Y-81340000D01*
X105410000Y-30420000D02*
X108010000Y-30420000D01*
X105410000Y-33020000D02*
X105410000Y-30420000D01*
X108010000Y-30420000D02*
X108010000Y-81340000D01*
%TO.C,J3*%
X102810000Y-137100000D02*
X104140000Y-137100000D01*
X102810000Y-138430000D02*
X102810000Y-137100000D01*
X102810000Y-139700000D02*
X102810000Y-188020000D01*
X102810000Y-139700000D02*
X105410000Y-139700000D01*
X102810000Y-188020000D02*
X108010000Y-188020000D01*
X105410000Y-137100000D02*
X108010000Y-137100000D01*
X105410000Y-139700000D02*
X105410000Y-137100000D01*
X108010000Y-137100000D02*
X108010000Y-188020000D01*
%TO.C,J5*%
X148530000Y-83760000D02*
X149860000Y-83760000D01*
X148530000Y-85090000D02*
X148530000Y-83760000D01*
X148530000Y-86360000D02*
X148530000Y-134680000D01*
X148530000Y-86360000D02*
X151130000Y-86360000D01*
X148530000Y-134680000D02*
X153730000Y-134680000D01*
X151130000Y-83760000D02*
X153730000Y-83760000D01*
X151130000Y-86360000D02*
X151130000Y-83760000D01*
X153730000Y-83760000D02*
X153730000Y-134680000D01*
%TD*%
M02*
