M48
; DRILL file {KiCad 7.0.9} date Wed Dec 20 19:14:45 2023
; FORMAT={-:-/ absolute / inch / decimal}
; #@! TF.CreationDate,2023-12-20T19:14:45+00:00
; #@! TF.GenerationSoftware,Kicad,Pcbnew,7.0.9
; #@! TF.FileFunction,Plated,1,2,PTH
FMAT,2
INCH
; #@! TA.AperFunction,Plated,PTH,ComponentDrill
T1C0.0300
; #@! TA.AperFunction,Plated,PTH,ComponentDrill
T2C0.0315
; #@! TA.AperFunction,Plated,PTH,ComponentDrill
T3C0.0394
%
G90
G05
T1
X4.4961Y-2.55
X4.4961Y-2.65
X4.4961Y-2.75
X4.4961Y-5.55
X4.4961Y-6.15
X4.4961Y-6.25
X4.5Y-1.15
X4.5Y-1.25
X4.5Y-1.35
X4.5Y-1.45
X4.5Y-1.55
X4.5Y-1.65
X4.5Y-1.75
X4.5Y-1.85
X4.5Y-1.95
X4.5Y-2.05
X4.5Y-2.15
X4.5Y-2.25
X4.5Y-2.35
X4.5Y-2.45
X4.5Y-2.85
X4.5Y-2.95
X4.5Y-3.05
X4.5Y-3.15
X4.5Y-3.25
X4.5Y-3.35
X4.5Y-3.45
X4.5Y-3.55
X4.5Y-3.65
X4.5Y-3.75
X4.5Y-3.85
X4.5Y-3.95
X4.5Y-4.05
X4.5Y-4.15
X4.5Y-4.25
X4.5Y-4.35
X4.5Y-4.45
X4.5Y-4.55
X4.5Y-4.65
X4.5Y-4.75
X4.5Y-4.85
X4.5Y-4.95
X4.5Y-5.05
X4.5Y-5.15
X4.5Y-5.25
X4.5Y-5.35
X4.5Y-5.45
X4.5Y-5.65
X4.5Y-5.75
X4.5Y-5.85
X4.5Y-5.95
X4.5Y-6.05
X4.5Y-6.35
X4.5Y-6.45
X4.5Y-6.55
X4.5Y-6.65
X4.5Y-6.75
X4.5Y-6.85
X4.5Y-6.95
X4.5Y-7.05
X4.5Y-7.15
X4.5Y-7.25
X4.5Y-7.35
X4.5Y-7.45
X4.5961Y-2.55
X4.5961Y-2.65
X4.5961Y-2.75
X4.5961Y-3.95
X4.5961Y-5.55
X4.5961Y-6.15
X4.5961Y-6.25
X4.6Y-1.15
X4.6Y-1.25
X4.6Y-1.35
X4.6Y-1.45
X4.6Y-1.55
X4.6Y-1.65
X4.6Y-1.75
X4.6Y-1.85
X4.6Y-1.95
X4.6Y-2.05
X4.6Y-2.15
X4.6Y-2.25
X4.6Y-2.35
X4.6Y-2.45
X4.6Y-2.85
X4.6Y-2.95
X4.6Y-3.05
X4.6Y-3.15
X4.6Y-3.25
X4.6Y-3.35
X4.6Y-3.45
X4.6Y-3.55
X4.6Y-3.65
X4.6Y-3.75
X4.6Y-3.85
X4.6Y-4.05
X4.6Y-4.15
X4.6Y-4.25
X4.6Y-4.35
X4.6Y-4.45
X4.6Y-4.55
X4.6Y-4.65
X4.6Y-4.75
X4.6Y-4.85
X4.6Y-4.95
X4.6Y-5.05
X4.6Y-5.15
X4.6Y-5.25
X4.6Y-5.35
X4.6Y-5.45
X4.6Y-5.65
X4.6Y-5.75
X4.6Y-5.85
X4.6Y-5.95
X4.6Y-6.05
X4.6Y-6.35
X4.6Y-6.45
X4.6Y-6.55
X4.6Y-6.65
X4.6Y-6.75
X4.6Y-6.85
X4.6Y-6.95
X4.6Y-7.05
X4.6Y-7.15
X4.6Y-7.25
X4.6Y-7.35
X4.6Y-7.45
X4.7961Y-2.55
X4.7961Y-2.65
X4.7961Y-2.75
X4.7961Y-3.95
X4.7961Y-5.55
X4.7961Y-6.15
X4.7961Y-6.25
X4.8Y-1.15
X4.8Y-1.25
X4.8Y-1.35
X4.8Y-1.45
X4.8Y-1.55
X4.8Y-1.65
X4.8Y-1.75
X4.8Y-1.85
X4.8Y-1.95
X4.8Y-2.05
X4.8Y-2.15
X4.8Y-2.25
X4.8Y-2.35
X4.8Y-2.45
X4.8Y-2.85
X4.8Y-2.95
X4.8Y-3.05
X4.8Y-3.15
X4.8Y-3.25
X4.8Y-3.35
X4.8Y-3.45
X4.8Y-3.55
X4.8Y-3.65
X4.8Y-3.75
X4.8Y-3.85
X4.8Y-4.05
X4.8Y-4.15
X4.8Y-4.25
X4.8Y-4.35
X4.8Y-4.45
X4.8Y-4.55
X4.8Y-4.65
X4.8Y-4.75
X4.8Y-4.85
X4.8Y-4.95
X4.8Y-5.05
X4.8Y-5.15
X4.8Y-5.25
X4.8Y-5.35
X4.8Y-5.45
X4.8Y-5.65
X4.8Y-5.75
X4.8Y-5.85
X4.8Y-5.95
X4.8Y-6.05
X4.8Y-6.35
X4.8Y-6.45
X4.8Y-6.55
X4.8Y-6.65
X4.8Y-6.75
X4.8Y-6.85
X4.8Y-6.95
X4.8Y-7.05
X4.8Y-7.15
X4.8Y-7.25
X4.8Y-7.35
X4.8Y-7.45
X4.8961Y-2.55
X4.8961Y-2.65
X4.8961Y-2.75
X4.8961Y-5.55
X4.8961Y-6.15
X4.8961Y-6.25
X4.9Y-1.15
X4.9Y-1.25
X4.9Y-1.35
X4.9Y-1.45
X4.9Y-1.55
X4.9Y-1.65
X4.9Y-1.75
X4.9Y-1.85
X4.9Y-1.95
X4.9Y-2.05
X4.9Y-2.15
X4.9Y-2.25
X4.9Y-2.35
X4.9Y-2.45
X4.9Y-2.85
X4.9Y-2.95
X4.9Y-3.05
X4.9Y-3.15
X4.9Y-3.25
X4.9Y-3.35
X4.9Y-3.45
X4.9Y-3.55
X4.9Y-3.65
X4.9Y-3.75
X4.9Y-3.85
X4.9Y-3.95
X4.9Y-4.05
X4.9Y-4.15
X4.9Y-4.25
X4.9Y-4.35
X4.9Y-4.45
X4.9Y-4.55
X4.9Y-4.65
X4.9Y-4.75
X4.9Y-4.85
X4.9Y-4.95
X4.9Y-5.05
X4.9Y-5.15
X4.9Y-5.25
X4.9Y-5.35
X4.9Y-5.45
X4.9Y-5.65
X4.9Y-5.75
X4.9Y-5.85
X4.9Y-5.95
X4.9Y-6.05
X4.9Y-6.35
X4.9Y-6.45
X4.9Y-6.55
X4.9Y-6.65
X4.9Y-6.75
X4.9Y-6.85
X4.9Y-6.95
X4.9Y-7.05
X4.9Y-7.15
X4.9Y-7.25
X4.9Y-7.35
X4.9Y-7.45
X5.2Y-1.15
X5.2Y-1.25
X5.2Y-1.35
X5.2Y-1.45
X5.2Y-1.55
X5.2Y-1.65
X5.2Y-1.75
X5.2Y-1.85
X5.2Y-1.95
X5.2Y-2.05
X5.2Y-2.15
X5.2Y-2.25
X5.2Y-2.35
X5.2Y-2.45
X5.2Y-2.55
X5.2Y-2.65
X5.2Y-2.75
X5.2Y-2.85
X5.2Y-2.95
X5.2Y-3.05
X5.2Y-3.15
X5.2Y-3.25
X5.2Y-3.35
X5.2Y-3.45
X5.2Y-3.55
X5.2Y-3.65
X5.2Y-3.75
X5.2Y-3.85
X5.2Y-3.95
X5.2Y-4.05
X5.2Y-4.15
X5.2Y-4.25
X5.2Y-4.35
X5.2Y-4.45
X5.2Y-4.55
X5.2Y-4.65
X5.2Y-4.75
X5.2Y-4.85
X5.2Y-4.95
X5.2Y-5.05
X5.2Y-5.15
X5.2Y-5.25
X5.2Y-5.35
X5.2Y-5.45
X5.2Y-5.55
X5.2Y-5.65
X5.2Y-5.75
X5.2Y-5.85
X5.2Y-5.95
X5.2Y-6.05
X5.2Y-6.15
X5.2Y-6.25
X5.2Y-6.35
X5.2Y-6.45
X5.2Y-6.55
X5.2Y-6.65
X5.2Y-6.75
X5.2Y-6.85
X5.2Y-6.95
X5.2Y-7.05
X5.2Y-7.15
X5.2Y-7.25
X5.2Y-7.35
X5.2Y-7.45
X5.3Y-1.15
X5.3Y-1.25
X5.3Y-1.35
X5.3Y-1.45
X5.3Y-1.55
X5.3Y-1.65
X5.3Y-1.75
X5.3Y-1.85
X5.3Y-1.95
X5.3Y-2.05
X5.3Y-2.15
X5.3Y-2.25
X5.3Y-2.35
X5.3Y-2.45
X5.3Y-2.55
X5.3Y-2.65
X5.3Y-2.75
X5.3Y-2.85
X5.3Y-2.95
X5.3Y-3.05
X5.3Y-3.15
X5.3Y-3.25
X5.3Y-3.35
X5.3Y-3.45
X5.3Y-3.55
X5.3Y-3.65
X5.3Y-3.75
X5.3Y-3.85
X5.3Y-3.95
X5.3Y-4.05
X5.3Y-4.15
X5.3Y-4.25
X5.3Y-4.35
X5.3Y-4.45
X5.3Y-4.55
X5.3Y-4.65
X5.3Y-4.75
X5.3Y-4.85
X5.3Y-4.95
X5.3Y-5.05
X5.3Y-5.15
X5.3Y-5.25
X5.3Y-5.35
X5.3Y-5.45
X5.3Y-5.55
X5.3Y-5.65
X5.3Y-5.75
X5.3Y-5.85
X5.3Y-5.95
X5.3Y-6.05
X5.3Y-6.15
X5.3Y-6.25
X5.3Y-6.35
X5.3Y-6.45
X5.3Y-6.55
X5.3Y-6.65
X5.3Y-6.75
X5.3Y-6.85
X5.3Y-6.95
X5.3Y-7.05
X5.3Y-7.15
X5.3Y-7.25
X5.3Y-7.35
X5.3Y-7.45
X5.5Y-1.15
X5.5Y-1.25
X5.5Y-1.35
X5.5Y-1.45
X5.5Y-1.55
X5.5Y-1.65
X5.5Y-1.75
X5.5Y-1.85
X5.5Y-1.95
X5.5Y-2.05
X5.5Y-2.15
X5.5Y-2.25
X5.5Y-2.35
X5.5Y-2.45
X5.5Y-2.55
X5.5Y-2.65
X5.5Y-2.75
X5.5Y-2.85
X5.5Y-2.95
X5.5Y-3.05
X5.5Y-3.15
X5.5Y-3.25
X5.5Y-3.35
X5.5Y-3.45
X5.5Y-3.55
X5.5Y-3.65
X5.5Y-3.75
X5.5Y-3.85
X5.5Y-3.95
X5.5Y-4.05
X5.5Y-4.15
X5.5Y-4.25
X5.5Y-4.35
X5.5Y-4.45
X5.5Y-4.55
X5.5Y-4.65
X5.5Y-4.75
X5.5Y-4.85
X5.5Y-4.95
X5.5Y-5.05
X5.5Y-5.15
X5.5Y-5.25
X5.5Y-5.35
X5.5Y-5.45
X5.5Y-5.55
X5.5Y-5.65
X5.5Y-5.75
X5.5Y-5.85
X5.5Y-5.95
X5.5Y-6.05
X5.5Y-6.15
X5.5Y-6.25
X5.5Y-6.35
X5.5Y-6.45
X5.5Y-6.55
X5.5Y-6.65
X5.5Y-6.75
X5.5Y-6.85
X5.5Y-6.95
X5.5Y-7.05
X5.5Y-7.15
X5.5Y-7.25
X5.5Y-7.35
X5.5Y-7.45
X5.6Y-1.15
X5.6Y-1.25
X5.6Y-1.35
X5.6Y-1.45
X5.6Y-1.55
X5.6Y-1.65
X5.6Y-1.75
X5.6Y-1.85
X5.6Y-1.95
X5.6Y-2.05
X5.6Y-2.15
X5.6Y-2.25
X5.6Y-2.35
X5.6Y-2.45
X5.6Y-2.55
X5.6Y-2.65
X5.6Y-2.75
X5.6Y-2.85
X5.6Y-2.95
X5.6Y-3.05
X5.6Y-3.15
X5.6Y-3.25
X5.6Y-3.35
X5.6Y-3.45
X5.6Y-3.55
X5.6Y-3.65
X5.6Y-3.75
X5.6Y-3.85
X5.6Y-3.95
X5.6Y-4.05
X5.6Y-4.15
X5.6Y-4.25
X5.6Y-4.35
X5.6Y-4.45
X5.6Y-4.55
X5.6Y-4.65
X5.6Y-4.75
X5.6Y-4.85
X5.6Y-4.95
X5.6Y-5.05
X5.6Y-5.15
X5.6Y-5.25
X5.6Y-5.35
X5.6Y-5.45
X5.6Y-5.55
X5.6Y-5.65
X5.6Y-5.75
X5.6Y-5.85
X5.6Y-5.95
X5.6Y-6.05
X5.6Y-6.15
X5.6Y-6.25
X5.6Y-6.35
X5.6Y-6.45
X5.6Y-6.55
X5.6Y-6.65
X5.6Y-6.75
X5.6Y-6.85
X5.6Y-6.95
X5.6Y-7.05
X5.6Y-7.15
X5.6Y-7.25
X5.6Y-7.35
X5.6Y-7.45
T2
X4.6961Y-2.55
X4.6961Y-2.65
X4.6961Y-2.75
X4.6961Y-5.55
X4.6961Y-6.15
X4.6961Y-6.25
X4.7Y-1.15
X4.7Y-1.25
X4.7Y-1.35
X4.7Y-1.45
X4.7Y-1.55
X4.7Y-1.65
X4.7Y-1.75
X4.7Y-1.85
X4.7Y-1.95
X4.7Y-2.05
X4.7Y-2.15
X4.7Y-2.25
X4.7Y-2.35
X4.7Y-2.45
X4.7Y-2.85
X4.7Y-2.95
X4.7Y-3.05
X4.7Y-3.15
X4.7Y-3.25
X4.7Y-3.35
X4.7Y-3.45
X4.7Y-3.55
X4.7Y-3.65
X4.7Y-3.75
X4.7Y-3.85
X4.7Y-3.95
X4.7Y-4.05
X4.7Y-4.15
X4.7Y-4.25
X4.7Y-4.35
X4.7Y-4.45
X4.7Y-4.55
X4.7Y-4.65
X4.7Y-4.75
X4.7Y-4.85
X4.7Y-4.95
X4.7Y-5.05
X4.7Y-5.15
X4.7Y-5.25
X4.7Y-5.35
X4.7Y-5.45
X4.7Y-5.65
X4.7Y-5.75
X4.7Y-5.85
X4.7Y-5.95
X4.7Y-6.05
X4.7Y-6.35
X4.7Y-6.45
X4.7Y-6.55
X4.7Y-6.65
X4.7Y-6.75
X4.7Y-6.85
X4.7Y-6.95
X4.7Y-7.05
X4.7Y-7.15
X4.7Y-7.25
X4.7Y-7.35
X4.7Y-7.45
X5.4Y-1.15
X5.4Y-1.25
X5.4Y-1.35
X5.4Y-1.45
X5.4Y-1.55
X5.4Y-1.65
X5.4Y-1.75
X5.4Y-1.85
X5.4Y-1.95
X5.4Y-2.05
X5.4Y-2.15
X5.4Y-2.25
X5.4Y-2.35
X5.4Y-2.45
X5.4Y-2.55
X5.4Y-2.65
X5.4Y-2.75
X5.4Y-2.85
X5.4Y-2.95
X5.4Y-3.05
X5.4Y-3.15
X5.4Y-3.25
X5.4Y-3.35
X5.4Y-3.45
X5.4Y-3.55
X5.4Y-3.65
X5.4Y-3.75
X5.4Y-3.85
X5.4Y-3.95
X5.4Y-4.05
X5.4Y-4.15
X5.4Y-4.25
X5.4Y-4.35
X5.4Y-4.45
X5.4Y-4.55
X5.4Y-4.65
X5.4Y-4.75
X5.4Y-4.85
X5.4Y-4.95
X5.4Y-5.05
X5.4Y-5.15
X5.4Y-5.25
X5.4Y-5.35
X5.4Y-5.45
X5.4Y-5.55
X5.4Y-5.65
X5.4Y-5.75
X5.4Y-5.85
X5.4Y-5.95
X5.4Y-6.05
X5.4Y-6.15
X5.4Y-6.25
X5.4Y-6.35
X5.4Y-6.45
X5.4Y-6.55
X5.4Y-6.65
X5.4Y-6.75
X5.4Y-6.85
X5.4Y-6.95
X5.4Y-7.05
X5.4Y-7.15
X5.4Y-7.25
X5.4Y-7.35
X5.4Y-7.45
T3
X4.1Y-1.25
X4.1Y-1.35
X4.1Y-1.45
X4.1Y-1.55
X4.1Y-1.65
X4.1Y-1.75
X4.1Y-1.85
X4.1Y-1.95
X4.1Y-2.05
X4.1Y-2.15
X4.1Y-2.25
X4.1Y-2.35
X4.1Y-2.45
X4.1Y-2.55
X4.1Y-2.65
X4.1Y-2.75
X4.1Y-2.85
X4.1Y-2.95
X4.1Y-3.05
X4.1Y-3.15
X4.1Y-3.35
X4.1Y-3.45
X4.1Y-3.55
X4.1Y-3.65
X4.1Y-3.75
X4.1Y-3.85
X4.1Y-3.95
X4.1Y-4.05
X4.1Y-4.15
X4.1Y-4.25
X4.1Y-4.35
X4.1Y-4.45
X4.1Y-4.55
X4.1Y-4.65
X4.1Y-4.75
X4.1Y-4.85
X4.1Y-4.95
X4.1Y-5.05
X4.1Y-5.15
X4.1Y-5.25
X4.1Y-5.45
X4.1Y-5.55
X4.1Y-5.65
X4.1Y-5.75
X4.1Y-5.85
X4.1Y-5.95
X4.1Y-6.05
X4.1Y-6.15
X4.1Y-6.25
X4.1Y-6.35
X4.1Y-6.45
X4.1Y-6.55
X4.1Y-6.65
X4.1Y-6.75
X4.1Y-6.85
X4.1Y-6.95
X4.1Y-7.05
X4.1Y-7.15
X4.1Y-7.25
X4.1Y-7.35
X4.2Y-1.25
X4.2Y-1.35
X4.2Y-1.45
X4.2Y-1.55
X4.2Y-1.65
X4.2Y-1.75
X4.2Y-1.85
X4.2Y-1.95
X4.2Y-2.05
X4.2Y-2.15
X4.2Y-2.25
X4.2Y-2.35
X4.2Y-2.45
X4.2Y-2.55
X4.2Y-2.65
X4.2Y-2.75
X4.2Y-2.85
X4.2Y-2.95
X4.2Y-3.05
X4.2Y-3.15
X4.2Y-3.35
X4.2Y-3.45
X4.2Y-3.55
X4.2Y-3.65
X4.2Y-3.75
X4.2Y-3.85
X4.2Y-3.95
X4.2Y-4.05
X4.2Y-4.15
X4.2Y-4.25
X4.2Y-4.35
X4.2Y-4.45
X4.2Y-4.55
X4.2Y-4.65
X4.2Y-4.75
X4.2Y-4.85
X4.2Y-4.95
X4.2Y-5.05
X4.2Y-5.15
X4.2Y-5.25
X4.2Y-5.45
X4.2Y-5.55
X4.2Y-5.65
X4.2Y-5.75
X4.2Y-5.85
X4.2Y-5.95
X4.2Y-6.05
X4.2Y-6.15
X4.2Y-6.25
X4.2Y-6.35
X4.2Y-6.45
X4.2Y-6.55
X4.2Y-6.65
X4.2Y-6.75
X4.2Y-6.85
X4.2Y-6.95
X4.2Y-7.05
X4.2Y-7.15
X4.2Y-7.25
X4.2Y-7.35
X5.9Y-1.25
X5.9Y-1.35
X5.9Y-1.45
X5.9Y-1.55
X5.9Y-1.65
X5.9Y-1.75
X5.9Y-1.85
X5.9Y-1.95
X5.9Y-2.05
X5.9Y-2.15
X5.9Y-2.25
X5.9Y-2.35
X5.9Y-2.45
X5.9Y-2.55
X5.9Y-2.65
X5.9Y-2.75
X5.9Y-2.85
X5.9Y-2.95
X5.9Y-3.05
X5.9Y-3.15
X5.9Y-3.35
X5.9Y-3.45
X5.9Y-3.55
X5.9Y-3.65
X5.9Y-3.75
X5.9Y-3.85
X5.9Y-3.95
X5.9Y-4.05
X5.9Y-4.15
X5.9Y-4.25
X5.9Y-4.35
X5.9Y-4.45
X5.9Y-4.55
X5.9Y-4.65
X5.9Y-4.75
X5.9Y-4.85
X5.9Y-4.95
X5.9Y-5.05
X5.9Y-5.15
X5.9Y-5.25
X5.9Y-5.45
X5.9Y-5.55
X5.9Y-5.65
X5.9Y-5.75
X5.9Y-5.85
X5.9Y-5.95
X5.9Y-6.05
X5.9Y-6.15
X5.9Y-6.25
X5.9Y-6.35
X5.9Y-6.45
X5.9Y-6.55
X5.9Y-6.65
X5.9Y-6.75
X5.9Y-6.85
X5.9Y-6.95
X5.9Y-7.05
X5.9Y-7.15
X5.9Y-7.25
X5.9Y-7.35
X6.0Y-1.25
X6.0Y-1.35
X6.0Y-1.45
X6.0Y-1.55
X6.0Y-1.65
X6.0Y-1.75
X6.0Y-1.85
X6.0Y-1.95
X6.0Y-2.05
X6.0Y-2.15
X6.0Y-2.25
X6.0Y-2.35
X6.0Y-2.45
X6.0Y-2.55
X6.0Y-2.65
X6.0Y-2.75
X6.0Y-2.85
X6.0Y-2.95
X6.0Y-3.05
X6.0Y-3.15
X6.0Y-3.35
X6.0Y-3.45
X6.0Y-3.55
X6.0Y-3.65
X6.0Y-3.75
X6.0Y-3.85
X6.0Y-3.95
X6.0Y-4.05
X6.0Y-4.15
X6.0Y-4.25
X6.0Y-4.35
X6.0Y-4.45
X6.0Y-4.55
X6.0Y-4.65
X6.0Y-4.75
X6.0Y-4.85
X6.0Y-4.95
X6.0Y-5.05
X6.0Y-5.15
X6.0Y-5.25
X6.0Y-5.45
X6.0Y-5.55
X6.0Y-5.65
X6.0Y-5.75
X6.0Y-5.85
X6.0Y-5.95
X6.0Y-6.05
X6.0Y-6.15
X6.0Y-6.25
X6.0Y-6.35
X6.0Y-6.45
X6.0Y-6.55
X6.0Y-6.65
X6.0Y-6.75
X6.0Y-6.85
X6.0Y-6.95
X6.0Y-7.05
X6.0Y-7.15
X6.0Y-7.25
X6.0Y-7.35
T0
M30
