%TF.GenerationSoftware,KiCad,Pcbnew,7.0.9*%
%TF.CreationDate,2023-12-20T19:14:48+00:00*%
%TF.ProjectId,ToastedBreadBoard128,546f6173-7465-4644-9272-656164426f61,rev?*%
%TF.SameCoordinates,Original*%
%TF.FileFunction,Copper,L2,Bot*%
%TF.FilePolarity,Positive*%
%FSLAX46Y46*%
G04 Gerber Fmt 4.6, Leading zero omitted, Abs format (unit mm)*
G04 Created by KiCad (PCBNEW 7.0.9) date 2023-12-20 19:14:48*
%MOMM*%
%LPD*%
G01*
G04 APERTURE LIST*
%TA.AperFunction,ComponentPad*%
%ADD10R,1.524000X1.524000*%
%TD*%
%TA.AperFunction,ComponentPad*%
%ADD11C,1.524000*%
%TD*%
%TA.AperFunction,ComponentPad*%
%ADD12O,11.700000X1.524000*%
%TD*%
%TA.AperFunction,ComponentPad*%
%ADD13R,1.700000X1.700000*%
%TD*%
%TA.AperFunction,ComponentPad*%
%ADD14O,1.700000X1.700000*%
%TD*%
%TA.AperFunction,Conductor*%
%ADD15C,1.000000*%
%TD*%
G04 APERTURE END LIST*
D10*
%TO.P,U1,1,PIN1*%
%TO.N,unconnected-(U1-PIN1-Pad1)*%
X124460000Y-29210000D03*
D11*
X121920000Y-29210000D03*
D12*
X119380000Y-29210000D03*
D11*
X116840000Y-29210000D03*
D10*
X114300000Y-29210000D03*
D11*
%TO.P,U1,2,PIN2*%
%TO.N,unconnected-(U1-PIN2-Pad2)*%
X124460000Y-31750000D03*
X121920000Y-31750000D03*
D12*
X119380000Y-31750000D03*
D11*
X116840000Y-31750000D03*
X114300000Y-31750000D03*
%TO.P,U1,3,PIN3*%
%TO.N,unconnected-(U1-PIN3-Pad3)*%
X124460000Y-34290000D03*
X121920000Y-34290000D03*
D12*
X119380000Y-34290000D03*
D11*
X116840000Y-34290000D03*
X114300000Y-34290000D03*
%TO.P,U1,4,PIN4*%
%TO.N,unconnected-(U1-PIN4-Pad4)*%
X124460000Y-36830000D03*
X121920000Y-36830000D03*
D12*
X119380000Y-36830000D03*
D11*
X116840000Y-36830000D03*
X114300000Y-36830000D03*
%TO.P,U1,5,PIN5*%
%TO.N,unconnected-(U1-PIN5-Pad5)*%
X124460000Y-39370000D03*
X121920000Y-39370000D03*
D12*
X119380000Y-39370000D03*
D11*
X116840000Y-39370000D03*
X114300000Y-39370000D03*
%TO.P,U1,6,PIN6*%
%TO.N,unconnected-(U1-PIN6-Pad6)*%
X124460000Y-41910000D03*
X121920000Y-41910000D03*
D12*
X119380000Y-41910000D03*
D11*
X116840000Y-41910000D03*
X114300000Y-41910000D03*
%TO.P,U1,7,PIN7*%
%TO.N,unconnected-(U1-PIN7-Pad7)*%
X124460000Y-44450000D03*
X121920000Y-44450000D03*
D12*
X119380000Y-44450000D03*
D11*
X116840000Y-44450000D03*
X114300000Y-44450000D03*
%TO.P,U1,8,PIN8*%
%TO.N,unconnected-(U1-PIN8-Pad8)*%
X124460000Y-46990000D03*
X121920000Y-46990000D03*
D12*
X119380000Y-46990000D03*
D11*
X116840000Y-46990000D03*
X114300000Y-46990000D03*
%TO.P,U1,9,PIN9*%
%TO.N,unconnected-(U1-PIN9-Pad9)*%
X124460000Y-49530000D03*
X121920000Y-49530000D03*
D12*
X119380000Y-49530000D03*
D11*
X116840000Y-49530000D03*
X114300000Y-49530000D03*
%TO.P,U1,10,PIN10*%
%TO.N,unconnected-(U1-PIN10-Pad10)*%
X124460000Y-52070000D03*
X121920000Y-52070000D03*
D12*
X119380000Y-52070000D03*
D11*
X116840000Y-52070000D03*
X114300000Y-52070000D03*
%TO.P,U1,11,PIN11*%
%TO.N,unconnected-(U1-PIN11-Pad11)*%
X124460000Y-54610000D03*
X121920000Y-54610000D03*
D12*
X119380000Y-54610000D03*
D11*
X116840000Y-54610000D03*
X114300000Y-54610000D03*
%TO.P,U1,12,PIN12*%
%TO.N,unconnected-(U1-PIN12-Pad12)*%
X124460000Y-57150000D03*
X121920000Y-57150000D03*
D12*
X119380000Y-57150000D03*
D11*
X116840000Y-57150000D03*
X114300000Y-57150000D03*
%TO.P,U1,13,PIN13*%
%TO.N,unconnected-(U1-PIN13-Pad13)*%
X124460000Y-59690000D03*
X121920000Y-59690000D03*
D12*
X119380000Y-59690000D03*
D11*
X116840000Y-59690000D03*
X114300000Y-59690000D03*
%TO.P,U1,14,PIN14*%
%TO.N,unconnected-(U1-PIN14-Pad14)*%
X124460000Y-62230000D03*
X121920000Y-62230000D03*
D12*
X119380000Y-62230000D03*
D11*
X116840000Y-62230000D03*
X114300000Y-62230000D03*
%TO.P,U1,15,PIN15*%
%TO.N,unconnected-(U1-PIN15-Pad15)*%
X124360000Y-64770000D03*
X121820000Y-64770000D03*
D12*
X119280000Y-64770000D03*
D11*
X116740000Y-64770000D03*
X114200000Y-64770000D03*
%TO.P,U1,16,PIN16*%
%TO.N,unconnected-(U1-PIN16-Pad16)*%
X124360000Y-67310000D03*
X121820000Y-67310000D03*
D12*
X119280000Y-67310000D03*
D11*
X116740000Y-67310000D03*
X114200000Y-67310000D03*
%TO.P,U1,17,PIN17*%
%TO.N,unconnected-(U1-PIN17-Pad17)*%
X124360000Y-69850000D03*
X121820000Y-69850000D03*
D12*
X119280000Y-69850000D03*
D11*
X116740000Y-69850000D03*
X114200000Y-69850000D03*
%TO.P,U1,18,PIN18*%
%TO.N,unconnected-(U1-PIN18-Pad18)*%
X124460000Y-72390000D03*
X121920000Y-72390000D03*
D12*
X119380000Y-72390000D03*
D11*
X116840000Y-72390000D03*
X114300000Y-72390000D03*
%TO.P,U1,19,PIN19*%
%TO.N,unconnected-(U1-PIN19-Pad19)*%
X124460000Y-74930000D03*
X121920000Y-74930000D03*
D12*
X119380000Y-74930000D03*
D11*
X116840000Y-74930000D03*
X114300000Y-74930000D03*
%TO.P,U1,20,PIN20*%
%TO.N,unconnected-(U1-PIN20-Pad20)*%
X124460000Y-77470000D03*
X121920000Y-77470000D03*
D12*
X119380000Y-77470000D03*
D11*
X116840000Y-77470000D03*
X114300000Y-77470000D03*
%TO.P,U1,21,PIN21*%
%TO.N,unconnected-(U1-PIN21-Pad21)*%
X124460000Y-80010000D03*
X121920000Y-80010000D03*
D12*
X119380000Y-80010000D03*
D11*
X116840000Y-80010000D03*
X114300000Y-80010000D03*
%TO.P,U1,22,PIN22*%
%TO.N,unconnected-(U1-PIN22-Pad22)*%
X124460000Y-82550000D03*
X121920000Y-82550000D03*
D12*
X119380000Y-82550000D03*
D11*
X116840000Y-82550000D03*
X114300000Y-82550000D03*
%TO.P,U1,23,PIN23*%
%TO.N,unconnected-(U1-PIN23-Pad23)*%
X124460000Y-85090000D03*
X121920000Y-85090000D03*
D12*
X119380000Y-85090000D03*
D11*
X116840000Y-85090000D03*
X114300000Y-85090000D03*
%TO.P,U1,24,PIN24*%
%TO.N,unconnected-(U1-PIN24-Pad24)*%
X124460000Y-87630000D03*
X121920000Y-87630000D03*
D12*
X119380000Y-87630000D03*
D11*
X116840000Y-87630000D03*
X114300000Y-87630000D03*
%TO.P,U1,25,PIN25*%
%TO.N,unconnected-(U1-PIN25-Pad25)*%
X124460000Y-90170000D03*
X121920000Y-90170000D03*
D12*
X119380000Y-90170000D03*
D11*
X116840000Y-90170000D03*
X114300000Y-90170000D03*
%TO.P,U1,26,PIN26*%
%TO.N,unconnected-(U1-PIN26-Pad26)*%
X124460000Y-92710000D03*
X121920000Y-92710000D03*
D12*
X119380000Y-92710000D03*
D11*
X116840000Y-92710000D03*
X114300000Y-92710000D03*
%TO.P,U1,27,PIN27*%
%TO.N,unconnected-(U1-PIN27-Pad27)*%
X124460000Y-95250000D03*
X121920000Y-95250000D03*
D12*
X119380000Y-95250000D03*
D11*
X116840000Y-95250000D03*
X114300000Y-95250000D03*
%TO.P,U1,28,PIN28*%
%TO.N,unconnected-(U1-PIN28-Pad28)*%
X124460000Y-97790000D03*
X121920000Y-97790000D03*
D12*
X119380000Y-97790000D03*
D11*
X116840000Y-97790000D03*
X114300000Y-97790000D03*
%TO.P,U1,29,PIN29*%
%TO.N,unconnected-(U1-PIN29-Pad29)*%
X124460000Y-100330000D03*
X121820000Y-100330000D03*
D12*
X119380000Y-100330000D03*
D11*
X116740000Y-100330000D03*
X114300000Y-100330000D03*
%TO.P,U1,30,PIN30*%
%TO.N,unconnected-(U1-PIN30-Pad30)*%
X124460000Y-102870000D03*
X121920000Y-102870000D03*
D12*
X119380000Y-102870000D03*
D11*
X116840000Y-102870000D03*
X114300000Y-102870000D03*
%TO.P,U1,31,PIN31*%
%TO.N,unconnected-(U1-PIN31-Pad31)*%
X124460000Y-105410000D03*
X121920000Y-105410000D03*
D12*
X119380000Y-105410000D03*
D11*
X116840000Y-105410000D03*
X114300000Y-105410000D03*
%TO.P,U1,32,PIN32*%
%TO.N,unconnected-(U1-PIN32-Pad32)*%
X124460000Y-107950000D03*
X121920000Y-107950000D03*
D12*
X119380000Y-107950000D03*
D11*
X116840000Y-107950000D03*
X114300000Y-107950000D03*
%TO.P,U1,33,PIN33*%
%TO.N,unconnected-(U1-PIN33-Pad33)*%
X124460000Y-110490000D03*
X121920000Y-110490000D03*
D12*
X119380000Y-110490000D03*
D11*
X116840000Y-110490000D03*
X114300000Y-110490000D03*
%TO.P,U1,34,PIN34*%
%TO.N,unconnected-(U1-PIN34-Pad34)*%
X124460000Y-113030000D03*
X121920000Y-113030000D03*
D12*
X119380000Y-113030000D03*
D11*
X116840000Y-113030000D03*
X114300000Y-113030000D03*
%TO.P,U1,35,PIN35*%
%TO.N,unconnected-(U1-PIN35-Pad35)*%
X124460000Y-115570000D03*
X121920000Y-115570000D03*
D12*
X119380000Y-115570000D03*
D11*
X116840000Y-115570000D03*
X114300000Y-115570000D03*
%TO.P,U1,36,PIN36*%
%TO.N,unconnected-(U1-PIN36-Pad36)*%
X124460000Y-118110000D03*
X121920000Y-118110000D03*
D12*
X119380000Y-118110000D03*
D11*
X116840000Y-118110000D03*
X114300000Y-118110000D03*
%TO.P,U1,37,PIN37*%
%TO.N,unconnected-(U1-PIN37-Pad37)*%
X124460000Y-120650000D03*
X121920000Y-120650000D03*
D12*
X119380000Y-120650000D03*
D11*
X116840000Y-120650000D03*
X114300000Y-120650000D03*
%TO.P,U1,38,PIN38*%
%TO.N,unconnected-(U1-PIN38-Pad38)*%
X124460000Y-123190000D03*
X121920000Y-123190000D03*
D12*
X119380000Y-123190000D03*
D11*
X116840000Y-123190000D03*
X114300000Y-123190000D03*
%TO.P,U1,39,PIN39*%
%TO.N,unconnected-(U1-PIN39-Pad39)*%
X124460000Y-125730000D03*
X121920000Y-125730000D03*
D12*
X119380000Y-125730000D03*
D11*
X116840000Y-125730000D03*
X114300000Y-125730000D03*
%TO.P,U1,40,PIN40*%
%TO.N,unconnected-(U1-PIN40-Pad40)*%
X124460000Y-128270000D03*
X121920000Y-128270000D03*
D12*
X119380000Y-128270000D03*
D11*
X116840000Y-128270000D03*
X114300000Y-128270000D03*
%TO.P,U1,41,PIN41*%
%TO.N,unconnected-(U1-PIN41-Pad41)*%
X124460000Y-130810000D03*
X121920000Y-130810000D03*
D12*
X119380000Y-130810000D03*
D11*
X116840000Y-130810000D03*
X114300000Y-130810000D03*
%TO.P,U1,42,PIN42*%
%TO.N,unconnected-(U1-PIN42-Pad42)*%
X124460000Y-133350000D03*
X121920000Y-133350000D03*
D12*
X119380000Y-133350000D03*
D11*
X116840000Y-133350000D03*
X114300000Y-133350000D03*
%TO.P,U1,43,PIN43*%
%TO.N,unconnected-(U1-PIN43-Pad43)*%
X124460000Y-135890000D03*
X121920000Y-135890000D03*
D12*
X119380000Y-135890000D03*
D11*
X116840000Y-135890000D03*
X114300000Y-135890000D03*
%TO.P,U1,44,PIN44*%
%TO.N,unconnected-(U1-PIN44-Pad44)*%
X124460000Y-138430000D03*
X121920000Y-138430000D03*
D12*
X119380000Y-138430000D03*
D11*
X116840000Y-138430000D03*
X114300000Y-138430000D03*
%TO.P,U1,45,PIN45*%
%TO.N,unconnected-(U1-PIN45-Pad45)*%
X124360000Y-140970000D03*
X121820000Y-140970000D03*
D12*
X119280000Y-140970000D03*
D11*
X116740000Y-140970000D03*
X114200000Y-140970000D03*
%TO.P,U1,46,PIN46*%
%TO.N,unconnected-(U1-PIN46-Pad46)*%
X124460000Y-143510000D03*
X121920000Y-143510000D03*
D12*
X119380000Y-143510000D03*
D11*
X116840000Y-143510000D03*
X114300000Y-143510000D03*
%TO.P,U1,47,PIN47*%
%TO.N,unconnected-(U1-PIN47-Pad47)*%
X124460000Y-146050000D03*
X121920000Y-146050000D03*
D12*
X119380000Y-146050000D03*
D11*
X116840000Y-146050000D03*
X114300000Y-146050000D03*
%TO.P,U1,48,PIN48*%
%TO.N,unconnected-(U1-PIN48-Pad48)*%
X124460000Y-148590000D03*
X121920000Y-148590000D03*
D12*
X119380000Y-148590000D03*
D11*
X116840000Y-148590000D03*
X114300000Y-148590000D03*
%TO.P,U1,49,PIN49*%
%TO.N,unconnected-(U1-PIN49-Pad49)*%
X124460000Y-151130000D03*
X121920000Y-151130000D03*
D12*
X119380000Y-151130000D03*
D11*
X116840000Y-151130000D03*
X114300000Y-151130000D03*
%TO.P,U1,50,PIN50*%
%TO.N,unconnected-(U1-PIN50-Pad50)*%
X124460000Y-153670000D03*
X121920000Y-153670000D03*
D12*
X119380000Y-153670000D03*
D11*
X116840000Y-153670000D03*
X114300000Y-153670000D03*
%TO.P,U1,51,PIN51*%
%TO.N,unconnected-(U1-PIN51-Pad51)*%
X124360000Y-156210000D03*
X121820000Y-156210000D03*
D12*
X119280000Y-156210000D03*
D11*
X116740000Y-156210000D03*
X114200000Y-156210000D03*
%TO.P,U1,52,PIN52*%
%TO.N,unconnected-(U1-PIN52-Pad52)*%
X124360000Y-158750000D03*
X121820000Y-158750000D03*
D12*
X119280000Y-158750000D03*
D11*
X116740000Y-158750000D03*
X114200000Y-158750000D03*
%TO.P,U1,53,PIN53*%
%TO.N,unconnected-(U1-PIN53-Pad53)*%
X124460000Y-161290000D03*
X121920000Y-161290000D03*
D12*
X119380000Y-161290000D03*
D11*
X116840000Y-161290000D03*
X114300000Y-161290000D03*
%TO.P,U1,54,PIN54*%
%TO.N,unconnected-(U1-PIN54-Pad54)*%
X124460000Y-163830000D03*
X121920000Y-163830000D03*
D12*
X119380000Y-163830000D03*
D11*
X116840000Y-163830000D03*
X114300000Y-163830000D03*
%TO.P,U1,55,PIN55*%
%TO.N,unconnected-(U1-PIN55-Pad55)*%
X124460000Y-166370000D03*
X121920000Y-166370000D03*
D12*
X119380000Y-166370000D03*
D11*
X116840000Y-166370000D03*
X114300000Y-166370000D03*
%TO.P,U1,56,PIN56*%
%TO.N,unconnected-(U1-PIN56-Pad56)*%
X124460000Y-168910000D03*
X121920000Y-168910000D03*
D12*
X119380000Y-168910000D03*
D11*
X116840000Y-168910000D03*
X114300000Y-168910000D03*
%TO.P,U1,57,PIN57*%
%TO.N,unconnected-(U1-PIN57-Pad57)*%
X124460000Y-171450000D03*
X121920000Y-171450000D03*
D12*
X119380000Y-171450000D03*
D11*
X116840000Y-171450000D03*
X114300000Y-171450000D03*
%TO.P,U1,58,PIN58*%
%TO.N,unconnected-(U1-PIN58-Pad58)*%
X124460000Y-173990000D03*
X121920000Y-173990000D03*
D12*
X119380000Y-173990000D03*
D11*
X116840000Y-173990000D03*
X114300000Y-173990000D03*
%TO.P,U1,59,PIN59*%
%TO.N,unconnected-(U1-PIN59-Pad59)*%
X124460000Y-176530000D03*
X121920000Y-176530000D03*
D12*
X119380000Y-176530000D03*
D11*
X116840000Y-176530000D03*
X114300000Y-176530000D03*
%TO.P,U1,60,PIN60*%
%TO.N,unconnected-(U1-PIN60-Pad60)*%
X124460000Y-179070000D03*
X121920000Y-179070000D03*
D12*
X119380000Y-179070000D03*
D11*
X116840000Y-179070000D03*
X114300000Y-179070000D03*
%TO.P,U1,61,PIN61*%
%TO.N,unconnected-(U1-PIN61-Pad61)*%
X124460000Y-181610000D03*
X121920000Y-181610000D03*
D12*
X119380000Y-181610000D03*
D11*
X116840000Y-181610000D03*
X114300000Y-181610000D03*
%TO.P,U1,62,PIN62*%
%TO.N,unconnected-(U1-PIN62-Pad62)*%
X124460000Y-184150000D03*
X121920000Y-184150000D03*
D12*
X119380000Y-184150000D03*
D11*
X116840000Y-184150000D03*
X114300000Y-184150000D03*
%TO.P,U1,63,PIN63*%
%TO.N,unconnected-(U1-PIN63-Pad63)*%
X124460000Y-186690000D03*
X121920000Y-186690000D03*
D12*
X119380000Y-186690000D03*
D11*
X116840000Y-186690000D03*
X114300000Y-186690000D03*
%TO.P,U1,64,PIN64*%
%TO.N,unconnected-(U1-PIN64-Pad64)*%
X124460000Y-189230000D03*
X121920000Y-189230000D03*
D12*
X119380000Y-189230000D03*
D11*
X116840000Y-189230000D03*
X114300000Y-189230000D03*
%TO.P,U1,65,PIN65*%
%TO.N,unconnected-(U1-PIN65-Pad65)*%
X142240000Y-189230000D03*
X139700000Y-189230000D03*
D12*
X137160000Y-189230000D03*
D11*
X134620000Y-189230000D03*
X132080000Y-189230000D03*
%TO.P,U1,66,PIN66*%
%TO.N,unconnected-(U1-PIN66-Pad66)*%
X142240000Y-186690000D03*
X139700000Y-186690000D03*
D12*
X137160000Y-186690000D03*
D11*
X134620000Y-186690000D03*
X132080000Y-186690000D03*
%TO.P,U1,67,PIN67*%
%TO.N,unconnected-(U1-PIN67-Pad67)*%
X142240000Y-184150000D03*
X139700000Y-184150000D03*
D12*
X137160000Y-184150000D03*
D11*
X134620000Y-184150000D03*
X132080000Y-184150000D03*
%TO.P,U1,68,PIN68*%
%TO.N,unconnected-(U1-PIN68-Pad68)*%
X142240000Y-181610000D03*
X139700000Y-181610000D03*
D12*
X137160000Y-181610000D03*
D11*
X134620000Y-181610000D03*
X132080000Y-181610000D03*
%TO.P,U1,69,PIN69*%
%TO.N,unconnected-(U1-PIN69-Pad69)*%
X142240000Y-179070000D03*
X139700000Y-179070000D03*
D12*
X137160000Y-179070000D03*
D11*
X134620000Y-179070000D03*
X132080000Y-179070000D03*
%TO.P,U1,70,PIN70*%
%TO.N,unconnected-(U1-PIN70-Pad70)*%
X142240000Y-176530000D03*
X139700000Y-176530000D03*
D12*
X137160000Y-176530000D03*
D11*
X134620000Y-176530000D03*
X132080000Y-176530000D03*
%TO.P,U1,71,PIN71*%
%TO.N,unconnected-(U1-PIN71-Pad71)*%
X142240000Y-173990000D03*
X139700000Y-173990000D03*
D12*
X137160000Y-173990000D03*
D11*
X134620000Y-173990000D03*
X132080000Y-173990000D03*
%TO.P,U1,72,PIN72*%
%TO.N,unconnected-(U1-PIN72-Pad72)*%
X142240000Y-171450000D03*
X139700000Y-171450000D03*
D12*
X137160000Y-171450000D03*
D11*
X134620000Y-171450000D03*
X132080000Y-171450000D03*
%TO.P,U1,73,PIN73*%
%TO.N,unconnected-(U1-PIN73-Pad73)*%
X142240000Y-168910000D03*
X139700000Y-168910000D03*
D12*
X137160000Y-168910000D03*
D11*
X134620000Y-168910000D03*
X132080000Y-168910000D03*
%TO.P,U1,74,PIN74*%
%TO.N,unconnected-(U1-PIN74-Pad74)*%
X142240000Y-166370000D03*
X139700000Y-166370000D03*
D12*
X137160000Y-166370000D03*
D11*
X134620000Y-166370000D03*
X132080000Y-166370000D03*
%TO.P,U1,75,PIN75*%
%TO.N,unconnected-(U1-PIN75-Pad75)*%
X142240000Y-163830000D03*
X139700000Y-163830000D03*
D12*
X137160000Y-163830000D03*
D11*
X134620000Y-163830000D03*
X132080000Y-163830000D03*
%TO.P,U1,76,PIN76*%
%TO.N,unconnected-(U1-PIN76-Pad76)*%
X142240000Y-161290000D03*
X139700000Y-161290000D03*
D12*
X137160000Y-161290000D03*
D11*
X134620000Y-161290000D03*
X132080000Y-161290000D03*
%TO.P,U1,77,PIN77*%
%TO.N,unconnected-(U1-PIN77-Pad77)*%
X142240000Y-158750000D03*
X139700000Y-158750000D03*
D12*
X137160000Y-158750000D03*
D11*
X134620000Y-158750000D03*
X132080000Y-158750000D03*
%TO.P,U1,78,PIN78*%
%TO.N,unconnected-(U1-PIN78-Pad78)*%
X142240000Y-156210000D03*
X139700000Y-156210000D03*
D12*
X137160000Y-156210000D03*
D11*
X134620000Y-156210000D03*
X132080000Y-156210000D03*
%TO.P,U1,79,PIN79*%
%TO.N,unconnected-(U1-PIN79-Pad79)*%
X142240000Y-153670000D03*
X139700000Y-153670000D03*
D12*
X137160000Y-153670000D03*
D11*
X134620000Y-153670000D03*
X132080000Y-153670000D03*
%TO.P,U1,80,PIN80*%
%TO.N,unconnected-(U1-PIN80-Pad80)*%
X142240000Y-151130000D03*
X139700000Y-151130000D03*
D12*
X137160000Y-151130000D03*
D11*
X134620000Y-151130000D03*
X132080000Y-151130000D03*
%TO.P,U1,81,PIN81*%
%TO.N,unconnected-(U1-PIN81-Pad81)*%
X142240000Y-148590000D03*
X139700000Y-148590000D03*
D12*
X137160000Y-148590000D03*
D11*
X134620000Y-148590000D03*
X132080000Y-148590000D03*
%TO.P,U1,82,PIN82*%
%TO.N,unconnected-(U1-PIN82-Pad82)*%
X142240000Y-146050000D03*
X139700000Y-146050000D03*
D12*
X137160000Y-146050000D03*
D11*
X134620000Y-146050000D03*
X132080000Y-146050000D03*
%TO.P,U1,83,PIN83*%
%TO.N,unconnected-(U1-PIN83-Pad83)*%
X142240000Y-143510000D03*
X139700000Y-143510000D03*
D12*
X137160000Y-143510000D03*
D11*
X134620000Y-143510000D03*
X132080000Y-143510000D03*
%TO.P,U1,84,PIN84*%
%TO.N,unconnected-(U1-PIN84-Pad84)*%
X142240000Y-140970000D03*
X139700000Y-140970000D03*
D12*
X137160000Y-140970000D03*
D11*
X134620000Y-140970000D03*
X132080000Y-140970000D03*
%TO.P,U1,85,PIN85*%
%TO.N,unconnected-(U1-PIN85-Pad85)*%
X142240000Y-138430000D03*
X139700000Y-138430000D03*
D12*
X137160000Y-138430000D03*
D11*
X134620000Y-138430000D03*
X132080000Y-138430000D03*
%TO.P,U1,86,PIN86*%
%TO.N,unconnected-(U1-PIN86-Pad86)*%
X142240000Y-135890000D03*
X139700000Y-135890000D03*
D12*
X137160000Y-135890000D03*
D11*
X134620000Y-135890000D03*
X132080000Y-135890000D03*
%TO.P,U1,87,PIN87*%
%TO.N,unconnected-(U1-PIN87-Pad87)*%
X142240000Y-133350000D03*
X139700000Y-133350000D03*
D12*
X137160000Y-133350000D03*
D11*
X134620000Y-133350000D03*
X132080000Y-133350000D03*
%TO.P,U1,88,PIN88*%
%TO.N,unconnected-(U1-PIN88-Pad88)*%
X142240000Y-130810000D03*
X139700000Y-130810000D03*
D12*
X137160000Y-130810000D03*
D11*
X134620000Y-130810000D03*
X132080000Y-130810000D03*
%TO.P,U1,89,PIN89*%
%TO.N,unconnected-(U1-PIN89-Pad89)*%
X142240000Y-128270000D03*
X139700000Y-128270000D03*
D12*
X137160000Y-128270000D03*
D11*
X134620000Y-128270000D03*
X132080000Y-128270000D03*
%TO.P,U1,90,PIN90*%
%TO.N,unconnected-(U1-PIN90-Pad90)*%
X142240000Y-125730000D03*
X139700000Y-125730000D03*
D12*
X137160000Y-125730000D03*
D11*
X134620000Y-125730000D03*
X132080000Y-125730000D03*
%TO.P,U1,91,PIN91*%
%TO.N,unconnected-(U1-PIN91-Pad91)*%
X142240000Y-123190000D03*
X139700000Y-123190000D03*
D12*
X137160000Y-123190000D03*
D11*
X134620000Y-123190000D03*
X132080000Y-123190000D03*
%TO.P,U1,92,PIN92*%
%TO.N,unconnected-(U1-PIN92-Pad92)*%
X142240000Y-120650000D03*
X139700000Y-120650000D03*
D12*
X137160000Y-120650000D03*
D11*
X134620000Y-120650000D03*
X132080000Y-120650000D03*
%TO.P,U1,93,PIN93*%
%TO.N,unconnected-(U1-PIN93-Pad93)*%
X142240000Y-118110000D03*
X139700000Y-118110000D03*
D12*
X137160000Y-118110000D03*
D11*
X134620000Y-118110000D03*
X132080000Y-118110000D03*
%TO.P,U1,94,PIN94*%
%TO.N,unconnected-(U1-PIN94-Pad94)*%
X142240000Y-115570000D03*
X139700000Y-115570000D03*
D12*
X137160000Y-115570000D03*
D11*
X134620000Y-115570000D03*
X132080000Y-115570000D03*
%TO.P,U1,95,PIN95*%
%TO.N,unconnected-(U1-PIN95-Pad95)*%
X142240000Y-113030000D03*
X139700000Y-113030000D03*
D12*
X137160000Y-113030000D03*
D11*
X134620000Y-113030000D03*
X132080000Y-113030000D03*
%TO.P,U1,96,PIN96*%
%TO.N,unconnected-(U1-PIN96-Pad96)*%
X142240000Y-110490000D03*
X139700000Y-110490000D03*
D12*
X137160000Y-110490000D03*
D11*
X134620000Y-110490000D03*
X132080000Y-110490000D03*
%TO.P,U1,97,PIN97*%
%TO.N,unconnected-(U1-PIN97-Pad97)*%
X142240000Y-107950000D03*
X139700000Y-107950000D03*
D12*
X137160000Y-107950000D03*
D11*
X134620000Y-107950000D03*
X132080000Y-107950000D03*
%TO.P,U1,98,PIN98*%
%TO.N,unconnected-(U1-PIN98-Pad98)*%
X142240000Y-105410000D03*
X139700000Y-105410000D03*
D12*
X137160000Y-105410000D03*
D11*
X134620000Y-105410000D03*
X132080000Y-105410000D03*
%TO.P,U1,99,PIN99*%
%TO.N,unconnected-(U1-PIN99-Pad99)*%
X142240000Y-102870000D03*
X139700000Y-102870000D03*
D12*
X137160000Y-102870000D03*
D11*
X134620000Y-102870000D03*
X132080000Y-102870000D03*
%TO.P,U1,100,PIN100*%
%TO.N,unconnected-(U1-PIN100-Pad100)*%
X142240000Y-100330000D03*
X139700000Y-100330000D03*
D12*
X137160000Y-100330000D03*
D11*
X134620000Y-100330000D03*
X132080000Y-100330000D03*
%TO.P,U1,101,PIN101*%
%TO.N,unconnected-(U1-PIN101-Pad101)*%
X142240000Y-97790000D03*
X139700000Y-97790000D03*
D12*
X137160000Y-97790000D03*
D11*
X134620000Y-97790000D03*
X132080000Y-97790000D03*
%TO.P,U1,102,PIN102*%
%TO.N,unconnected-(U1-PIN102-Pad102)*%
X142240000Y-95250000D03*
X139700000Y-95250000D03*
D12*
X137160000Y-95250000D03*
D11*
X134620000Y-95250000D03*
X132080000Y-95250000D03*
%TO.P,U1,103,PIN103*%
%TO.N,unconnected-(U1-PIN103-Pad103)*%
X142240000Y-92710000D03*
X139700000Y-92710000D03*
D12*
X137160000Y-92710000D03*
D11*
X134620000Y-92710000D03*
X132080000Y-92710000D03*
%TO.P,U1,104,PIN104*%
%TO.N,unconnected-(U1-PIN104-Pad104)*%
X142240000Y-90170000D03*
X139700000Y-90170000D03*
D12*
X137160000Y-90170000D03*
D11*
X134620000Y-90170000D03*
X132080000Y-90170000D03*
%TO.P,U1,105,PIN105*%
%TO.N,unconnected-(U1-PIN105-Pad105)*%
X142240000Y-87630000D03*
X139700000Y-87630000D03*
D12*
X137160000Y-87630000D03*
D11*
X134620000Y-87630000D03*
X132080000Y-87630000D03*
%TO.P,U1,106,PIN106*%
%TO.N,unconnected-(U1-PIN106-Pad106)*%
X142240000Y-85090000D03*
X139700000Y-85090000D03*
D12*
X137160000Y-85090000D03*
D11*
X134620000Y-85090000D03*
X132080000Y-85090000D03*
%TO.P,U1,107,PIN107*%
%TO.N,unconnected-(U1-PIN107-Pad107)*%
X142240000Y-82550000D03*
X139700000Y-82550000D03*
D12*
X137160000Y-82550000D03*
D11*
X134620000Y-82550000D03*
X132080000Y-82550000D03*
%TO.P,U1,108,PIN108*%
%TO.N,unconnected-(U1-PIN108-Pad108)*%
X142240000Y-80010000D03*
X139700000Y-80010000D03*
D12*
X137160000Y-80010000D03*
D11*
X134620000Y-80010000D03*
X132080000Y-80010000D03*
%TO.P,U1,109,PIN109*%
%TO.N,unconnected-(U1-PIN109-Pad109)*%
X142240000Y-77470000D03*
X139700000Y-77470000D03*
D12*
X137160000Y-77470000D03*
D11*
X134620000Y-77470000D03*
X132080000Y-77470000D03*
%TO.P,U1,110,PIN110*%
%TO.N,unconnected-(U1-PIN110-Pad110)*%
X142240000Y-74930000D03*
X139700000Y-74930000D03*
D12*
X137160000Y-74930000D03*
D11*
X134620000Y-74930000D03*
X132080000Y-74930000D03*
%TO.P,U1,111,PIN111*%
%TO.N,unconnected-(U1-PIN111-Pad111)*%
X142240000Y-72390000D03*
X139700000Y-72390000D03*
D12*
X137160000Y-72390000D03*
D11*
X134620000Y-72390000D03*
X132080000Y-72390000D03*
%TO.P,U1,112,PIN112*%
%TO.N,unconnected-(U1-PIN112-Pad112)*%
X142240000Y-69850000D03*
X139700000Y-69850000D03*
D12*
X137160000Y-69850000D03*
D11*
X134620000Y-69850000D03*
X132080000Y-69850000D03*
%TO.P,U1,113,PIN113*%
%TO.N,unconnected-(U1-PIN113-Pad113)*%
X142240000Y-67310000D03*
X139700000Y-67310000D03*
D12*
X137160000Y-67310000D03*
D11*
X134620000Y-67310000D03*
X132080000Y-67310000D03*
%TO.P,U1,114,PIN114*%
%TO.N,unconnected-(U1-PIN114-Pad114)*%
X142240000Y-64770000D03*
X139700000Y-64770000D03*
D12*
X137160000Y-64770000D03*
D11*
X134620000Y-64770000D03*
X132080000Y-64770000D03*
%TO.P,U1,115,PIN115*%
%TO.N,unconnected-(U1-PIN115-Pad115)*%
X142240000Y-62230000D03*
X139700000Y-62230000D03*
D12*
X137160000Y-62230000D03*
D11*
X134620000Y-62230000D03*
X132080000Y-62230000D03*
%TO.P,U1,116,PIN116*%
%TO.N,unconnected-(U1-PIN116-Pad116)*%
X142240000Y-59690000D03*
X139700000Y-59690000D03*
D12*
X137160000Y-59690000D03*
D11*
X134620000Y-59690000D03*
X132080000Y-59690000D03*
%TO.P,U1,117,PIN117*%
%TO.N,unconnected-(U1-PIN117-Pad117)*%
X142240000Y-57150000D03*
X139700000Y-57150000D03*
D12*
X137160000Y-57150000D03*
D11*
X134620000Y-57150000D03*
X132080000Y-57150000D03*
%TO.P,U1,118,PIN118*%
%TO.N,unconnected-(U1-PIN118-Pad118)*%
X142240000Y-54610000D03*
X139700000Y-54610000D03*
D12*
X137160000Y-54610000D03*
D11*
X134620000Y-54610000D03*
X132080000Y-54610000D03*
%TO.P,U1,119,PIN119*%
%TO.N,unconnected-(U1-PIN119-Pad119)*%
X142240000Y-52070000D03*
X139700000Y-52070000D03*
D12*
X137160000Y-52070000D03*
D11*
X134620000Y-52070000D03*
X132080000Y-52070000D03*
%TO.P,U1,120,PIN120*%
%TO.N,unconnected-(U1-PIN120-Pad120)*%
X142240000Y-49530000D03*
X139700000Y-49530000D03*
D12*
X137160000Y-49530000D03*
D11*
X134620000Y-49530000D03*
X132080000Y-49530000D03*
%TO.P,U1,121,PIN121*%
%TO.N,unconnected-(U1-PIN121-Pad121)*%
X142240000Y-46990000D03*
X139700000Y-46990000D03*
D12*
X137160000Y-46990000D03*
D11*
X134620000Y-46990000D03*
X132080000Y-46990000D03*
%TO.P,U1,122,PIN122*%
%TO.N,unconnected-(U1-PIN122-Pad122)*%
X142240000Y-44450000D03*
X139700000Y-44450000D03*
D12*
X137160000Y-44450000D03*
D11*
X134620000Y-44450000D03*
X132080000Y-44450000D03*
%TO.P,U1,123,PIN123*%
%TO.N,unconnected-(U1-PIN123-Pad123)*%
X142240000Y-41910000D03*
X139700000Y-41910000D03*
D12*
X137160000Y-41910000D03*
D11*
X134620000Y-41910000D03*
X132080000Y-41910000D03*
%TO.P,U1,124,PIN124*%
%TO.N,unconnected-(U1-PIN124-Pad124)*%
X142240000Y-39370000D03*
X139700000Y-39370000D03*
D12*
X137160000Y-39370000D03*
D11*
X134620000Y-39370000D03*
X132080000Y-39370000D03*
%TO.P,U1,125,PIN125*%
%TO.N,unconnected-(U1-PIN125-Pad125)*%
X142240000Y-36830000D03*
X139700000Y-36830000D03*
D12*
X137160000Y-36830000D03*
D11*
X134620000Y-36830000D03*
X132080000Y-36830000D03*
%TO.P,U1,126,PIN126*%
%TO.N,unconnected-(U1-PIN126-Pad126)*%
X142240000Y-34290000D03*
X139700000Y-34290000D03*
D12*
X137160000Y-34290000D03*
D11*
X134620000Y-34290000D03*
X132080000Y-34290000D03*
%TO.P,U1,127,PIN125*%
%TO.N,unconnected-(U1-PIN125-Pad127)*%
X142240000Y-31750000D03*
X139700000Y-31750000D03*
D12*
X137160000Y-31750000D03*
D11*
X134620000Y-31750000D03*
X132080000Y-31750000D03*
%TO.P,U1,128,PIN126*%
%TO.N,unconnected-(U1-PIN126-Pad128)*%
X142240000Y-29210000D03*
X139700000Y-29210000D03*
D12*
X137160000Y-29210000D03*
D11*
X134620000Y-29210000D03*
X132080000Y-29210000D03*
%TD*%
D13*
%TO.P,J6,1,Pin_1*%
%TO.N,Net-(J6-Pin_1)*%
X149860000Y-138430000D03*
D14*
%TO.P,J6,2,Pin_2*%
%TO.N,Net-(J6-Pin_10)*%
X152400000Y-138430000D03*
%TO.P,J6,3,Pin_3*%
%TO.N,Net-(J6-Pin_1)*%
X149860000Y-140970000D03*
%TO.P,J6,4,Pin_4*%
%TO.N,Net-(J6-Pin_10)*%
X152400000Y-140970000D03*
%TO.P,J6,5,Pin_5*%
%TO.N,Net-(J6-Pin_1)*%
X149860000Y-143510000D03*
%TO.P,J6,6,Pin_6*%
%TO.N,Net-(J6-Pin_10)*%
X152400000Y-143510000D03*
%TO.P,J6,7,Pin_7*%
%TO.N,Net-(J6-Pin_1)*%
X149860000Y-146050000D03*
%TO.P,J6,8,Pin_8*%
%TO.N,Net-(J6-Pin_10)*%
X152400000Y-146050000D03*
%TO.P,J6,9,Pin_9*%
%TO.N,Net-(J6-Pin_1)*%
X149860000Y-148590000D03*
%TO.P,J6,10,Pin_10*%
%TO.N,Net-(J6-Pin_10)*%
X152400000Y-148590000D03*
%TO.P,J6,11,Pin_11*%
%TO.N,Net-(J6-Pin_1)*%
X149860000Y-151130000D03*
%TO.P,J6,12,Pin_12*%
%TO.N,Net-(J6-Pin_10)*%
X152400000Y-151130000D03*
%TO.P,J6,13,Pin_13*%
%TO.N,Net-(J6-Pin_1)*%
X149860000Y-153670000D03*
%TO.P,J6,14,Pin_14*%
%TO.N,Net-(J6-Pin_10)*%
X152400000Y-153670000D03*
%TO.P,J6,15,Pin_15*%
%TO.N,Net-(J6-Pin_1)*%
X149860000Y-156210000D03*
%TO.P,J6,16,Pin_16*%
%TO.N,Net-(J6-Pin_10)*%
X152400000Y-156210000D03*
%TO.P,J6,17,Pin_17*%
%TO.N,Net-(J6-Pin_1)*%
X149860000Y-158750000D03*
%TO.P,J6,18,Pin_18*%
%TO.N,Net-(J6-Pin_10)*%
X152400000Y-158750000D03*
%TO.P,J6,19,Pin_19*%
%TO.N,Net-(J6-Pin_1)*%
X149860000Y-161290000D03*
%TO.P,J6,20,Pin_20*%
%TO.N,Net-(J6-Pin_10)*%
X152400000Y-161290000D03*
%TO.P,J6,21,Pin_21*%
%TO.N,Net-(J6-Pin_1)*%
X149860000Y-163830000D03*
%TO.P,J6,22,Pin_22*%
%TO.N,Net-(J6-Pin_10)*%
X152400000Y-163830000D03*
%TO.P,J6,23,Pin_23*%
%TO.N,Net-(J6-Pin_1)*%
X149860000Y-166370000D03*
%TO.P,J6,24,Pin_24*%
%TO.N,Net-(J6-Pin_10)*%
X152400000Y-166370000D03*
%TO.P,J6,25,Pin_25*%
%TO.N,Net-(J6-Pin_1)*%
X149860000Y-168910000D03*
%TO.P,J6,26,Pin_26*%
%TO.N,Net-(J6-Pin_10)*%
X152400000Y-168910000D03*
%TO.P,J6,27,Pin_27*%
%TO.N,Net-(J6-Pin_1)*%
X149860000Y-171450000D03*
%TO.P,J6,28,Pin_28*%
%TO.N,Net-(J6-Pin_10)*%
X152400000Y-171450000D03*
%TO.P,J6,29,Pin_29*%
%TO.N,Net-(J6-Pin_1)*%
X149860000Y-173990000D03*
%TO.P,J6,30,Pin_30*%
%TO.N,Net-(J6-Pin_10)*%
X152400000Y-173990000D03*
%TO.P,J6,31,Pin_31*%
%TO.N,Net-(J6-Pin_1)*%
X149860000Y-176530000D03*
%TO.P,J6,32,Pin_32*%
%TO.N,Net-(J6-Pin_10)*%
X152400000Y-176530000D03*
%TO.P,J6,33,Pin_33*%
%TO.N,Net-(J6-Pin_1)*%
X149860000Y-179070000D03*
%TO.P,J6,34,Pin_34*%
%TO.N,Net-(J6-Pin_10)*%
X152400000Y-179070000D03*
%TO.P,J6,35,Pin_35*%
%TO.N,Net-(J6-Pin_1)*%
X149860000Y-181610000D03*
%TO.P,J6,36,Pin_36*%
%TO.N,Net-(J6-Pin_10)*%
X152400000Y-181610000D03*
%TO.P,J6,37,Pin_37*%
%TO.N,Net-(J6-Pin_1)*%
X149860000Y-184150000D03*
%TO.P,J6,38,Pin_38*%
%TO.N,Net-(J6-Pin_10)*%
X152400000Y-184150000D03*
%TO.P,J6,39,Pin_39*%
%TO.N,Net-(J6-Pin_1)*%
X149860000Y-186690000D03*
%TO.P,J6,40,Pin_40*%
%TO.N,Net-(J6-Pin_10)*%
X152400000Y-186690000D03*
%TD*%
D13*
%TO.P,J4,1,Pin_1*%
%TO.N,Net-(J4-Pin_1)*%
X149860000Y-31750000D03*
D14*
%TO.P,J4,2,Pin_2*%
%TO.N,Net-(J4-Pin_10)*%
X152400000Y-31750000D03*
%TO.P,J4,3,Pin_3*%
%TO.N,Net-(J4-Pin_1)*%
X149860000Y-34290000D03*
%TO.P,J4,4,Pin_4*%
%TO.N,Net-(J4-Pin_10)*%
X152400000Y-34290000D03*
%TO.P,J4,5,Pin_5*%
%TO.N,Net-(J4-Pin_1)*%
X149860000Y-36830000D03*
%TO.P,J4,6,Pin_6*%
%TO.N,Net-(J4-Pin_10)*%
X152400000Y-36830000D03*
%TO.P,J4,7,Pin_7*%
%TO.N,Net-(J4-Pin_1)*%
X149860000Y-39370000D03*
%TO.P,J4,8,Pin_8*%
%TO.N,Net-(J4-Pin_10)*%
X152400000Y-39370000D03*
%TO.P,J4,9,Pin_9*%
%TO.N,Net-(J4-Pin_1)*%
X149860000Y-41910000D03*
%TO.P,J4,10,Pin_10*%
%TO.N,Net-(J4-Pin_10)*%
X152400000Y-41910000D03*
%TO.P,J4,11,Pin_11*%
%TO.N,Net-(J4-Pin_1)*%
X149860000Y-44450000D03*
%TO.P,J4,12,Pin_12*%
%TO.N,Net-(J4-Pin_10)*%
X152400000Y-44450000D03*
%TO.P,J4,13,Pin_13*%
%TO.N,Net-(J4-Pin_1)*%
X149860000Y-46990000D03*
%TO.P,J4,14,Pin_14*%
%TO.N,Net-(J4-Pin_10)*%
X152400000Y-46990000D03*
%TO.P,J4,15,Pin_15*%
%TO.N,Net-(J4-Pin_1)*%
X149860000Y-49530000D03*
%TO.P,J4,16,Pin_16*%
%TO.N,Net-(J4-Pin_10)*%
X152400000Y-49530000D03*
%TO.P,J4,17,Pin_17*%
%TO.N,Net-(J4-Pin_1)*%
X149860000Y-52070000D03*
%TO.P,J4,18,Pin_18*%
%TO.N,Net-(J4-Pin_10)*%
X152400000Y-52070000D03*
%TO.P,J4,19,Pin_19*%
%TO.N,Net-(J4-Pin_1)*%
X149860000Y-54610000D03*
%TO.P,J4,20,Pin_20*%
%TO.N,Net-(J4-Pin_10)*%
X152400000Y-54610000D03*
%TO.P,J4,21,Pin_21*%
%TO.N,Net-(J4-Pin_1)*%
X149860000Y-57150000D03*
%TO.P,J4,22,Pin_22*%
%TO.N,Net-(J4-Pin_10)*%
X152400000Y-57150000D03*
%TO.P,J4,23,Pin_23*%
%TO.N,Net-(J4-Pin_1)*%
X149860000Y-59690000D03*
%TO.P,J4,24,Pin_24*%
%TO.N,Net-(J4-Pin_10)*%
X152400000Y-59690000D03*
%TO.P,J4,25,Pin_25*%
%TO.N,Net-(J4-Pin_1)*%
X149860000Y-62230000D03*
%TO.P,J4,26,Pin_26*%
%TO.N,Net-(J4-Pin_10)*%
X152400000Y-62230000D03*
%TO.P,J4,27,Pin_27*%
%TO.N,Net-(J4-Pin_1)*%
X149860000Y-64770000D03*
%TO.P,J4,28,Pin_28*%
%TO.N,Net-(J4-Pin_10)*%
X152400000Y-64770000D03*
%TO.P,J4,29,Pin_29*%
%TO.N,Net-(J4-Pin_1)*%
X149860000Y-67310000D03*
%TO.P,J4,30,Pin_30*%
%TO.N,Net-(J4-Pin_10)*%
X152400000Y-67310000D03*
%TO.P,J4,31,Pin_31*%
%TO.N,Net-(J4-Pin_1)*%
X149860000Y-69850000D03*
%TO.P,J4,32,Pin_32*%
%TO.N,Net-(J4-Pin_10)*%
X152400000Y-69850000D03*
%TO.P,J4,33,Pin_33*%
%TO.N,Net-(J4-Pin_1)*%
X149860000Y-72390000D03*
%TO.P,J4,34,Pin_34*%
%TO.N,Net-(J4-Pin_10)*%
X152400000Y-72390000D03*
%TO.P,J4,35,Pin_35*%
%TO.N,Net-(J4-Pin_1)*%
X149860000Y-74930000D03*
%TO.P,J4,36,Pin_36*%
%TO.N,Net-(J4-Pin_10)*%
X152400000Y-74930000D03*
%TO.P,J4,37,Pin_37*%
%TO.N,Net-(J4-Pin_1)*%
X149860000Y-77470000D03*
%TO.P,J4,38,Pin_38*%
%TO.N,Net-(J4-Pin_10)*%
X152400000Y-77470000D03*
%TO.P,J4,39,Pin_39*%
%TO.N,Net-(J4-Pin_1)*%
X149860000Y-80010000D03*
%TO.P,J4,40,Pin_40*%
%TO.N,Net-(J4-Pin_10)*%
X152400000Y-80010000D03*
%TD*%
D13*
%TO.P,J2,1,Pin_1*%
%TO.N,Net-(J2-Pin_1)*%
X104140000Y-85090000D03*
D14*
%TO.P,J2,2,Pin_2*%
%TO.N,Net-(J2-Pin_10)*%
X106680000Y-85090000D03*
%TO.P,J2,3,Pin_3*%
%TO.N,Net-(J2-Pin_1)*%
X104140000Y-87630000D03*
%TO.P,J2,4,Pin_4*%
%TO.N,Net-(J2-Pin_10)*%
X106680000Y-87630000D03*
%TO.P,J2,5,Pin_5*%
%TO.N,Net-(J2-Pin_1)*%
X104140000Y-90170000D03*
%TO.P,J2,6,Pin_6*%
%TO.N,Net-(J2-Pin_10)*%
X106680000Y-90170000D03*
%TO.P,J2,7,Pin_7*%
%TO.N,Net-(J2-Pin_1)*%
X104140000Y-92710000D03*
%TO.P,J2,8,Pin_8*%
%TO.N,Net-(J2-Pin_10)*%
X106680000Y-92710000D03*
%TO.P,J2,9,Pin_9*%
%TO.N,Net-(J2-Pin_1)*%
X104140000Y-95250000D03*
%TO.P,J2,10,Pin_10*%
%TO.N,Net-(J2-Pin_10)*%
X106680000Y-95250000D03*
%TO.P,J2,11,Pin_11*%
%TO.N,Net-(J2-Pin_1)*%
X104140000Y-97790000D03*
%TO.P,J2,12,Pin_12*%
%TO.N,Net-(J2-Pin_10)*%
X106680000Y-97790000D03*
%TO.P,J2,13,Pin_13*%
%TO.N,Net-(J2-Pin_1)*%
X104140000Y-100330000D03*
%TO.P,J2,14,Pin_14*%
%TO.N,Net-(J2-Pin_10)*%
X106680000Y-100330000D03*
%TO.P,J2,15,Pin_15*%
%TO.N,Net-(J2-Pin_1)*%
X104140000Y-102870000D03*
%TO.P,J2,16,Pin_16*%
%TO.N,Net-(J2-Pin_10)*%
X106680000Y-102870000D03*
%TO.P,J2,17,Pin_17*%
%TO.N,Net-(J2-Pin_1)*%
X104140000Y-105410000D03*
%TO.P,J2,18,Pin_18*%
%TO.N,Net-(J2-Pin_10)*%
X106680000Y-105410000D03*
%TO.P,J2,19,Pin_19*%
%TO.N,Net-(J2-Pin_1)*%
X104140000Y-107950000D03*
%TO.P,J2,20,Pin_20*%
%TO.N,Net-(J2-Pin_10)*%
X106680000Y-107950000D03*
%TO.P,J2,21,Pin_21*%
%TO.N,Net-(J2-Pin_1)*%
X104140000Y-110490000D03*
%TO.P,J2,22,Pin_22*%
%TO.N,Net-(J2-Pin_10)*%
X106680000Y-110490000D03*
%TO.P,J2,23,Pin_23*%
%TO.N,Net-(J2-Pin_1)*%
X104140000Y-113030000D03*
%TO.P,J2,24,Pin_24*%
%TO.N,Net-(J2-Pin_10)*%
X106680000Y-113030000D03*
%TO.P,J2,25,Pin_25*%
%TO.N,Net-(J2-Pin_1)*%
X104140000Y-115570000D03*
%TO.P,J2,26,Pin_26*%
%TO.N,Net-(J2-Pin_10)*%
X106680000Y-115570000D03*
%TO.P,J2,27,Pin_27*%
%TO.N,Net-(J2-Pin_1)*%
X104140000Y-118110000D03*
%TO.P,J2,28,Pin_28*%
%TO.N,Net-(J2-Pin_10)*%
X106680000Y-118110000D03*
%TO.P,J2,29,Pin_29*%
%TO.N,Net-(J2-Pin_1)*%
X104140000Y-120650000D03*
%TO.P,J2,30,Pin_30*%
%TO.N,Net-(J2-Pin_10)*%
X106680000Y-120650000D03*
%TO.P,J2,31,Pin_31*%
%TO.N,Net-(J2-Pin_1)*%
X104140000Y-123190000D03*
%TO.P,J2,32,Pin_32*%
%TO.N,Net-(J2-Pin_10)*%
X106680000Y-123190000D03*
%TO.P,J2,33,Pin_33*%
%TO.N,Net-(J2-Pin_1)*%
X104140000Y-125730000D03*
%TO.P,J2,34,Pin_34*%
%TO.N,Net-(J2-Pin_10)*%
X106680000Y-125730000D03*
%TO.P,J2,35,Pin_35*%
%TO.N,Net-(J2-Pin_1)*%
X104140000Y-128270000D03*
%TO.P,J2,36,Pin_36*%
%TO.N,Net-(J2-Pin_10)*%
X106680000Y-128270000D03*
%TO.P,J2,37,Pin_37*%
%TO.N,Net-(J2-Pin_1)*%
X104140000Y-130810000D03*
%TO.P,J2,38,Pin_38*%
%TO.N,Net-(J2-Pin_10)*%
X106680000Y-130810000D03*
%TO.P,J2,39,Pin_39*%
%TO.N,Net-(J2-Pin_1)*%
X104140000Y-133350000D03*
%TO.P,J2,40,Pin_40*%
%TO.N,Net-(J2-Pin_10)*%
X106680000Y-133350000D03*
%TD*%
D13*
%TO.P,J1,1,Pin_1*%
%TO.N,Net-(J1-Pin_1)*%
X104140000Y-31750000D03*
D14*
%TO.P,J1,2,Pin_2*%
%TO.N,Net-(J1-Pin_10)*%
X106680000Y-31750000D03*
%TO.P,J1,3,Pin_3*%
%TO.N,Net-(J1-Pin_1)*%
X104140000Y-34290000D03*
%TO.P,J1,4,Pin_4*%
%TO.N,Net-(J1-Pin_10)*%
X106680000Y-34290000D03*
%TO.P,J1,5,Pin_5*%
%TO.N,Net-(J1-Pin_1)*%
X104140000Y-36830000D03*
%TO.P,J1,6,Pin_6*%
%TO.N,Net-(J1-Pin_10)*%
X106680000Y-36830000D03*
%TO.P,J1,7,Pin_7*%
%TO.N,Net-(J1-Pin_1)*%
X104140000Y-39370000D03*
%TO.P,J1,8,Pin_8*%
%TO.N,Net-(J1-Pin_10)*%
X106680000Y-39370000D03*
%TO.P,J1,9,Pin_9*%
%TO.N,Net-(J1-Pin_1)*%
X104140000Y-41910000D03*
%TO.P,J1,10,Pin_10*%
%TO.N,Net-(J1-Pin_10)*%
X106680000Y-41910000D03*
%TO.P,J1,11,Pin_11*%
%TO.N,Net-(J1-Pin_1)*%
X104140000Y-44450000D03*
%TO.P,J1,12,Pin_12*%
%TO.N,Net-(J1-Pin_10)*%
X106680000Y-44450000D03*
%TO.P,J1,13,Pin_13*%
%TO.N,Net-(J1-Pin_1)*%
X104140000Y-46990000D03*
%TO.P,J1,14,Pin_14*%
%TO.N,Net-(J1-Pin_10)*%
X106680000Y-46990000D03*
%TO.P,J1,15,Pin_15*%
%TO.N,Net-(J1-Pin_1)*%
X104140000Y-49530000D03*
%TO.P,J1,16,Pin_16*%
%TO.N,Net-(J1-Pin_10)*%
X106680000Y-49530000D03*
%TO.P,J1,17,Pin_17*%
%TO.N,Net-(J1-Pin_1)*%
X104140000Y-52070000D03*
%TO.P,J1,18,Pin_18*%
%TO.N,Net-(J1-Pin_10)*%
X106680000Y-52070000D03*
%TO.P,J1,19,Pin_19*%
%TO.N,Net-(J1-Pin_1)*%
X104140000Y-54610000D03*
%TO.P,J1,20,Pin_20*%
%TO.N,Net-(J1-Pin_10)*%
X106680000Y-54610000D03*
%TO.P,J1,21,Pin_21*%
%TO.N,Net-(J1-Pin_1)*%
X104140000Y-57150000D03*
%TO.P,J1,22,Pin_22*%
%TO.N,Net-(J1-Pin_10)*%
X106680000Y-57150000D03*
%TO.P,J1,23,Pin_23*%
%TO.N,Net-(J1-Pin_1)*%
X104140000Y-59690000D03*
%TO.P,J1,24,Pin_24*%
%TO.N,Net-(J1-Pin_10)*%
X106680000Y-59690000D03*
%TO.P,J1,25,Pin_25*%
%TO.N,Net-(J1-Pin_1)*%
X104140000Y-62230000D03*
%TO.P,J1,26,Pin_26*%
%TO.N,Net-(J1-Pin_10)*%
X106680000Y-62230000D03*
%TO.P,J1,27,Pin_27*%
%TO.N,Net-(J1-Pin_1)*%
X104140000Y-64770000D03*
%TO.P,J1,28,Pin_28*%
%TO.N,Net-(J1-Pin_10)*%
X106680000Y-64770000D03*
%TO.P,J1,29,Pin_29*%
%TO.N,Net-(J1-Pin_1)*%
X104140000Y-67310000D03*
%TO.P,J1,30,Pin_30*%
%TO.N,Net-(J1-Pin_10)*%
X106680000Y-67310000D03*
%TO.P,J1,31,Pin_31*%
%TO.N,Net-(J1-Pin_1)*%
X104140000Y-69850000D03*
%TO.P,J1,32,Pin_32*%
%TO.N,Net-(J1-Pin_10)*%
X106680000Y-69850000D03*
%TO.P,J1,33,Pin_33*%
%TO.N,Net-(J1-Pin_1)*%
X104140000Y-72390000D03*
%TO.P,J1,34,Pin_34*%
%TO.N,Net-(J1-Pin_10)*%
X106680000Y-72390000D03*
%TO.P,J1,35,Pin_35*%
%TO.N,Net-(J1-Pin_1)*%
X104140000Y-74930000D03*
%TO.P,J1,36,Pin_36*%
%TO.N,Net-(J1-Pin_10)*%
X106680000Y-74930000D03*
%TO.P,J1,37,Pin_37*%
%TO.N,Net-(J1-Pin_1)*%
X104140000Y-77470000D03*
%TO.P,J1,38,Pin_38*%
%TO.N,Net-(J1-Pin_10)*%
X106680000Y-77470000D03*
%TO.P,J1,39,Pin_39*%
%TO.N,Net-(J1-Pin_1)*%
X104140000Y-80010000D03*
%TO.P,J1,40,Pin_40*%
%TO.N,Net-(J1-Pin_10)*%
X106680000Y-80010000D03*
%TD*%
D13*
%TO.P,J3,1,Pin_1*%
%TO.N,Net-(J3-Pin_1)*%
X104140000Y-138430000D03*
D14*
%TO.P,J3,2,Pin_2*%
%TO.N,Net-(J3-Pin_10)*%
X106680000Y-138430000D03*
%TO.P,J3,3,Pin_3*%
%TO.N,Net-(J3-Pin_1)*%
X104140000Y-140970000D03*
%TO.P,J3,4,Pin_4*%
%TO.N,Net-(J3-Pin_10)*%
X106680000Y-140970000D03*
%TO.P,J3,5,Pin_5*%
%TO.N,Net-(J3-Pin_1)*%
X104140000Y-143510000D03*
%TO.P,J3,6,Pin_6*%
%TO.N,Net-(J3-Pin_10)*%
X106680000Y-143510000D03*
%TO.P,J3,7,Pin_7*%
%TO.N,Net-(J3-Pin_1)*%
X104140000Y-146050000D03*
%TO.P,J3,8,Pin_8*%
%TO.N,Net-(J3-Pin_10)*%
X106680000Y-146050000D03*
%TO.P,J3,9,Pin_9*%
%TO.N,Net-(J3-Pin_1)*%
X104140000Y-148590000D03*
%TO.P,J3,10,Pin_10*%
%TO.N,Net-(J3-Pin_10)*%
X106680000Y-148590000D03*
%TO.P,J3,11,Pin_11*%
%TO.N,Net-(J3-Pin_1)*%
X104140000Y-151130000D03*
%TO.P,J3,12,Pin_12*%
%TO.N,Net-(J3-Pin_10)*%
X106680000Y-151130000D03*
%TO.P,J3,13,Pin_13*%
%TO.N,Net-(J3-Pin_1)*%
X104140000Y-153670000D03*
%TO.P,J3,14,Pin_14*%
%TO.N,Net-(J3-Pin_10)*%
X106680000Y-153670000D03*
%TO.P,J3,15,Pin_15*%
%TO.N,Net-(J3-Pin_1)*%
X104140000Y-156210000D03*
%TO.P,J3,16,Pin_16*%
%TO.N,Net-(J3-Pin_10)*%
X106680000Y-156210000D03*
%TO.P,J3,17,Pin_17*%
%TO.N,Net-(J3-Pin_1)*%
X104140000Y-158750000D03*
%TO.P,J3,18,Pin_18*%
%TO.N,Net-(J3-Pin_10)*%
X106680000Y-158750000D03*
%TO.P,J3,19,Pin_19*%
%TO.N,Net-(J3-Pin_1)*%
X104140000Y-161290000D03*
%TO.P,J3,20,Pin_20*%
%TO.N,Net-(J3-Pin_10)*%
X106680000Y-161290000D03*
%TO.P,J3,21,Pin_21*%
%TO.N,Net-(J3-Pin_1)*%
X104140000Y-163830000D03*
%TO.P,J3,22,Pin_22*%
%TO.N,Net-(J3-Pin_10)*%
X106680000Y-163830000D03*
%TO.P,J3,23,Pin_23*%
%TO.N,Net-(J3-Pin_1)*%
X104140000Y-166370000D03*
%TO.P,J3,24,Pin_24*%
%TO.N,Net-(J3-Pin_10)*%
X106680000Y-166370000D03*
%TO.P,J3,25,Pin_25*%
%TO.N,Net-(J3-Pin_1)*%
X104140000Y-168910000D03*
%TO.P,J3,26,Pin_26*%
%TO.N,Net-(J3-Pin_10)*%
X106680000Y-168910000D03*
%TO.P,J3,27,Pin_27*%
%TO.N,Net-(J3-Pin_1)*%
X104140000Y-171450000D03*
%TO.P,J3,28,Pin_28*%
%TO.N,Net-(J3-Pin_10)*%
X106680000Y-171450000D03*
%TO.P,J3,29,Pin_29*%
%TO.N,Net-(J3-Pin_1)*%
X104140000Y-173990000D03*
%TO.P,J3,30,Pin_30*%
%TO.N,Net-(J3-Pin_10)*%
X106680000Y-173990000D03*
%TO.P,J3,31,Pin_31*%
%TO.N,Net-(J3-Pin_1)*%
X104140000Y-176530000D03*
%TO.P,J3,32,Pin_32*%
%TO.N,Net-(J3-Pin_10)*%
X106680000Y-176530000D03*
%TO.P,J3,33,Pin_33*%
%TO.N,Net-(J3-Pin_1)*%
X104140000Y-179070000D03*
%TO.P,J3,34,Pin_34*%
%TO.N,Net-(J3-Pin_10)*%
X106680000Y-179070000D03*
%TO.P,J3,35,Pin_35*%
%TO.N,Net-(J3-Pin_1)*%
X104140000Y-181610000D03*
%TO.P,J3,36,Pin_36*%
%TO.N,Net-(J3-Pin_10)*%
X106680000Y-181610000D03*
%TO.P,J3,37,Pin_37*%
%TO.N,Net-(J3-Pin_1)*%
X104140000Y-184150000D03*
%TO.P,J3,38,Pin_38*%
%TO.N,Net-(J3-Pin_10)*%
X106680000Y-184150000D03*
%TO.P,J3,39,Pin_39*%
%TO.N,Net-(J3-Pin_1)*%
X104140000Y-186690000D03*
%TO.P,J3,40,Pin_40*%
%TO.N,Net-(J3-Pin_10)*%
X106680000Y-186690000D03*
%TD*%
D13*
%TO.P,J5,1,Pin_1*%
%TO.N,Net-(J5-Pin_1)*%
X149860000Y-85090000D03*
D14*
%TO.P,J5,2,Pin_2*%
%TO.N,Net-(J5-Pin_10)*%
X152400000Y-85090000D03*
%TO.P,J5,3,Pin_3*%
%TO.N,Net-(J5-Pin_1)*%
X149860000Y-87630000D03*
%TO.P,J5,4,Pin_4*%
%TO.N,Net-(J5-Pin_10)*%
X152400000Y-87630000D03*
%TO.P,J5,5,Pin_5*%
%TO.N,Net-(J5-Pin_1)*%
X149860000Y-90170000D03*
%TO.P,J5,6,Pin_6*%
%TO.N,Net-(J5-Pin_10)*%
X152400000Y-90170000D03*
%TO.P,J5,7,Pin_7*%
%TO.N,Net-(J5-Pin_1)*%
X149860000Y-92710000D03*
%TO.P,J5,8,Pin_8*%
%TO.N,Net-(J5-Pin_10)*%
X152400000Y-92710000D03*
%TO.P,J5,9,Pin_9*%
%TO.N,Net-(J5-Pin_1)*%
X149860000Y-95250000D03*
%TO.P,J5,10,Pin_10*%
%TO.N,Net-(J5-Pin_10)*%
X152400000Y-95250000D03*
%TO.P,J5,11,Pin_11*%
%TO.N,Net-(J5-Pin_1)*%
X149860000Y-97790000D03*
%TO.P,J5,12,Pin_12*%
%TO.N,Net-(J5-Pin_10)*%
X152400000Y-97790000D03*
%TO.P,J5,13,Pin_13*%
%TO.N,Net-(J5-Pin_1)*%
X149860000Y-100330000D03*
%TO.P,J5,14,Pin_14*%
%TO.N,Net-(J5-Pin_10)*%
X152400000Y-100330000D03*
%TO.P,J5,15,Pin_15*%
%TO.N,Net-(J5-Pin_1)*%
X149860000Y-102870000D03*
%TO.P,J5,16,Pin_16*%
%TO.N,Net-(J5-Pin_10)*%
X152400000Y-102870000D03*
%TO.P,J5,17,Pin_17*%
%TO.N,Net-(J5-Pin_1)*%
X149860000Y-105410000D03*
%TO.P,J5,18,Pin_18*%
%TO.N,Net-(J5-Pin_10)*%
X152400000Y-105410000D03*
%TO.P,J5,19,Pin_19*%
%TO.N,Net-(J5-Pin_1)*%
X149860000Y-107950000D03*
%TO.P,J5,20,Pin_20*%
%TO.N,Net-(J5-Pin_10)*%
X152400000Y-107950000D03*
%TO.P,J5,21,Pin_21*%
%TO.N,Net-(J5-Pin_1)*%
X149860000Y-110490000D03*
%TO.P,J5,22,Pin_22*%
%TO.N,Net-(J5-Pin_10)*%
X152400000Y-110490000D03*
%TO.P,J5,23,Pin_23*%
%TO.N,Net-(J5-Pin_1)*%
X149860000Y-113030000D03*
%TO.P,J5,24,Pin_24*%
%TO.N,Net-(J5-Pin_10)*%
X152400000Y-113030000D03*
%TO.P,J5,25,Pin_25*%
%TO.N,Net-(J5-Pin_1)*%
X149860000Y-115570000D03*
%TO.P,J5,26,Pin_26*%
%TO.N,Net-(J5-Pin_10)*%
X152400000Y-115570000D03*
%TO.P,J5,27,Pin_27*%
%TO.N,Net-(J5-Pin_1)*%
X149860000Y-118110000D03*
%TO.P,J5,28,Pin_28*%
%TO.N,Net-(J5-Pin_10)*%
X152400000Y-118110000D03*
%TO.P,J5,29,Pin_29*%
%TO.N,Net-(J5-Pin_1)*%
X149860000Y-120650000D03*
%TO.P,J5,30,Pin_30*%
%TO.N,Net-(J5-Pin_10)*%
X152400000Y-120650000D03*
%TO.P,J5,31,Pin_31*%
%TO.N,Net-(J5-Pin_1)*%
X149860000Y-123190000D03*
%TO.P,J5,32,Pin_32*%
%TO.N,Net-(J5-Pin_10)*%
X152400000Y-123190000D03*
%TO.P,J5,33,Pin_33*%
%TO.N,Net-(J5-Pin_1)*%
X149860000Y-125730000D03*
%TO.P,J5,34,Pin_34*%
%TO.N,Net-(J5-Pin_10)*%
X152400000Y-125730000D03*
%TO.P,J5,35,Pin_35*%
%TO.N,Net-(J5-Pin_1)*%
X149860000Y-128270000D03*
%TO.P,J5,36,Pin_36*%
%TO.N,Net-(J5-Pin_10)*%
X152400000Y-128270000D03*
%TO.P,J5,37,Pin_37*%
%TO.N,Net-(J5-Pin_1)*%
X149860000Y-130810000D03*
%TO.P,J5,38,Pin_38*%
%TO.N,Net-(J5-Pin_10)*%
X152400000Y-130810000D03*
%TO.P,J5,39,Pin_39*%
%TO.N,Net-(J5-Pin_1)*%
X149860000Y-133350000D03*
%TO.P,J5,40,Pin_40*%
%TO.N,Net-(J5-Pin_10)*%
X152400000Y-133350000D03*
%TD*%
D15*
%TO.N,unconnected-(U1-PIN126-Pad126)*%
X132080000Y-34290000D02*
X134620000Y-34290000D01*
X134620000Y-34290000D02*
X137160000Y-34290000D01*
X137160000Y-34290000D02*
X139700000Y-34290000D01*
X139700000Y-34290000D02*
X142240000Y-34290000D01*
%TO.N,unconnected-(U1-PIN125-Pad125)*%
X132080000Y-36830000D02*
X134620000Y-36830000D01*
X134620000Y-36830000D02*
X137160000Y-36830000D01*
X137160000Y-36830000D02*
X139700000Y-36830000D01*
X139700000Y-36830000D02*
X142240000Y-36830000D01*
%TO.N,unconnected-(U1-PIN124-Pad124)*%
X132080000Y-39370000D02*
X134620000Y-39370000D01*
X134620000Y-39370000D02*
X137160000Y-39370000D01*
X137160000Y-39370000D02*
X139700000Y-39370000D01*
X139700000Y-39370000D02*
X142240000Y-39370000D01*
%TO.N,unconnected-(U1-PIN123-Pad123)*%
X132080000Y-41910000D02*
X134620000Y-41910000D01*
X134620000Y-41910000D02*
X137160000Y-41910000D01*
X137160000Y-41910000D02*
X139700000Y-41910000D01*
X139700000Y-41910000D02*
X142240000Y-41910000D01*
%TO.N,unconnected-(U1-PIN122-Pad122)*%
X132080000Y-44450000D02*
X134620000Y-44450000D01*
X134620000Y-44450000D02*
X137160000Y-44450000D01*
X137160000Y-44450000D02*
X139700000Y-44450000D01*
X139700000Y-44450000D02*
X142240000Y-44450000D01*
%TO.N,unconnected-(U1-PIN121-Pad121)*%
X132080000Y-46990000D02*
X134620000Y-46990000D01*
X134620000Y-46990000D02*
X137160000Y-46990000D01*
X137160000Y-46990000D02*
X139700000Y-46990000D01*
X139700000Y-46990000D02*
X142240000Y-46990000D01*
%TO.N,unconnected-(U1-PIN120-Pad120)*%
X132080000Y-49530000D02*
X134620000Y-49530000D01*
X134620000Y-49530000D02*
X137160000Y-49530000D01*
X137160000Y-49530000D02*
X139700000Y-49530000D01*
X139700000Y-49530000D02*
X142240000Y-49530000D01*
%TO.N,unconnected-(U1-PIN119-Pad119)*%
X132080000Y-52070000D02*
X134620000Y-52070000D01*
X134620000Y-52070000D02*
X137160000Y-52070000D01*
X137160000Y-52070000D02*
X139700000Y-52070000D01*
X139700000Y-52070000D02*
X142240000Y-52070000D01*
%TO.N,unconnected-(U1-PIN118-Pad118)*%
X132080000Y-54610000D02*
X134620000Y-54610000D01*
X134620000Y-54610000D02*
X137160000Y-54610000D01*
X137160000Y-54610000D02*
X139700000Y-54610000D01*
X139700000Y-54610000D02*
X142240000Y-54610000D01*
%TO.N,unconnected-(U1-PIN117-Pad117)*%
X132080000Y-57150000D02*
X134620000Y-57150000D01*
X134620000Y-57150000D02*
X137160000Y-57150000D01*
X137160000Y-57150000D02*
X139700000Y-57150000D01*
X139700000Y-57150000D02*
X142240000Y-57150000D01*
%TO.N,unconnected-(U1-PIN116-Pad116)*%
X132080000Y-59690000D02*
X134620000Y-59690000D01*
X134620000Y-59690000D02*
X137160000Y-59690000D01*
X137160000Y-59690000D02*
X139700000Y-59690000D01*
X139700000Y-59690000D02*
X142240000Y-59690000D01*
%TO.N,unconnected-(U1-PIN115-Pad115)*%
X132080000Y-62230000D02*
X134620000Y-62230000D01*
X134620000Y-62230000D02*
X137160000Y-62230000D01*
X137160000Y-62230000D02*
X139700000Y-62230000D01*
X139700000Y-62230000D02*
X142240000Y-62230000D01*
%TO.N,unconnected-(U1-PIN114-Pad114)*%
X132080000Y-64770000D02*
X134620000Y-64770000D01*
X134620000Y-64770000D02*
X137160000Y-64770000D01*
X137160000Y-64770000D02*
X139700000Y-64770000D01*
X139700000Y-64770000D02*
X142240000Y-64770000D01*
%TO.N,unconnected-(U1-PIN113-Pad113)*%
X132080000Y-67310000D02*
X134620000Y-67310000D01*
X134620000Y-67310000D02*
X137160000Y-67310000D01*
X137160000Y-67310000D02*
X139700000Y-67310000D01*
X139700000Y-67310000D02*
X142240000Y-67310000D01*
%TO.N,unconnected-(U1-PIN112-Pad112)*%
X132080000Y-69850000D02*
X134620000Y-69850000D01*
X134620000Y-69850000D02*
X137160000Y-69850000D01*
X137160000Y-69850000D02*
X139700000Y-69850000D01*
X139700000Y-69850000D02*
X142240000Y-69850000D01*
%TO.N,unconnected-(U1-PIN111-Pad111)*%
X132080000Y-72390000D02*
X134620000Y-72390000D01*
X134620000Y-72390000D02*
X137160000Y-72390000D01*
X137160000Y-72390000D02*
X139700000Y-72390000D01*
X139700000Y-72390000D02*
X142240000Y-72390000D01*
%TO.N,unconnected-(U1-PIN110-Pad110)*%
X132080000Y-74930000D02*
X134620000Y-74930000D01*
X134620000Y-74930000D02*
X137160000Y-74930000D01*
X137160000Y-74930000D02*
X139700000Y-74930000D01*
X139700000Y-74930000D02*
X142240000Y-74930000D01*
%TO.N,unconnected-(U1-PIN109-Pad109)*%
X132080000Y-77470000D02*
X134620000Y-77470000D01*
X134620000Y-77470000D02*
X137160000Y-77470000D01*
X137160000Y-77470000D02*
X139700000Y-77470000D01*
X139700000Y-77470000D02*
X142240000Y-77470000D01*
%TO.N,unconnected-(U1-PIN108-Pad108)*%
X132080000Y-80010000D02*
X134620000Y-80010000D01*
X134620000Y-80010000D02*
X137160000Y-80010000D01*
X137160000Y-80010000D02*
X139700000Y-80010000D01*
X139700000Y-80010000D02*
X142240000Y-80010000D01*
%TO.N,unconnected-(U1-PIN107-Pad107)*%
X132080000Y-82550000D02*
X134620000Y-82550000D01*
X134620000Y-82550000D02*
X137160000Y-82550000D01*
X137160000Y-82550000D02*
X139700000Y-82550000D01*
X139700000Y-82550000D02*
X142240000Y-82550000D01*
%TO.N,unconnected-(U1-PIN106-Pad106)*%
X132080000Y-85090000D02*
X134620000Y-85090000D01*
X134620000Y-85090000D02*
X137160000Y-85090000D01*
X137160000Y-85090000D02*
X139700000Y-85090000D01*
X139700000Y-85090000D02*
X142240000Y-85090000D01*
%TO.N,unconnected-(U1-PIN105-Pad105)*%
X132080000Y-87630000D02*
X134620000Y-87630000D01*
X134620000Y-87630000D02*
X137160000Y-87630000D01*
X137160000Y-87630000D02*
X139700000Y-87630000D01*
X139700000Y-87630000D02*
X142240000Y-87630000D01*
%TO.N,unconnected-(U1-PIN104-Pad104)*%
X132080000Y-90170000D02*
X134620000Y-90170000D01*
X134620000Y-90170000D02*
X137160000Y-90170000D01*
X137160000Y-90170000D02*
X139700000Y-90170000D01*
X139700000Y-90170000D02*
X142240000Y-90170000D01*
%TO.N,unconnected-(U1-PIN103-Pad103)*%
X132080000Y-92710000D02*
X134620000Y-92710000D01*
X134620000Y-92710000D02*
X137160000Y-92710000D01*
X137160000Y-92710000D02*
X139700000Y-92710000D01*
X139700000Y-92710000D02*
X142240000Y-92710000D01*
%TO.N,unconnected-(U1-PIN102-Pad102)*%
X132080000Y-95250000D02*
X134620000Y-95250000D01*
X134620000Y-95250000D02*
X137160000Y-95250000D01*
X137160000Y-95250000D02*
X139700000Y-95250000D01*
X139700000Y-95250000D02*
X142240000Y-95250000D01*
%TO.N,unconnected-(U1-PIN101-Pad101)*%
X132080000Y-97790000D02*
X134620000Y-97790000D01*
X134620000Y-97790000D02*
X137160000Y-97790000D01*
X137160000Y-97790000D02*
X139700000Y-97790000D01*
X139700000Y-97790000D02*
X142240000Y-97790000D01*
%TO.N,unconnected-(U1-PIN100-Pad100)*%
X132080000Y-100330000D02*
X134620000Y-100330000D01*
X134620000Y-100330000D02*
X137160000Y-100330000D01*
X137160000Y-100330000D02*
X139700000Y-100330000D01*
X139700000Y-100330000D02*
X142240000Y-100330000D01*
%TO.N,unconnected-(U1-PIN99-Pad99)*%
X132080000Y-102870000D02*
X134620000Y-102870000D01*
X134620000Y-102870000D02*
X137160000Y-102870000D01*
X137160000Y-102870000D02*
X139700000Y-102870000D01*
X139700000Y-102870000D02*
X142240000Y-102870000D01*
%TO.N,unconnected-(U1-PIN98-Pad98)*%
X132080000Y-105410000D02*
X134620000Y-105410000D01*
X134620000Y-105410000D02*
X137160000Y-105410000D01*
X137160000Y-105410000D02*
X139700000Y-105410000D01*
X139700000Y-105410000D02*
X142240000Y-105410000D01*
%TO.N,unconnected-(U1-PIN97-Pad97)*%
X132080000Y-107950000D02*
X134620000Y-107950000D01*
X134620000Y-107950000D02*
X137160000Y-107950000D01*
X137160000Y-107950000D02*
X139700000Y-107950000D01*
X139700000Y-107950000D02*
X142240000Y-107950000D01*
%TO.N,unconnected-(U1-PIN96-Pad96)*%
X132080000Y-110490000D02*
X134620000Y-110490000D01*
X134620000Y-110490000D02*
X137160000Y-110490000D01*
X137160000Y-110490000D02*
X139700000Y-110490000D01*
X139700000Y-110490000D02*
X142240000Y-110490000D01*
%TO.N,unconnected-(U1-PIN95-Pad95)*%
X132080000Y-113030000D02*
X134620000Y-113030000D01*
X134620000Y-113030000D02*
X137160000Y-113030000D01*
X137160000Y-113030000D02*
X139700000Y-113030000D01*
X139700000Y-113030000D02*
X142240000Y-113030000D01*
%TO.N,unconnected-(U1-PIN94-Pad94)*%
X132080000Y-115570000D02*
X134620000Y-115570000D01*
X134620000Y-115570000D02*
X137160000Y-115570000D01*
X137160000Y-115570000D02*
X139700000Y-115570000D01*
X139700000Y-115570000D02*
X142240000Y-115570000D01*
%TO.N,unconnected-(U1-PIN93-Pad93)*%
X132080000Y-118110000D02*
X134620000Y-118110000D01*
X134620000Y-118110000D02*
X137160000Y-118110000D01*
X137160000Y-118110000D02*
X139700000Y-118110000D01*
X139700000Y-118110000D02*
X142240000Y-118110000D01*
%TO.N,unconnected-(U1-PIN92-Pad92)*%
X132080000Y-120650000D02*
X134620000Y-120650000D01*
X134620000Y-120650000D02*
X137160000Y-120650000D01*
X137160000Y-120650000D02*
X139700000Y-120650000D01*
X139700000Y-120650000D02*
X142240000Y-120650000D01*
%TO.N,unconnected-(U1-PIN91-Pad91)*%
X132080000Y-123190000D02*
X134620000Y-123190000D01*
X134620000Y-123190000D02*
X137160000Y-123190000D01*
X137160000Y-123190000D02*
X139700000Y-123190000D01*
X139700000Y-123190000D02*
X142240000Y-123190000D01*
%TO.N,unconnected-(U1-PIN90-Pad90)*%
X132080000Y-125730000D02*
X134620000Y-125730000D01*
X134620000Y-125730000D02*
X137160000Y-125730000D01*
X137160000Y-125730000D02*
X139700000Y-125730000D01*
X139700000Y-125730000D02*
X142240000Y-125730000D01*
%TO.N,unconnected-(U1-PIN89-Pad89)*%
X132080000Y-128270000D02*
X134620000Y-128270000D01*
X134620000Y-128270000D02*
X137160000Y-128270000D01*
X137160000Y-128270000D02*
X139700000Y-128270000D01*
X139700000Y-128270000D02*
X142240000Y-128270000D01*
%TO.N,unconnected-(U1-PIN88-Pad88)*%
X132080000Y-130810000D02*
X134620000Y-130810000D01*
X134620000Y-130810000D02*
X137160000Y-130810000D01*
X137160000Y-130810000D02*
X139700000Y-130810000D01*
X139700000Y-130810000D02*
X142240000Y-130810000D01*
%TO.N,unconnected-(U1-PIN87-Pad87)*%
X132080000Y-133350000D02*
X134620000Y-133350000D01*
X134620000Y-133350000D02*
X137160000Y-133350000D01*
X137160000Y-133350000D02*
X139700000Y-133350000D01*
X139700000Y-133350000D02*
X142240000Y-133350000D01*
%TO.N,unconnected-(U1-PIN86-Pad86)*%
X132080000Y-135890000D02*
X134620000Y-135890000D01*
X134620000Y-135890000D02*
X137160000Y-135890000D01*
X137160000Y-135890000D02*
X139700000Y-135890000D01*
X139700000Y-135890000D02*
X142240000Y-135890000D01*
%TO.N,unconnected-(U1-PIN85-Pad85)*%
X132080000Y-138430000D02*
X134620000Y-138430000D01*
X134620000Y-138430000D02*
X137160000Y-138430000D01*
X137160000Y-138430000D02*
X139700000Y-138430000D01*
X139700000Y-138430000D02*
X142240000Y-138430000D01*
%TO.N,unconnected-(U1-PIN84-Pad84)*%
X132080000Y-140970000D02*
X134620000Y-140970000D01*
X134620000Y-140970000D02*
X137160000Y-140970000D01*
X137160000Y-140970000D02*
X139700000Y-140970000D01*
X139700000Y-140970000D02*
X142240000Y-140970000D01*
%TO.N,unconnected-(U1-PIN83-Pad83)*%
X132080000Y-143510000D02*
X134620000Y-143510000D01*
X134620000Y-143510000D02*
X137160000Y-143510000D01*
X137160000Y-143510000D02*
X139700000Y-143510000D01*
X139700000Y-143510000D02*
X142240000Y-143510000D01*
%TO.N,unconnected-(U1-PIN82-Pad82)*%
X132080000Y-146050000D02*
X134620000Y-146050000D01*
X134620000Y-146050000D02*
X137160000Y-146050000D01*
X137160000Y-146050000D02*
X139700000Y-146050000D01*
X139700000Y-146050000D02*
X142240000Y-146050000D01*
%TO.N,unconnected-(U1-PIN81-Pad81)*%
X132080000Y-148590000D02*
X134620000Y-148590000D01*
X134620000Y-148590000D02*
X137160000Y-148590000D01*
X137160000Y-148590000D02*
X139700000Y-148590000D01*
X139700000Y-148590000D02*
X142240000Y-148590000D01*
%TO.N,unconnected-(U1-PIN80-Pad80)*%
X132080000Y-151130000D02*
X134620000Y-151130000D01*
X134620000Y-151130000D02*
X137160000Y-151130000D01*
X137160000Y-151130000D02*
X139700000Y-151130000D01*
X139700000Y-151130000D02*
X142240000Y-151130000D01*
%TO.N,unconnected-(U1-PIN79-Pad79)*%
X132080000Y-153670000D02*
X134620000Y-153670000D01*
X134620000Y-153670000D02*
X137160000Y-153670000D01*
X137160000Y-153670000D02*
X139700000Y-153670000D01*
X139700000Y-153670000D02*
X142240000Y-153670000D01*
%TO.N,unconnected-(U1-PIN78-Pad78)*%
X132080000Y-156210000D02*
X134620000Y-156210000D01*
X134620000Y-156210000D02*
X137160000Y-156210000D01*
X137160000Y-156210000D02*
X139700000Y-156210000D01*
X139700000Y-156210000D02*
X142240000Y-156210000D01*
%TO.N,unconnected-(U1-PIN77-Pad77)*%
X132080000Y-158750000D02*
X134620000Y-158750000D01*
X134620000Y-158750000D02*
X137160000Y-158750000D01*
X137160000Y-158750000D02*
X139700000Y-158750000D01*
X139700000Y-158750000D02*
X142240000Y-158750000D01*
%TO.N,unconnected-(U1-PIN76-Pad76)*%
X132080000Y-161290000D02*
X134620000Y-161290000D01*
X134620000Y-161290000D02*
X137160000Y-161290000D01*
X137160000Y-161290000D02*
X139700000Y-161290000D01*
X139700000Y-161290000D02*
X142240000Y-161290000D01*
%TO.N,unconnected-(U1-PIN75-Pad75)*%
X132080000Y-163830000D02*
X134620000Y-163830000D01*
X134620000Y-163830000D02*
X137160000Y-163830000D01*
X137160000Y-163830000D02*
X139700000Y-163830000D01*
X139700000Y-163830000D02*
X142240000Y-163830000D01*
%TO.N,unconnected-(U1-PIN74-Pad74)*%
X132080000Y-166370000D02*
X134620000Y-166370000D01*
X134620000Y-166370000D02*
X137160000Y-166370000D01*
X137160000Y-166370000D02*
X139700000Y-166370000D01*
X139700000Y-166370000D02*
X142240000Y-166370000D01*
%TO.N,unconnected-(U1-PIN73-Pad73)*%
X132080000Y-168910000D02*
X134620000Y-168910000D01*
X134620000Y-168910000D02*
X137160000Y-168910000D01*
X137160000Y-168910000D02*
X139700000Y-168910000D01*
X139700000Y-168910000D02*
X142240000Y-168910000D01*
%TO.N,unconnected-(U1-PIN72-Pad72)*%
X132080000Y-171450000D02*
X134620000Y-171450000D01*
X134620000Y-171450000D02*
X137160000Y-171450000D01*
X137160000Y-171450000D02*
X139700000Y-171450000D01*
X139700000Y-171450000D02*
X142240000Y-171450000D01*
%TO.N,unconnected-(U1-PIN71-Pad71)*%
X132080000Y-173990000D02*
X134620000Y-173990000D01*
X134620000Y-173990000D02*
X137160000Y-173990000D01*
X137160000Y-173990000D02*
X139700000Y-173990000D01*
X139700000Y-173990000D02*
X142240000Y-173990000D01*
%TO.N,unconnected-(U1-PIN70-Pad70)*%
X132080000Y-176530000D02*
X134620000Y-176530000D01*
X134620000Y-176530000D02*
X137160000Y-176530000D01*
X137160000Y-176530000D02*
X139700000Y-176530000D01*
X139700000Y-176530000D02*
X142240000Y-176530000D01*
%TO.N,unconnected-(U1-PIN69-Pad69)*%
X132080000Y-179070000D02*
X134620000Y-179070000D01*
X134620000Y-179070000D02*
X137160000Y-179070000D01*
X137160000Y-179070000D02*
X139700000Y-179070000D01*
X139700000Y-179070000D02*
X142240000Y-179070000D01*
%TO.N,unconnected-(U1-PIN68-Pad68)*%
X132080000Y-181610000D02*
X134620000Y-181610000D01*
X134620000Y-181610000D02*
X137160000Y-181610000D01*
X137160000Y-181610000D02*
X139700000Y-181610000D01*
X139700000Y-181610000D02*
X142240000Y-181610000D01*
%TO.N,unconnected-(U1-PIN67-Pad67)*%
X132080000Y-184150000D02*
X134620000Y-184150000D01*
X134620000Y-184150000D02*
X137160000Y-184150000D01*
X137160000Y-184150000D02*
X139700000Y-184150000D01*
X139700000Y-184150000D02*
X142240000Y-184150000D01*
%TO.N,unconnected-(U1-PIN66-Pad66)*%
X132080000Y-186690000D02*
X134620000Y-186690000D01*
X134620000Y-186690000D02*
X137160000Y-186690000D01*
X137160000Y-186690000D02*
X139700000Y-186690000D01*
X139700000Y-186690000D02*
X142240000Y-186690000D01*
%TO.N,unconnected-(U1-PIN65-Pad65)*%
X132080000Y-189230000D02*
X134620000Y-189230000D01*
X134620000Y-189230000D02*
X137160000Y-189230000D01*
X137160000Y-189230000D02*
X139700000Y-189230000D01*
X139700000Y-189230000D02*
X142240000Y-189230000D01*
%TO.N,unconnected-(U1-PIN64-Pad64)*%
X114300000Y-189230000D02*
X116840000Y-189230000D01*
X116840000Y-189230000D02*
X119380000Y-189230000D01*
X119380000Y-189230000D02*
X121920000Y-189230000D01*
X121920000Y-189230000D02*
X124460000Y-189230000D01*
%TO.N,unconnected-(U1-PIN63-Pad63)*%
X114300000Y-186690000D02*
X116840000Y-186690000D01*
X116840000Y-186690000D02*
X119380000Y-186690000D01*
X119380000Y-186690000D02*
X121920000Y-186690000D01*
X121920000Y-186690000D02*
X124460000Y-186690000D01*
%TO.N,unconnected-(U1-PIN62-Pad62)*%
X114300000Y-184150000D02*
X116840000Y-184150000D01*
X116840000Y-184150000D02*
X119380000Y-184150000D01*
X119380000Y-184150000D02*
X121920000Y-184150000D01*
X121920000Y-184150000D02*
X124460000Y-184150000D01*
%TO.N,unconnected-(U1-PIN61-Pad61)*%
X114300000Y-181610000D02*
X116840000Y-181610000D01*
X116840000Y-181610000D02*
X119380000Y-181610000D01*
X119380000Y-181610000D02*
X121920000Y-181610000D01*
X121920000Y-181610000D02*
X124460000Y-181610000D01*
%TO.N,unconnected-(U1-PIN60-Pad60)*%
X114300000Y-179070000D02*
X116840000Y-179070000D01*
X116840000Y-179070000D02*
X119380000Y-179070000D01*
X119380000Y-179070000D02*
X121920000Y-179070000D01*
X121920000Y-179070000D02*
X124460000Y-179070000D01*
%TO.N,unconnected-(U1-PIN59-Pad59)*%
X114300000Y-176530000D02*
X116840000Y-176530000D01*
X116840000Y-176530000D02*
X119380000Y-176530000D01*
X119380000Y-176530000D02*
X121920000Y-176530000D01*
X121920000Y-176530000D02*
X124460000Y-176530000D01*
%TO.N,unconnected-(U1-PIN58-Pad58)*%
X114300000Y-173990000D02*
X116840000Y-173990000D01*
X116840000Y-173990000D02*
X119380000Y-173990000D01*
X119380000Y-173990000D02*
X121920000Y-173990000D01*
X121920000Y-173990000D02*
X124460000Y-173990000D01*
%TO.N,unconnected-(U1-PIN57-Pad57)*%
X114300000Y-171450000D02*
X116840000Y-171450000D01*
X116840000Y-171450000D02*
X119380000Y-171450000D01*
X119380000Y-171450000D02*
X121920000Y-171450000D01*
X121920000Y-171450000D02*
X124460000Y-171450000D01*
%TO.N,unconnected-(U1-PIN56-Pad56)*%
X114300000Y-168910000D02*
X116840000Y-168910000D01*
X116840000Y-168910000D02*
X119380000Y-168910000D01*
X119380000Y-168910000D02*
X121920000Y-168910000D01*
X121920000Y-168910000D02*
X124460000Y-168910000D01*
%TO.N,unconnected-(U1-PIN55-Pad55)*%
X114300000Y-166370000D02*
X116840000Y-166370000D01*
X116840000Y-166370000D02*
X119380000Y-166370000D01*
X119380000Y-166370000D02*
X121920000Y-166370000D01*
X121920000Y-166370000D02*
X124460000Y-166370000D01*
%TO.N,unconnected-(U1-PIN54-Pad54)*%
X114300000Y-163830000D02*
X116840000Y-163830000D01*
X116840000Y-163830000D02*
X119380000Y-163830000D01*
X119380000Y-163830000D02*
X121920000Y-163830000D01*
X121920000Y-163830000D02*
X124460000Y-163830000D01*
%TO.N,unconnected-(U1-PIN53-Pad53)*%
X114300000Y-161290000D02*
X116840000Y-161290000D01*
X116840000Y-161290000D02*
X119380000Y-161290000D01*
X119380000Y-161290000D02*
X121920000Y-161290000D01*
X121920000Y-161290000D02*
X124460000Y-161290000D01*
%TO.N,unconnected-(U1-PIN52-Pad52)*%
X114200000Y-158750000D02*
X116740000Y-158750000D01*
X116740000Y-158750000D02*
X119280000Y-158750000D01*
X119280000Y-158750000D02*
X121820000Y-158750000D01*
X121820000Y-158750000D02*
X124360000Y-158750000D01*
%TO.N,unconnected-(U1-PIN51-Pad51)*%
X114200000Y-156210000D02*
X116740000Y-156210000D01*
X116740000Y-156210000D02*
X119280000Y-156210000D01*
X119280000Y-156210000D02*
X121820000Y-156210000D01*
X121820000Y-156210000D02*
X124360000Y-156210000D01*
%TO.N,unconnected-(U1-PIN50-Pad50)*%
X114300000Y-153670000D02*
X116840000Y-153670000D01*
X116840000Y-153670000D02*
X119380000Y-153670000D01*
X119380000Y-153670000D02*
X121920000Y-153670000D01*
X121920000Y-153670000D02*
X124460000Y-153670000D01*
%TO.N,unconnected-(U1-PIN49-Pad49)*%
X114300000Y-151130000D02*
X116840000Y-151130000D01*
X116840000Y-151130000D02*
X119380000Y-151130000D01*
X119380000Y-151130000D02*
X121920000Y-151130000D01*
X121920000Y-151130000D02*
X124460000Y-151130000D01*
%TO.N,unconnected-(U1-PIN48-Pad48)*%
X114300000Y-148590000D02*
X116840000Y-148590000D01*
X116840000Y-148590000D02*
X119380000Y-148590000D01*
X119380000Y-148590000D02*
X121920000Y-148590000D01*
X121920000Y-148590000D02*
X124460000Y-148590000D01*
%TO.N,unconnected-(U1-PIN47-Pad47)*%
X114300000Y-146050000D02*
X116840000Y-146050000D01*
X116840000Y-146050000D02*
X119380000Y-146050000D01*
X119380000Y-146050000D02*
X121920000Y-146050000D01*
X121920000Y-146050000D02*
X124460000Y-146050000D01*
%TO.N,unconnected-(U1-PIN46-Pad46)*%
X114300000Y-143510000D02*
X116840000Y-143510000D01*
X116840000Y-143510000D02*
X119380000Y-143510000D01*
X119380000Y-143510000D02*
X121920000Y-143510000D01*
X121920000Y-143510000D02*
X124460000Y-143510000D01*
%TO.N,unconnected-(U1-PIN45-Pad45)*%
X114200000Y-140970000D02*
X116740000Y-140970000D01*
X116740000Y-140970000D02*
X119280000Y-140970000D01*
X119280000Y-140970000D02*
X121820000Y-140970000D01*
X121820000Y-140970000D02*
X124360000Y-140970000D01*
%TO.N,unconnected-(U1-PIN44-Pad44)*%
X114300000Y-138430000D02*
X116840000Y-138430000D01*
X116840000Y-138430000D02*
X119380000Y-138430000D01*
X119380000Y-138430000D02*
X121920000Y-138430000D01*
X121920000Y-138430000D02*
X124460000Y-138430000D01*
%TO.N,unconnected-(U1-PIN43-Pad43)*%
X114300000Y-135890000D02*
X116840000Y-135890000D01*
X116840000Y-135890000D02*
X119380000Y-135890000D01*
X119380000Y-135890000D02*
X121920000Y-135890000D01*
X121920000Y-135890000D02*
X124460000Y-135890000D01*
%TO.N,unconnected-(U1-PIN42-Pad42)*%
X114300000Y-133350000D02*
X116840000Y-133350000D01*
X116840000Y-133350000D02*
X119380000Y-133350000D01*
X119380000Y-133350000D02*
X121920000Y-133350000D01*
X121920000Y-133350000D02*
X124460000Y-133350000D01*
%TO.N,unconnected-(U1-PIN41-Pad41)*%
X114300000Y-130810000D02*
X116840000Y-130810000D01*
X116840000Y-130810000D02*
X119380000Y-130810000D01*
X119380000Y-130810000D02*
X121920000Y-130810000D01*
X121920000Y-130810000D02*
X124460000Y-130810000D01*
%TO.N,unconnected-(U1-PIN40-Pad40)*%
X114300000Y-128270000D02*
X116840000Y-128270000D01*
X116840000Y-128270000D02*
X119380000Y-128270000D01*
X119380000Y-128270000D02*
X121920000Y-128270000D01*
X121920000Y-128270000D02*
X124460000Y-128270000D01*
%TO.N,unconnected-(U1-PIN39-Pad39)*%
X114300000Y-125730000D02*
X116840000Y-125730000D01*
X116840000Y-125730000D02*
X119380000Y-125730000D01*
X119380000Y-125730000D02*
X121920000Y-125730000D01*
X121920000Y-125730000D02*
X124460000Y-125730000D01*
%TO.N,unconnected-(U1-PIN38-Pad38)*%
X114300000Y-123190000D02*
X116840000Y-123190000D01*
X116840000Y-123190000D02*
X119380000Y-123190000D01*
X119380000Y-123190000D02*
X121920000Y-123190000D01*
X121920000Y-123190000D02*
X124460000Y-123190000D01*
%TO.N,unconnected-(U1-PIN37-Pad37)*%
X114300000Y-120650000D02*
X116840000Y-120650000D01*
X116840000Y-120650000D02*
X119380000Y-120650000D01*
X119380000Y-120650000D02*
X121920000Y-120650000D01*
X121920000Y-120650000D02*
X124460000Y-120650000D01*
%TO.N,unconnected-(U1-PIN36-Pad36)*%
X114300000Y-118110000D02*
X116840000Y-118110000D01*
X116840000Y-118110000D02*
X119380000Y-118110000D01*
X119380000Y-118110000D02*
X121920000Y-118110000D01*
X121920000Y-118110000D02*
X124460000Y-118110000D01*
%TO.N,unconnected-(U1-PIN35-Pad35)*%
X114300000Y-115570000D02*
X116840000Y-115570000D01*
X116840000Y-115570000D02*
X119380000Y-115570000D01*
X119380000Y-115570000D02*
X121920000Y-115570000D01*
X121920000Y-115570000D02*
X124460000Y-115570000D01*
%TO.N,unconnected-(U1-PIN34-Pad34)*%
X114300000Y-113030000D02*
X116840000Y-113030000D01*
X116840000Y-113030000D02*
X119380000Y-113030000D01*
X119380000Y-113030000D02*
X121920000Y-113030000D01*
X121920000Y-113030000D02*
X124460000Y-113030000D01*
%TO.N,unconnected-(U1-PIN33-Pad33)*%
X114300000Y-110490000D02*
X116840000Y-110490000D01*
X116840000Y-110490000D02*
X119380000Y-110490000D01*
X119380000Y-110490000D02*
X121920000Y-110490000D01*
X121920000Y-110490000D02*
X124460000Y-110490000D01*
%TO.N,unconnected-(U1-PIN32-Pad32)*%
X114300000Y-107950000D02*
X116840000Y-107950000D01*
X116840000Y-107950000D02*
X119380000Y-107950000D01*
X119380000Y-107950000D02*
X121920000Y-107950000D01*
X121920000Y-107950000D02*
X124460000Y-107950000D01*
%TO.N,unconnected-(U1-PIN31-Pad31)*%
X114300000Y-105410000D02*
X116840000Y-105410000D01*
X116840000Y-105410000D02*
X119380000Y-105410000D01*
X119380000Y-105410000D02*
X121920000Y-105410000D01*
X121920000Y-105410000D02*
X124460000Y-105410000D01*
%TO.N,unconnected-(U1-PIN30-Pad30)*%
X114300000Y-102870000D02*
X116840000Y-102870000D01*
X116840000Y-102870000D02*
X119380000Y-102870000D01*
X119380000Y-102870000D02*
X121920000Y-102870000D01*
X121920000Y-102870000D02*
X124460000Y-102870000D01*
%TO.N,unconnected-(U1-PIN29-Pad29)*%
X114300000Y-100330000D02*
X116740000Y-100330000D01*
X116740000Y-100330000D02*
X119380000Y-100330000D01*
X119380000Y-100330000D02*
X121820000Y-100330000D01*
X121820000Y-100330000D02*
X124460000Y-100330000D01*
%TO.N,unconnected-(U1-PIN28-Pad28)*%
X114300000Y-97790000D02*
X116840000Y-97790000D01*
X116840000Y-97790000D02*
X119380000Y-97790000D01*
X119380000Y-97790000D02*
X121920000Y-97790000D01*
X121920000Y-97790000D02*
X124460000Y-97790000D01*
%TO.N,unconnected-(U1-PIN27-Pad27)*%
X114300000Y-95250000D02*
X116840000Y-95250000D01*
X116840000Y-95250000D02*
X119380000Y-95250000D01*
X119380000Y-95250000D02*
X121920000Y-95250000D01*
X121920000Y-95250000D02*
X124460000Y-95250000D01*
%TO.N,unconnected-(U1-PIN26-Pad26)*%
X114300000Y-92710000D02*
X116840000Y-92710000D01*
X116840000Y-92710000D02*
X119380000Y-92710000D01*
X119380000Y-92710000D02*
X121920000Y-92710000D01*
X121920000Y-92710000D02*
X124460000Y-92710000D01*
%TO.N,unconnected-(U1-PIN25-Pad25)*%
X114300000Y-90170000D02*
X116840000Y-90170000D01*
X116840000Y-90170000D02*
X119380000Y-90170000D01*
X119380000Y-90170000D02*
X121920000Y-90170000D01*
X121920000Y-90170000D02*
X124460000Y-90170000D01*
%TO.N,unconnected-(U1-PIN24-Pad24)*%
X114300000Y-87630000D02*
X116840000Y-87630000D01*
X116840000Y-87630000D02*
X119380000Y-87630000D01*
X119380000Y-87630000D02*
X121920000Y-87630000D01*
X121920000Y-87630000D02*
X124460000Y-87630000D01*
%TO.N,unconnected-(U1-PIN23-Pad23)*%
X114300000Y-85090000D02*
X116840000Y-85090000D01*
X116840000Y-85090000D02*
X119380000Y-85090000D01*
X119380000Y-85090000D02*
X121920000Y-85090000D01*
X121920000Y-85090000D02*
X124460000Y-85090000D01*
%TO.N,unconnected-(U1-PIN22-Pad22)*%
X114300000Y-82550000D02*
X116840000Y-82550000D01*
X116840000Y-82550000D02*
X119380000Y-82550000D01*
X119380000Y-82550000D02*
X121920000Y-82550000D01*
X121920000Y-82550000D02*
X124460000Y-82550000D01*
%TO.N,unconnected-(U1-PIN21-Pad21)*%
X114300000Y-80010000D02*
X116840000Y-80010000D01*
X116840000Y-80010000D02*
X119380000Y-80010000D01*
X119380000Y-80010000D02*
X121920000Y-80010000D01*
X121920000Y-80010000D02*
X124460000Y-80010000D01*
%TO.N,unconnected-(U1-PIN20-Pad20)*%
X114300000Y-77470000D02*
X116840000Y-77470000D01*
X116840000Y-77470000D02*
X119380000Y-77470000D01*
X119380000Y-77470000D02*
X121920000Y-77470000D01*
X121920000Y-77470000D02*
X124460000Y-77470000D01*
%TO.N,unconnected-(U1-PIN19-Pad19)*%
X114300000Y-74930000D02*
X116840000Y-74930000D01*
X116840000Y-74930000D02*
X119380000Y-74930000D01*
X119380000Y-74930000D02*
X121920000Y-74930000D01*
X121920000Y-74930000D02*
X124460000Y-74930000D01*
%TO.N,unconnected-(U1-PIN18-Pad18)*%
X114300000Y-72390000D02*
X116840000Y-72390000D01*
X116840000Y-72390000D02*
X119380000Y-72390000D01*
X119380000Y-72390000D02*
X121920000Y-72390000D01*
X121920000Y-72390000D02*
X124460000Y-72390000D01*
%TO.N,unconnected-(U1-PIN17-Pad17)*%
X114200000Y-69850000D02*
X116740000Y-69850000D01*
X116740000Y-69850000D02*
X119280000Y-69850000D01*
X119280000Y-69850000D02*
X121820000Y-69850000D01*
X121820000Y-69850000D02*
X124360000Y-69850000D01*
%TO.N,unconnected-(U1-PIN16-Pad16)*%
X114200000Y-67310000D02*
X116740000Y-67310000D01*
X116740000Y-67310000D02*
X119280000Y-67310000D01*
X119280000Y-67310000D02*
X121820000Y-67310000D01*
X121820000Y-67310000D02*
X124360000Y-67310000D01*
%TO.N,unconnected-(U1-PIN15-Pad15)*%
X114200000Y-64770000D02*
X116740000Y-64770000D01*
X116740000Y-64770000D02*
X119280000Y-64770000D01*
X119280000Y-64770000D02*
X121820000Y-64770000D01*
X121820000Y-64770000D02*
X124360000Y-64770000D01*
%TO.N,unconnected-(U1-PIN14-Pad14)*%
X114300000Y-62230000D02*
X116840000Y-62230000D01*
X116840000Y-62230000D02*
X119380000Y-62230000D01*
X119380000Y-62230000D02*
X121920000Y-62230000D01*
X121920000Y-62230000D02*
X124460000Y-62230000D01*
%TO.N,unconnected-(U1-PIN13-Pad13)*%
X114300000Y-59690000D02*
X116840000Y-59690000D01*
X116840000Y-59690000D02*
X119380000Y-59690000D01*
X119380000Y-59690000D02*
X121920000Y-59690000D01*
X121920000Y-59690000D02*
X124460000Y-59690000D01*
%TO.N,unconnected-(U1-PIN12-Pad12)*%
X114300000Y-57150000D02*
X116840000Y-57150000D01*
X116840000Y-57150000D02*
X119380000Y-57150000D01*
X119380000Y-57150000D02*
X121920000Y-57150000D01*
X121920000Y-57150000D02*
X124460000Y-57150000D01*
%TO.N,unconnected-(U1-PIN11-Pad11)*%
X114300000Y-54610000D02*
X116840000Y-54610000D01*
X116840000Y-54610000D02*
X119380000Y-54610000D01*
X119380000Y-54610000D02*
X121920000Y-54610000D01*
X121920000Y-54610000D02*
X124460000Y-54610000D01*
%TO.N,unconnected-(U1-PIN10-Pad10)*%
X114300000Y-52070000D02*
X116840000Y-52070000D01*
X116840000Y-52070000D02*
X119380000Y-52070000D01*
X119380000Y-52070000D02*
X121920000Y-52070000D01*
X121920000Y-52070000D02*
X124460000Y-52070000D01*
%TO.N,unconnected-(U1-PIN9-Pad9)*%
X114300000Y-49530000D02*
X116840000Y-49530000D01*
X116840000Y-49530000D02*
X119380000Y-49530000D01*
X119380000Y-49530000D02*
X121920000Y-49530000D01*
X121920000Y-49530000D02*
X124460000Y-49530000D01*
%TO.N,unconnected-(U1-PIN8-Pad8)*%
X114300000Y-46990000D02*
X116840000Y-46990000D01*
X116840000Y-46990000D02*
X119380000Y-46990000D01*
X119380000Y-46990000D02*
X121920000Y-46990000D01*
X121920000Y-46990000D02*
X124460000Y-46990000D01*
%TO.N,unconnected-(U1-PIN7-Pad7)*%
X114300000Y-44450000D02*
X116840000Y-44450000D01*
X116840000Y-44450000D02*
X119380000Y-44450000D01*
X119380000Y-44450000D02*
X121920000Y-44450000D01*
X121920000Y-44450000D02*
X124460000Y-44450000D01*
%TO.N,unconnected-(U1-PIN6-Pad6)*%
X114300000Y-41910000D02*
X116840000Y-41910000D01*
X116840000Y-41910000D02*
X119380000Y-41910000D01*
X119380000Y-41910000D02*
X121920000Y-41910000D01*
X121920000Y-41910000D02*
X124460000Y-41910000D01*
%TO.N,unconnected-(U1-PIN5-Pad5)*%
X114300000Y-39370000D02*
X116840000Y-39370000D01*
X116840000Y-39370000D02*
X119380000Y-39370000D01*
X119380000Y-39370000D02*
X121920000Y-39370000D01*
X121920000Y-39370000D02*
X124460000Y-39370000D01*
%TO.N,unconnected-(U1-PIN4-Pad4)*%
X114300000Y-36830000D02*
X116840000Y-36830000D01*
X116840000Y-36830000D02*
X119380000Y-36830000D01*
X119380000Y-36830000D02*
X121920000Y-36830000D01*
X121920000Y-36830000D02*
X124460000Y-36830000D01*
%TO.N,unconnected-(U1-PIN126-Pad128)*%
X132080000Y-29210000D02*
X134620000Y-29210000D01*
X134620000Y-29210000D02*
X137160000Y-29210000D01*
X137160000Y-29210000D02*
X139700000Y-29210000D01*
X139700000Y-29210000D02*
X142240000Y-29210000D01*
%TO.N,unconnected-(U1-PIN125-Pad127)*%
X132080000Y-31750000D02*
X134620000Y-31750000D01*
X134620000Y-31750000D02*
X137160000Y-31750000D01*
X137160000Y-31750000D02*
X139700000Y-31750000D01*
X139700000Y-31750000D02*
X142240000Y-31750000D01*
%TO.N,unconnected-(U1-PIN3-Pad3)*%
X114300000Y-34290000D02*
X116840000Y-34290000D01*
X116840000Y-34290000D02*
X119380000Y-34290000D01*
X119380000Y-34290000D02*
X121920000Y-34290000D01*
X121920000Y-34290000D02*
X124460000Y-34290000D01*
%TO.N,unconnected-(U1-PIN2-Pad2)*%
X114300000Y-31750000D02*
X116840000Y-31750000D01*
X116840000Y-31750000D02*
X119380000Y-31750000D01*
X119380000Y-31750000D02*
X121920000Y-31750000D01*
X121920000Y-31750000D02*
X124460000Y-31750000D01*
%TO.N,unconnected-(U1-PIN1-Pad1)*%
X114300000Y-29210000D02*
X116840000Y-29210000D01*
X116840000Y-29210000D02*
X119380000Y-29210000D01*
X119380000Y-29210000D02*
X121920000Y-29210000D01*
X121920000Y-29210000D02*
X124460000Y-29210000D01*
%TD*%
M02*
